<svg width="35" height="36" viewBox="0 0 35 36" fill="none" xmlns="http://www.w3.org/2000/svg">
<g clip-path="url(#clip0_332_7601)">
<path d="M24.7917 0.5C19.0677 0.5 14.5833 3.06229 14.5833 6.33333V12.7179C13.2621 12.3679 11.7848 12.1667 10.2083 12.1667C4.48438 12.1667 0 14.729 0 18V29.6667C0 32.9377 4.48438 35.5 10.2083 35.5C15.9323 35.5 20.4167 32.9377 20.4167 29.6667V29.1052C21.7773 29.4669 23.2677 29.6667 24.7917 29.6667C30.5156 29.6667 35 27.1044 35 23.8333V6.33333C35 3.06229 30.5156 0.5 24.7917 0.5ZM24.7917 1.95833C29.5342 1.95833 33.5417 3.96208 33.5417 6.33333C33.5417 8.70458 29.5342 10.7083 24.7917 10.7083C20.0492 10.7083 16.0417 8.70458 16.0417 6.33333C16.0417 3.96208 20.0492 1.95833 24.7917 1.95833ZM10.2083 13.625C14.9508 13.625 18.9583 15.6288 18.9583 18C18.9583 20.3713 14.9508 22.375 10.2083 22.375C5.46583 22.375 1.45833 20.3713 1.45833 18C1.45833 15.6288 5.46583 13.625 10.2083 13.625ZM1.45833 21.0333C3.22729 22.7221 6.44438 23.8333 10.2083 23.8333C13.9723 23.8333 17.1894 22.7221 18.9583 21.0333V23.8333C18.9583 26.2046 14.9508 28.2083 10.2083 28.2083C5.46583 28.2083 1.45833 26.2046 1.45833 23.8333V21.0333ZM10.2083 34.0417C5.46583 34.0417 1.45833 32.0379 1.45833 29.6667V26.8667C3.22729 28.5554 6.44438 29.6667 10.2083 29.6667C13.9723 29.6667 17.1894 28.5554 18.9583 26.8667V29.6667C18.9583 32.0379 14.9508 34.0417 10.2083 34.0417ZM24.7917 28.2083C23.2502 28.2083 21.7496 27.991 20.4167 27.5929V23.2733C21.7758 23.635 23.2648 23.8319 24.7917 23.8319C28.5556 23.8319 31.7727 22.7206 33.5417 21.0319V23.8319C33.5417 26.2031 29.5342 28.2083 24.7917 28.2083ZM24.7917 22.375C23.2444 22.375 21.7496 22.1548 20.4167 21.7567V18C20.4167 17.806 20.3992 17.615 20.3671 17.4269C21.735 17.7973 23.2298 18 24.7917 18C28.5556 18 31.7727 16.8888 33.5417 15.2V18C33.5417 20.3713 29.5342 22.375 24.7917 22.375ZM24.7917 16.5417C22.8827 16.5417 21.0904 16.2208 19.5621 15.6317C18.8067 14.6356 17.5846 13.7927 16.0417 13.1875V9.36812C17.8106 11.0569 21.0277 12.1681 24.7917 12.1681C28.5556 12.1681 31.7727 11.0569 33.5417 9.36812V12.1681C33.5417 14.5394 29.5342 16.5431 24.7917 16.5431V16.5417Z" fill="#E3EBF9"/>
</g>
<defs>
<clipPath id="clip0_332_7601">
<rect width="35" height="35" fill="white" transform="translate(0 0.5)"/>
</clipPath>
</defs>
</svg>
