<svg xmlns="http://www.w3.org/2000/svg" width="1008" height="924" fill="none"><g filter="url(#a)"><path fill="#10D078" d="M476.259 773.448a172 172 0 0 1-23.778 19.815c-16.513 12.55-33.686 23.118-52.18 33.025-36.327 18.494-74.637 32.365-114.927 40.291-9.908 1.981-19.815 3.963-29.723 5.284l-15.191 1.981-7.266.661-7.265.66-15.192 1.321-15.191.661c-9.908.66-20.476.66-30.384 1.321q-44.583 0-89.167-3.963c3.302-4.624 6.605-9.908 9.907-15.192 9.247-14.531 17.834-30.383 25.76-46.235 14.531-31.704 25.759-64.729 35.006-97.754 8.587-32.365 19.155-63.409 31.044-95.113s25.76-62.087 41.612-91.809c-11.229 12.549-21.136 26.42-30.383 40.951-9.247 13.87-18.494 29.062-26.421 43.593-16.512 29.722-31.043 61.427-42.272 93.131-11.889 31.043-24.438 62.087-39.63 90.489-15.191 28.401-33.685 54.821-54.821 79.92L4 902.906l34.346 4.624c42.272 5.944 85.205 9.247 128.137 7.926 10.569-.661 21.797-.661 32.365-1.982l15.852-1.321 15.852-1.981c10.568-1.321 21.136-3.963 31.704-5.284 10.568-2.642 21.136-4.624 31.704-7.926 10.568-2.642 20.476-6.605 31.044-9.908 9.907-3.963 20.476-7.926 30.383-12.549 19.815-8.587 38.97-19.815 56.803-31.704q26.75-17.834 49.538-41.612c14.531-15.852 27.741-32.365 36.988-51.519-7.266 9.247-14.531 17.173-22.457 23.778m236.46-570.013c11.889-11.889 27.741-18.494 44.914-18.494 16.512 0 32.364 5.944 44.914 18.494a64.195 64.195 0 0 1 0 89.828c-24.439 24.438-64.729 24.438-89.828 0-11.889-11.889-18.494-27.741-18.494-44.914s6.605-33.025 18.494-44.914m44.914 146.631c26.42 0 52.179-9.907 71.995-29.723 39.63-40.29 39.63-104.359 0-144.649-39.631-39.631-104.36-39.631-143.99 0-19.155 19.154-29.723 44.914-29.723 71.994 0 27.081 10.568 52.84 29.723 71.995 19.155 19.815 44.914 30.383 71.995 30.383m29.722 146.631C641.384 625.495 580.618 637.384 519.852 609.643l66.05-83.223c9.908-11.889 16.513-26.42 20.476-41.612l26.42-111.624-110.964 26.42c-15.192 3.963-29.723 10.568-41.612 20.475l-83.223 66.051c-28.402-60.767-15.852-121.533 112.285-267.504C630.816 80.581 887.091 48.877 963.049 42.272c-5.945 75.958-37.649 332.893-175.694 454.425m-97.093 199.472c-1.321 5.945-4.624 11.889-9.908 15.192-15.191 10.568-38.97 25.099-60.106 38.309l1.321-3.963c9.908-40.291 9.908-71.334 0-92.471 27.741-8.586 57.464-23.778 91.15-46.895-8.587 31.043-17.834 68.032-22.457 89.828m-230.516-71.995c-8.586 11.229-22.457 17.173-36.327 16.513h-33.686l114.928-138.705-138.706 114.927v-33.686c-.66-13.87 5.284-27.741 16.513-36.327L504 450.462c7.926-5.944 17.173-10.568 26.42-13.21l49.538-11.889-11.889 49.538c-2.642 9.907-6.605 19.155-13.21 27.081zm-198.15-239.101-3.963 1.321c12.549-21.136 27.08-44.914 37.648-60.106 3.303-5.284 9.247-8.587 15.192-9.908 21.797-4.623 58.785-13.87 89.828-21.796-23.117 33.686-38.309 64.069-46.895 91.81-20.476-11.889-51.52-11.889-91.81-1.321M983.524 1.981c-13.87.66-349.405 15.852-503.302 190.885-14.531 16.513-28.402 33.686-42.272 50.859-22.457 5.945-100.396 27.081-134.743 34.346-15.852 3.303-30.383 12.55-39.63 26.42-23.778 34.347-64.729 105.02-66.05 107.662l-29.723 50.859 54.162-23.778c35.667-15.192 95.112-31.044 116.248-18.494 3.303 1.981 7.266 5.944 7.926 15.852.661 25.099 7.266 49.537 19.815 73.976l-7.265 5.944c-20.476 16.513-32.365 41.612-31.044 68.032v94.452h94.452c26.42 1.321 51.519-10.568 68.031-31.043l5.945-7.266c24.439 12.55 48.877 19.815 73.976 19.815 9.908.661 13.21 3.963 15.852 7.926 13.21 21.136-2.642 81.242-18.494 116.909l-23.778 54.161 50.859-29.722c3.302-1.982 73.315-42.933 107.662-66.711 13.21-9.247 22.457-23.118 25.759-39.63 7.266-34.346 28.402-112.946 34.346-135.403 15.852-12.55 32.365-27.081 50.198-42.933C986.827 371.202 1002.68 35.007 1003.34 21.136L1004 0z"/></g><defs><filter id="a" width="1008" height="923.745" x="0" y="0" color-interpolation-filters="sRGB" filterUnits="userSpaceOnUse"><feFlood flood-opacity="0" result="BackgroundImageFix"/><feColorMatrix in="SourceAlpha" values="0 0 0 0 0 0 0 0 0 0 0 0 0 0 0 0 0 0 127 0"/><feOffset dy="4"/><feGaussianBlur stdDeviation="2"/><feColorMatrix values="0 0 0 0 0 0 0 0 0 0 0 0 0 0 0 0 0 0 0.25 0"/><feBlend in2="BackgroundImageFix" result="effect1_dropShadow"/><feBlend in="SourceGraphic" in2="effect1_dropShadow" result="shape"/></filter></defs></svg>