<svg width="258" height="202" viewBox="0 0 258 202" fill="none" xmlns="http://www.w3.org/2000/svg">
<path d="M0 46.0253C0 24.8427 1.54144e-06 17.2595 1.54144e-06 0H258C258 14.7025 258 23.5643 258 44.7468V77.3481C258 100.361 258 100.361 258 127.848H256.965C237.143 127.848 220.967 141.929 210.877 157.994C194.333 184.334 163.858 202 129.001 202C94.1438 202 63.6688 184.334 47.1248 157.994C37.0349 141.929 20.8596 127.848 1.03699 127.848H1.54144e-06C-1.04854e-06 106.114 4.08325e-07 97.2522 4.08325e-07 76.0696L0 46.0253Z" fill="#E3EBF9"/>
</svg>
