<svg width="46" height="46" viewBox="0 0 46 46" fill="none" xmlns="http://www.w3.org/2000/svg">
<path fill-rule="evenodd" clip-rule="evenodd" d="M23 46C35.7025 46 46 35.7025 46 23C46 10.2975 35.7025 0 23 0C10.2975 0 0 10.2975 0 23C0 35.7025 10.2975 46 23 46ZM25.0214 15.7215C24.6309 15.3309 23.9977 15.3309 23.6072 15.7215C23.2167 16.112 23.2167 16.7452 23.6072 17.1357L28.4715 22H15.1143C14.562 22 14.1143 22.4477 14.1143 23C14.1143 23.5523 14.562 24 15.1143 24H28.4715L23.6072 28.8643C23.2167 29.2548 23.2167 29.888 23.6072 30.2785C23.9977 30.6691 24.6309 30.6691 25.0214 30.2785L31.5928 23.7071C31.9833 23.3166 31.9833 22.6834 31.5928 22.2929L25.0214 15.7215Z" fill="#E3EBF9"/>
</svg>
