<svg width="20" height="20" viewBox="0 0 20 20" fill="none" xmlns="http://www.w3.org/2000/svg">
<path fill-rule="evenodd" clip-rule="evenodd" d="M10 20C15.5228 20 20 15.5228 20 10C20 4.47715 15.5228 0 10 0C4.47715 0 0 4.47715 0 10C0 15.5228 4.47715 20 10 20ZM7.97775 12.6552C8.13819 12.8333 8.35598 12.9333 8.58306 12.9332C8.81015 12.9333 9.02794 12.8333 9.18838 12.6552L13.8523 7.48731C14.0492 7.26902 14.0492 6.91516 13.8523 6.69687C13.6553 6.47865 13.336 6.47865 13.1391 6.69687L8.58306 11.7459L6.86095 9.8374C6.66397 9.61917 6.34467 9.61917 6.14769 9.8374C5.95077 10.0557 5.95077 10.4095 6.14769 10.6278L7.97775 12.6552Z" fill="#E3EBF9"/>
</svg>
