<svg width="20" height="20" viewBox="0 0 20 20" fill="none" xmlns="http://www.w3.org/2000/svg">
<path d="M10.6959 0.0221898C7.80003 -0.169477 4.9667 0.88719 2.92336 2.93302C0.880029 4.97969 -0.176638 7.81386 0.0241958 10.7105C0.390862 16.0055 5.06753 19.9989 10.9025 19.9989H15.8334C18.1309 19.9989 20 18.1297 20 15.8322V10.2822C19.9992 4.88302 15.9125 0.37719 10.6959 0.0221898ZM9.91836 15.8322C9.22836 15.8322 8.66836 15.2722 8.66836 14.5822C8.66836 13.8922 9.22836 13.3322 9.91836 13.3322C10.6084 13.3322 11.1684 13.8922 11.1684 14.5822C11.1684 15.2722 10.6084 15.8322 9.91836 15.8322ZM11.525 10.4055C11.0909 10.6447 10.7517 11.198 10.7517 11.6655C10.7517 12.1264 10.3784 12.4989 9.91836 12.4989C9.45836 12.4989 9.08503 12.1264 9.08503 11.6655C9.08503 10.5947 9.75753 9.47636 10.7209 8.94552C11.3567 8.59552 11.685 7.90052 11.5575 7.17469C11.4425 6.51969 10.8825 5.95969 10.2275 5.84469C9.72336 5.75552 9.23086 5.88552 8.84669 6.20719C8.46836 6.52552 8.2517 6.99052 8.2517 7.48386C8.2517 7.94469 7.87836 8.31719 7.41836 8.31719C6.95836 8.31719 6.58503 7.94469 6.58503 7.48386C6.58503 6.49636 7.0192 5.56636 7.77503 4.93136C8.5317 4.29636 9.53086 4.03302 10.5159 4.20302C11.86 4.43886 12.9642 5.54219 13.2 6.88719C13.4484 8.30302 12.7759 9.71719 11.5259 10.4064L11.525 10.4055Z" fill="#1B76FF"/>
</svg>
