<svg width="16" height="16" viewBox="0 0 16 16" fill="none" xmlns="http://www.w3.org/2000/svg">
<rect width="15.4419" height="15.3446" rx="7.67229" fill="#1B76FF"/>
<path d="M9.7973 5.41729L10.7869 7.12073C10.868 7.05584 10.9654 6.99094 11.0627 6.9585L10.0731 5.25506C10.0407 5.27128 10.0244 5.30373 9.99198 5.31995L9.7973 5.41729ZM4.63832 7.23429L5.31969 6.05C5.22236 6.00133 5.12502 5.95266 5.0439 5.88776L4.39497 7.02339C4.47609 7.07206 4.5572 7.15317 4.63832 7.23429ZM8.92125 11.1116C8.90503 11.063 8.90503 11.0143 8.90503 10.9656C8.90503 10.9007 8.92125 10.8521 8.93747 10.7872H7.15292C7.15292 10.8358 7.16914 10.9007 7.16914 10.9494C7.16914 10.9981 7.16914 11.063 7.15292 11.1116H8.92125ZM10.7707 8.4997L9.71619 10.3329C9.82975 10.3654 9.92709 10.414 9.99198 10.4952L11.0465 8.66193C10.9492 8.62949 10.868 8.58082 10.7707 8.4997ZM7.05558 10.4789L10.6734 8.38614C10.6085 8.30502 10.5436 8.20768 10.5111 8.11034L6.89335 10.2031C6.95824 10.2843 7.02313 10.3816 7.05558 10.4789ZM5.91995 9.71644C5.96862 9.71644 6.03352 9.71644 6.08219 9.73267V6.16356C6.03352 6.16356 5.96862 6.17978 5.91995 6.17978C5.87128 6.17978 5.80639 6.17978 5.75772 6.16356V9.73267C5.82261 9.73267 5.87128 9.71644 5.91995 9.71644ZM5.44948 9.81378L4.58965 8.32125C4.50853 8.40236 4.42742 8.46726 4.33008 8.51592L5.17369 9.97602C5.2548 9.91112 5.35214 9.86245 5.44948 9.81378ZM7.42871 4.50879C7.42871 4.55746 7.44494 4.62235 7.44494 4.67102C7.44494 4.71969 7.44494 4.78458 7.42871 4.83325H8.79146C8.77524 4.78458 8.77524 4.71969 8.77524 4.67102C8.77524 4.62235 8.77524 4.55746 8.79146 4.50879H7.42871ZM10.6734 7.21807L7.29893 5.27128C7.25026 5.36862 7.20159 5.46596 7.13669 5.54708L10.5111 7.49386C10.5436 7.39652 10.6085 7.31541 10.6734 7.21807Z" fill="#E3EBF9"/>
<path d="M9.55418 11.7768C9.09993 11.7768 8.74302 11.4036 8.74302 10.9656C8.74302 10.5114 9.11616 10.1544 9.55418 10.1544C10.0084 10.1544 10.3653 10.5276 10.3653 10.9656C10.3653 11.4199 10.0084 11.7768 9.55418 11.7768ZM9.55418 10.4627C9.27839 10.4627 9.06749 10.6898 9.06749 10.9494C9.06749 11.2252 9.29461 11.4361 9.55418 11.4361C9.82998 11.4361 10.0409 11.209 10.0409 10.9494C10.0409 10.6898 9.82998 10.4627 9.55418 10.4627ZM5.92018 6.34198C4.99546 6.34198 4.24919 5.59572 4.24919 4.67099C4.24919 3.74627 5.01168 3 5.92018 3C6.8449 3 7.59117 3.74627 7.59117 4.67099C7.59117 5.59572 6.8449 6.34198 5.92018 6.34198ZM5.92018 3.32446C5.17391 3.32446 4.57365 3.92472 4.57365 4.67099C4.57365 5.41726 5.17391 6.01752 5.92018 6.01752C6.66645 6.01752 7.26671 5.41726 7.26671 4.67099C7.26671 3.92472 6.66645 3.32446 5.92018 3.32446ZM9.55418 5.61194C9.03504 5.61194 8.61323 5.19013 8.61323 4.67099C8.61323 4.15185 9.03504 3.73004 9.55418 3.73004C10.0733 3.73004 10.4951 4.15185 10.4951 4.67099C10.4951 4.97923 10.3329 5.27125 10.0733 5.44971C9.92732 5.54705 9.74886 5.61194 9.55418 5.61194ZM9.55418 4.05451C9.21349 4.05451 8.9377 4.3303 8.9377 4.67099C8.9377 5.01168 9.21349 5.28747 9.55418 5.28747C9.68397 5.28747 9.79753 5.25503 9.89487 5.17391C10.0733 5.06035 10.1707 4.86567 10.1707 4.65477C10.1707 4.3303 9.89487 4.05451 9.55418 4.05451ZM11.3712 8.88903C10.7871 8.88903 10.3004 8.40233 10.3004 7.8183C10.3004 7.23426 10.7871 6.74756 11.3712 6.74756C11.9552 6.74756 12.4419 7.23426 12.4419 7.8183C12.4419 8.40233 11.9552 8.88903 11.3712 8.88903ZM11.3712 7.07203C10.9656 7.07203 10.6249 7.41272 10.6249 7.8183C10.6249 8.22388 10.9656 8.56457 11.3712 8.56457C11.7768 8.56457 12.1175 8.22388 12.1175 7.8183C12.1175 7.39649 11.7768 7.07203 11.3712 7.07203ZM5.92018 12.3446C5.15769 12.3446 4.52498 11.7281 4.52498 10.9494C4.52498 10.1869 5.14147 9.55418 5.92018 9.55418C6.69889 9.55418 7.31538 10.1707 7.31538 10.9494C7.31538 11.7281 6.69889 12.3446 5.92018 12.3446ZM5.92018 9.87865C5.33614 9.87865 4.84945 10.3653 4.84945 10.9494C4.84945 11.5334 5.31992 12.0201 5.92018 12.0201C6.50422 12.0201 6.99091 11.5496 6.99091 10.9494C6.99091 10.3491 6.50422 9.87865 5.92018 9.87865ZM3.98962 8.74302C3.43803 8.74302 3 8.30499 3 7.7534C3 7.20181 3.43803 6.76379 3.98962 6.76379C4.54121 6.76379 4.97923 7.20181 4.97923 7.7534C4.97923 8.30499 4.54121 8.74302 3.98962 8.74302ZM3.98962 7.08825C3.61648 7.08825 3.32446 7.38027 3.32446 7.7534C3.32446 8.12654 3.61648 8.41856 3.98962 8.41856C4.36275 8.41856 4.65477 8.12654 4.65477 7.7534C4.65477 7.38027 4.36275 7.08825 3.98962 7.08825Z" fill="#E3EBF9"/>
</svg>
