<svg width="14" height="15" viewBox="0 0 14 15" fill="none" xmlns="http://www.w3.org/2000/svg">
<g clip-path="url(#clip0_727_11398)">
<path d="M8.75 12.1667H2.91667C2.1434 12.1657 1.40208 11.8582 0.855295 11.3114C0.308514 10.7646 0.00092625 10.0233 0 9.25L0 3.41667C0.00092625 2.6434 0.308514 1.90208 0.855295 1.35529C1.40208 0.808514 2.1434 0.500926 2.91667 0.5L8.75 0.5C9.52326 0.500926 10.2646 0.808514 10.8114 1.35529C11.3582 1.90208 11.6657 2.6434 11.6667 3.41667V9.25C11.6657 10.0233 11.3582 10.7646 10.8114 11.3114C10.2646 11.8582 9.52326 12.1657 8.75 12.1667ZM2.91667 1.66667C2.45254 1.66667 2.00742 1.85104 1.67923 2.17923C1.35104 2.50742 1.16667 2.95254 1.16667 3.41667V9.25C1.16667 9.71413 1.35104 10.1592 1.67923 10.4874C2.00742 10.8156 2.45254 11 2.91667 11H8.75C9.21413 11 9.65925 10.8156 9.98744 10.4874C10.3156 10.1592 10.5 9.71413 10.5 9.25V3.41667C10.5 2.95254 10.3156 2.50742 9.98744 2.17923C9.65925 1.85104 9.21413 1.66667 8.75 1.66667H2.91667ZM14 11.5833V4C14 3.84529 13.9385 3.69692 13.8291 3.58752C13.7197 3.47812 13.5714 3.41667 13.4167 3.41667C13.262 3.41667 13.1136 3.47812 13.0042 3.58752C12.8948 3.69692 12.8333 3.84529 12.8333 4V11.5833C12.8333 12.0475 12.649 12.4926 12.3208 12.8208C11.9926 13.149 11.5475 13.3333 11.0833 13.3333H3.5C3.34529 13.3333 3.19692 13.3948 3.08752 13.5042C2.97812 13.6136 2.91667 13.762 2.91667 13.9167C2.91667 14.0714 2.97812 14.2197 3.08752 14.3291C3.19692 14.4385 3.34529 14.5 3.5 14.5H11.0833C11.8566 14.4991 12.5979 14.1915 13.1447 13.6447C13.6915 13.0979 13.9991 12.3566 14 11.5833Z" fill="#111010"/>
</g>
<defs>
<clipPath id="clip0_727_11398">
<rect width="14" height="14" fill="white" transform="translate(0 0.5)"/>
</clipPath>
</defs>
</svg>
