<svg width="20" height="20" viewBox="0 0 20 20" fill="none" xmlns="http://www.w3.org/2000/svg">
<path d="M19.7585 8.39083C19.596 8.555 19.381 8.6375 19.1669 8.6375C18.9544 8.6375 18.7427 8.55667 18.5802 8.39583L16.6669 6.49833V15C16.6669 17.7575 14.4244 20 11.6669 20H5.83355C5.37271 20 5.00021 19.6275 5.00021 19.1667C5.00021 18.7058 5.37271 18.3333 5.83355 18.3333H11.6669C13.5052 18.3333 15.0002 16.8383 15.0002 15V6.49833L13.0869 8.39583C12.7594 8.71833 12.2327 8.71833 11.9085 8.39083C11.5844 8.06417 11.586 7.53667 11.9135 7.2125L14.3785 4.7675C15.1535 3.99333 16.5127 3.99167 17.2902 4.76917L19.7535 7.21167C20.081 7.53583 20.0827 8.06333 19.7585 8.39V8.39083ZM8.08688 12.7867C8.41438 12.4625 8.41605 11.935 8.09188 11.6083C7.76605 11.28 7.24021 11.2792 6.91355 11.6033L5.00021 13.5008V5C5.00021 3.16167 6.49521 1.66667 8.33355 1.66667H14.1669C14.6277 1.66667 15.0002 1.29333 15.0002 0.833333C15.0002 0.373333 14.6277 0 14.1669 0H8.33355C5.57605 0 3.33355 2.2425 3.33355 5V13.5017L1.42021 11.6042C1.09355 11.2808 0.566881 11.2817 0.241881 11.6092C-0.0822853 11.9358 -0.0806186 12.4633 0.246881 12.7875L2.70938 15.23C3.09855 15.62 3.61605 15.8342 4.16688 15.8342C4.71771 15.8342 5.23521 15.62 5.62188 15.2325L8.08688 12.7875V12.7867Z" fill="#111010"/>
</svg>
