<svg xmlns="http://www.w3.org/2000/svg" width="40" height="33" fill="none"><g fill="#03578c"><path d="m28.389 19.327-7.752 9.923-.866-6.927-5.11-.553 13.729-2.443zM20.528 17.372 14.66 21.77l1.213-11.495 4.656 7.097z"/></g><path fill="#0099f7" d="m20.398 17.351-4.526-7.076 4.288.977.238 6.098z"/><path fill="#28adff" d="M34.994 21.239h-.022l-1.191 8.032H20.637v-.021l7.752-9.923z"/><path fill="#0099f7" d="m14.66 21.77 5.782-4.335-.043-.085 7.991 1.976z"/><g fill="#0474ba"><path d="m23.668 15.12-3.14 2.252-.13-.021-.238-6.098 8.121 1.891.022-.021.693 2.486z"/><path d="m39.606 20.793-4.613.446-6.605-1.912.39-.127-5.089-4.08 10.936 3.995 2.144.807.476-.489-.736-3.315-2.512-.043-4.158-.383 3.183-1.275 3.746 1.339.282-6.077.26.085 2.295 11.028z"/></g><path fill="#03578c" d="m37.246 19.433-.476.489-2.144-.807-.628-3.038 2.512.043.736 3.315z"/><path fill="#49484d" d="m28.562 2.541-2.49.616-2.923 1.317.043-1.721L27.891.012z"/><path fill="#ffb536" d="m29.818 7.279-6.735-.042.065-2.762 2.923-1.317 2.49-.616z"/><path fill="#ffc767" d="M15.873 10.339 6.474 29.42h-.022L.606 30.928z"/><path fill="#ffb536" d="M15.916 10.275 14.66 21.77l-5.674 9.158-2.512-1.509 9.398-19.081.043-.064z"/><path fill="#ffc767" d="m18.19 22.153-3.183 7.968-6.02.807 5.673-9.158 3.53.382z"/><path fill="#ffb536" d="m20.637 29.271-.65 2.741-4.937-1.891h-.043l3.183-7.968 1.581.17zm7.644-16.127-12.365-2.868 7.168-3.039h.108l4.114 4.76z"/><path fill="#ffc767" d="M36.834 9.616h-.022l-8.532 3.527-.974-1.147 3.876-4.313 5.652 1.934z"/><path fill="#03578c" d="m31.182 7.683-3.876 4.313-4.223-4.76 6.735.043 1.343.404z"/><path fill="#0099f7" d="m36.812 9.616-1.234 2.571-2.534 2.231h-.022l-3.183 1.275-.845-.085-.715-2.465 8.51-3.506z"/><path fill="#03578c" d="m28.779 19.199-.39.127-7.839-1.934-.022-.021 3.162-2.252z"/><path fill="#0099f7" d="M34.626 19.114 23.69 15.12h-.022l5.327.489.845.085 4.158.383.628 3.038z"/><path fill="#03578c" d="m37.051 9.68-.282 6.077-3.746-1.339h.022l2.534-2.231 1.234-2.571h.022z"/></svg>