<svg xmlns="http://www.w3.org/2000/svg" width="415" height="415" fill="none" viewBox="85 85 335 335"><path fill="#fff" d="M124.055 188.95a20.5 20.5 0 0 0-7.269-5.577 21.8 21.8 0 0 0-8.478-1.924 24 24 0 0 0-9.476 1.616 21.1 21.1 0 0 0-7.23 4.751 20.3 20.3 0 0 0-4.566 7.193 27.2 27.2 0 0 0 0 18.196 20.3 20.3 0 0 0 4.565 7.251 21 21 0 0 0 7.231 4.751 24 24 0 0 0 9.476 1.615 21.8 21.8 0 0 0 8.478-1.923 20.5 20.5 0 0 0 7.269-5.578l-4.968-3.847a13 13 0 0 1-4.373 4.059 12.33 12.33 0 0 1-6.406 1.654 15.9 15.9 0 0 1-6.771-1.193 14.8 14.8 0 0 1-5.14-3.443 15.5 15.5 0 0 1-3.223-5.501 21.97 21.97 0 0 1 0-13.752 15.55 15.55 0 0 1 3.222-5.482 14.8 14.8 0 0 1 5.102-3.597 15.9 15.9 0 0 1 6.771-1.192 12.33 12.33 0 0 1 6.407 1.654 13 13 0 0 1 4.373 4.059l4.968-3.847zm14.539 36.834h6.081v-22.158a19.27 19.27 0 0 1 1.918-9.232 14.7 14.7 0 0 1 4.181-4.982 11.2 11.2 0 0 1 4.392-2.097 24 24 0 0 1 2.609-.307q6.714 0 9.207 3.847a20.3 20.3 0 0 1 2.493 11.04v23.889h6.081v-27.428a18.05 18.05 0 0 0-3.952-12.502q-4.008-4.31-12.294-4.309a16 16 0 0 0-4.278.597c-1.427.39-2.804.945-4.104 1.654a17 17 0 0 0-3.491 2.539 14.2 14.2 0 0 0-2.571 3.231h-.191v-33.583h-6.081zm85.355-21.504v3.135a18.3 18.3 0 0 1-.786 5.405 11.73 11.73 0 0 1-6.541 7.424 13.8 13.8 0 0 1-5.754 1.116 16 16 0 0 1-3.645-.423 10 10 0 0 1-3.26-1.385 7.26 7.26 0 0 1-2.34-2.501 7.2 7.2 0 0 1-.883-3.654 6.2 6.2 0 0 1 2.264-5.078 14.6 14.6 0 0 1 5.428-2.731 33 33 0 0 1 6.636-1.116q3.453-.231 5.755-.231zm-3.031-4.982q-3.836 0-8.516.366a33.5 33.5 0 0 0-8.746 1.923 16.6 16.6 0 0 0-6.81 4.482 11.85 11.85 0 0 0-2.723 8.27 11.56 11.56 0 0 0 1.247 5.501 12.2 12.2 0 0 0 3.318 3.963 14.1 14.1 0 0 0 4.738 2.404c1.794.526 3.654.792 5.524.788a19.1 19.1 0 0 0 8.88-1.923 16.5 16.5 0 0 0 6.311-6.232h.192q0 1.75.134 3.597.133 1.847.441 3.347h5.754q-.268-1.75-.498-4.482t-.154-5.135v-19.234a16.6 16.6 0 0 0-1.285-6.829 14 14 0 0 0-3.414-4.75 13.6 13.6 0 0 0-5.026-2.809 19.8 19.8 0 0 0-6.022-.923q-12.16 0-18.222 6.271l3.683 4.346a19 19 0 0 1 13.158-5.077q11.048 0 11.048 11.175v1.115zm29.27-16.714q.192 2.404.327 5.078.134 2.673.134 4.424v33.698h6.08v-22.158a19.3 19.3 0 0 1 1.918-9.232 14.66 14.66 0 0 1 4.182-4.982 11.2 11.2 0 0 1 4.392-2.097 23 23 0 0 1 2.57-.365q6.714 0 9.207 3.847a20.3 20.3 0 0 1 2.494 11.04v23.947h6.08v-27.428a18.06 18.06 0 0 0-3.951-12.502q-3.97-4.31-12.257-4.309a16 16 0 0 0-4.277.597 19 19 0 0 0-4.105 1.654 17 17 0 0 0-3.548 2.481 14.2 14.2 0 0 0-2.571 3.231h-.191v-3.462a26 26 0 0 0-.231-3.462zm63.854 14.637a16.9 16.9 0 0 1 3.414-5.27 16.5 16.5 0 0 1 5.063-3.597 14.9 14.9 0 0 1 6.311-1.346 16.75 16.75 0 0 1 6.809 1.346 15.6 15.6 0 0 1 5.16 3.597 15.4 15.4 0 0 1 3.222 5.27 18.4 18.4 0 0 1 1.113 6.424 16.85 16.85 0 0 1-1.151 6.828 14.7 14.7 0 0 1-3.549 5.213 16.85 16.85 0 0 1-11.508 4.577c-2.177.02-4.331-.44-6.311-1.346a16.5 16.5 0 0 1-5.063-3.597 16.9 16.9 0 0 1-3.415-5.27 17.18 17.18 0 0 1 0-12.829zm-6.867 42.027a26.7 26.7 0 0 0 9.207 6.558 29.5 29.5 0 0 0 11.508 2.116 26.8 26.8 0 0 0 11.777-2.212 19.4 19.4 0 0 0 7.04-5.539 18.5 18.5 0 0 0 3.414-7.29c.563-2.455.859-4.963.882-7.482v-42.815h-6.08v7.193h-.192a19.95 19.95 0 0 0-8.248-6.655 19.4 19.4 0 0 0-4.335-1.288 24.6 24.6 0 0 0-4.104-.366 22.2 22.2 0 0 0-8.785 1.712 20.55 20.55 0 0 0-6.905 4.751 22.6 22.6 0 0 0-4.565 7.117 23 23 0 0 0-1.65 8.77 21.9 21.9 0 0 0 1.745 8.771 21 21 0 0 0 4.796 6.963 22.3 22.3 0 0 0 7.135 4.578 23.2 23.2 0 0 0 8.785 1.654 22.1 22.1 0 0 0 8.938-1.924 16.6 16.6 0 0 0 7.174-6.27h.192v7.694a24.2 24.2 0 0 1-.883 6.597 14.06 14.06 0 0 1-2.839 5.443 13.6 13.6 0 0 1-5.198 3.655 20.4 20.4 0 0 1-7.825 1.346 20.8 20.8 0 0 1-9.591-2.173 19.4 19.4 0 0 1-6.943-5.771zm68.399-38.469c.003-1.799.43-3.571 1.246-5.174a15.5 15.5 0 0 1 3.319-4.423 16.1 16.1 0 0 1 4.833-3.097 14.7 14.7 0 0 1 5.755-1.154 13.63 13.63 0 0 1 10.319 3.847 13.85 13.85 0 0 1 3.625 10.001zm35.714 4.982v-2.693a25 25 0 0 0-1.381-8.347 20 20 0 0 0-4.008-6.828 19.4 19.4 0 0 0-6.445-4.674 21.05 21.05 0 0 0-8.747-1.751 21.4 21.4 0 0 0-8.554 1.712 21.1 21.1 0 0 0-6.905 4.751 21.9 21.9 0 0 0-4.604 7.194 24.2 24.2 0 0 0-1.649 9.04c-.03 3.096.55 6.168 1.707 9.04a22.5 22.5 0 0 0 4.642 7.193 20.8 20.8 0 0 0 7.039 4.751 23 23 0 0 0 8.881 1.712 23.8 23.8 0 0 0 9.993-2.116 23.36 23.36 0 0 0 8.516-7.02l-4.699-3.847a16.9 16.9 0 0 1-5.39 5.212 15.3 15.3 0 0 1-8.42 2.27 14.85 14.85 0 0 1-5.985-1.193 15.9 15.9 0 0 1-8.286-8.213 18.5 18.5 0 0 1-1.573-6.097z"/><path fill="#00C26F" d="M90.758 341.188h15.459V274.35h.25l42.965 66.838h19.641v-87.149h-15.479v64.742h-.23l-42.198-64.742H90.758zm103.001-24.619a41.5 41.5 0 0 0 9.505 14.34 41.4 41.4 0 0 0 14.49 9.241 50.7 50.7 0 0 0 18.471 3.27 51.7 51.7 0 0 0 18.663-3.501 43.7 43.7 0 0 0 14.616-9.425 42.6 42.6 0 0 0 9.59-14.406 48.5 48.5 0 0 0 3.357-18.599 50.1 50.1 0 0 0-3.433-18.965 42.3 42.3 0 0 0-9.591-14.522 40.8 40.8 0 0 0-14.616-9.175 51.6 51.6 0 0 0-18.663-3.019 50.7 50.7 0 0 0-18.471 3.269 41.7 41.7 0 0 0-14.481 9.29 42.7 42.7 0 0 0-9.591 14.58 50.6 50.6 0 0 0-3.222 19.042 48.5 48.5 0 0 0 3.433 18.58zm14.922-31.756a30.2 30.2 0 0 1 6.081-9.905 27.9 27.9 0 0 1 9.398-6.655 30 30 0 0 1 12.257-2.404 30.5 30.5 0 0 1 12.276 2.404 27.8 27.8 0 0 1 9.456 6.655 30.2 30.2 0 0 1 6.08 9.905 34.1 34.1 0 0 1 2.072 12.137 37.6 37.6 0 0 1-2.148 12.925 30.4 30.4 0 0 1-6.081 10.214 28.1 28.1 0 0 1-9.456 6.77 29.8 29.8 0 0 1-12.276 2.462 29.4 29.4 0 0 1-12.218-2.462 28.3 28.3 0 0 1-9.399-6.77 30.3 30.3 0 0 1-6.08-10.214 37.6 37.6 0 0 1-2.129-12.925 34.1 34.1 0 0 1 2.148-12.194zm111 56.375h14.232l20.14-66.357h.25l20.216 66.357h14.731l25.28-87.149h-15.709l-17.071 62.78h-.249l-19.181-62.78h-15.229l-19.546 62.78h-.249l-16.323-62.78H293.96z"/></svg>