<svg xmlns="http://www.w3.org/2000/svg" width="247" height="247" fill="none"><path fill="#1D82E9" d="M176.641 53.478 123.419.256a.363.363 0 0 0-.513 0L69.685 53.478a.363.363 0 0 0 0 .513l53.221 53.221a.36.36 0 0 0 .513 0l53.222-53.221a.364.364 0 0 0 0-.513"/><path fill="#7AB8FD" d="m246.158 122.973-53.191-53.187a.37.37 0 0 0-.256-.106.36.36 0 0 0-.256.106l-53.268 53.263a.36.36 0 0 0 0 .514l53.187 53.187a.36.36 0 0 0 .512 0l53.268-53.266a.366.366 0 0 0 .004-.511m-85.259.149 31.628-31.626a.26.26 0 0 1 .368 0l31.55 31.551a.266.266 0 0 1 .057.285.25.25 0 0 1-.057.085l-31.625 31.624a.263.263 0 0 1-.373 0l-31.551-31.551a.26.26 0 0 1 .003-.368"/><path fill="#1D82E9" d="m69.627 193.031 53.251 53.251c.133.133.35.133.483 0l53.251-53.251a.34.34 0 0 0 0-.484l-53.251-53.25a.34.34 0 0 0-.483 0l-53.25 53.25a.343.343 0 0 0 0 .484"/><path fill="#7AB8FD" d="M107.066 122.978 53.888 69.8a.37.37 0 0 0-.525 0L.108 123.055a.373.373 0 0 0 0 .523l53.178 53.18a.37.37 0 0 0 .525 0l53.255-53.255a.38.38 0 0 0 .11-.263.36.36 0 0 0-.11-.262m-85.246.149 31.616-31.616a.27.27 0 0 1 .38 0l31.539 31.542a.267.267 0 0 1 0 .377l-31.616 31.616a.3.3 0 0 1-.086.058.27.27 0 0 1-.203 0 .3.3 0 0 1-.087-.058L21.82 123.503a.27.27 0 0 1 0-.376"/></svg>