<svg xmlns="http://www.w3.org/2000/svg" width="40" height="40" fill="none"><path fill="#3FAFFF" fill-rule="evenodd" d="M20 1.723a1 1 0 0 1 1.496-.868L28.75 5l8.12 4.64c.39.223.63.637.63 1.085V20l-7.51-4.291a2.5 2.5 0 0 0-2.48 0L20 20V1.723M2.5 20v-9.275c0-.448.24-.862.63-1.085l6.88-3.931a2.5 2.5 0 0 1 2.48 0L20 10zM20 38.277a1 1 0 0 1-1.496.868L11.25 35l-8.12-4.64a1.25 1.25 0 0 1-.63-1.085V20l7.51 4.291a2.5 2.5 0 0 0 2.48 0L20 20v18.277m7.51-3.986a2.5 2.5 0 0 0 2.48 0l6.88-3.931c.39-.223.63-.637.63-1.085V20L20 30z" clip-rule="evenodd"/></svg>