<svg xmlns="http://www.w3.org/2000/svg" width="600" height="257" fill="none"><path fill="#FFEB47" d="M0 0h600v256.726H0z"/><path fill="#fff" d="M381 98h128v65H381z"/><path fill="#000" fill-rule="evenodd" d="M63.283 141.266q.633 4.564 2.485 6.822 3.39 4.112 11.612 4.112 4.925 0 7.997-1.084 5.829-2.079 5.829-7.726 0-3.299-2.892-5.106-2.892-1.762-9.082-3.117l-7.048-1.582q-10.392-2.35-14.368-5.105-6.732-4.61-6.732-14.413 0-8.946 6.506-14.865t19.112-5.919q10.528 0 17.959 5.58 7.432 5.58 7.795 16.198H89.082q-.362-6.01-5.241-8.539-3.254-1.672-8.088-1.672-5.376 0-8.584 2.169-3.208 2.167-3.208 6.054 0 3.57 3.163 5.331 2.033 1.175 8.675 2.756l11.476 2.757q7.545 1.806 11.385 4.834 5.965 4.698 5.965 13.6 0 9.126-6.982 15.158-6.98 6.032-19.72 6.032-13.013 0-20.468-5.942Q50 151.658 50 141.266zm45.544-19.067v-9.171h6.867V99.293h12.742v13.735h7.996v9.171h-7.996v26.025q0 3.027.766 3.773c.514.497 2.078.745 4.701.745a36 36 0 0 0 2.529-.09v9.623l-6.099.226q-9.126.317-12.47-3.162-2.169-2.214-2.169-6.823v-30.317zm55.301-.316q-4.473 0-6.935 2.802-2.463 2.8-3.095 7.59h20.015q-.317-5.106-3.095-7.749t-6.89-2.643m0-10.617q6.144 0 11.069 2.304t8.134 7.274q2.89 4.383 3.748 10.166.5 3.388.408 9.759h-33.706q.272 7.41 4.655 10.392 2.665 1.852 6.414 1.852c2.653 0 4.804-.753 6.462-2.259q1.357-1.22 2.395-3.388h13.148q-.499 4.383-4.565 8.9-6.325 7.184-17.709 7.184-9.398 0-16.584-6.054-7.183-6.055-7.182-19.699 0-12.786 6.483-19.609 6.484-6.822 16.83-6.822m59.187 26.612q-1.22.767-2.461 1.242-1.243.474-3.412.881l-2.892.542q-4.065.724-5.829 1.762-2.981 1.762-2.98 5.467-.001 3.299 1.83 4.767 1.828 1.468 4.45 1.468 4.157 0 7.657-2.44 3.503-2.44 3.637-8.9zm-7.815-6.01q3.568-.451 5.104-1.129 2.757-1.174 2.756-3.66 0-3.027-2.1-4.179t-6.168-1.152q-4.561 0-6.459 2.259-1.357 1.671-1.809 4.518H194.4q.407-6.461 3.615-10.618 5.103-6.506 17.53-6.506 8.087 0 14.367 3.208t6.28 12.109v22.59q0 2.35.091 5.693.135 2.53.768 3.434.631.903 1.897 1.491v1.897h-14.006q-.587-1.49-.814-2.801a34 34 0 0 1-.36-2.982 26.5 26.5 0 0 1-6.145 4.925q-4.157 2.395-9.398 2.395-6.687 0-11.048-3.818-4.358-3.817-4.359-10.821 0-9.081 7.003-13.148 3.842-2.214 11.296-3.162zm45.272 29.955h-12.878V95.226h12.878zm7.499-39.624v-9.171h6.867V99.293h12.742v13.735h7.996v9.171h-7.996v26.025q0 3.027.768 3.773.769.745 4.699.745a36 36 0 0 0 2.529-.09v9.623l-6.099.226q-9.126.317-12.47-3.162-2.169-2.214-2.169-6.823v-30.317zm63.029-10.888q4.562 0 8.289 1.581a14.5 14.5 0 0 1 6.123 4.835q2.033 2.756 2.484 5.67.453 2.914.453 9.511v28.915h-13.147v-29.955q-.001-3.975-1.355-6.415-1.765-3.435-6.689-3.434-5.105 0-7.747 3.411-2.644 3.411-2.644 9.737v26.656h-12.833v-66.37h12.833v23.539q2.801-4.292 6.483-5.987a18.3 18.3 0 0 1 7.75-1.694" clip-rule="evenodd" opacity=".95"/><path fill="#000" d="m548.704 127.515-32.181-41.562c-.841-1.116-2.519-1.953-3.919-1.953H364.285v92.857h149.997q2.1 0 3.359-1.674l31.344-40.136c1.397-2.232 1.397-5.3-.281-7.532M434.529 160.43h-50.375V99.9h49.253v15.342h-29.103v6.973h25.747v14.784h-25.747v7.81h30.225zm48.691 0-10.354-16.178-10.353 16.178h-23.228l21.828-30.405-21.268-29.846h22.946l10.354 15.342 10.075-15.342h22.109l-20.991 29.288 22.391 31.242H483.22z"/></svg>