<svg width="156" height="46" viewBox="0 0 156 46" fill="none" xmlns="http://www.w3.org/2000/svg">
<g clip-path="url(#clip0_412_45859)">
<path d="M31.9573 12.5432L36.6098 20.5516C36.9912 20.2466 37.4488 19.9415 37.9064 19.7889L33.2539 11.7804C33.1014 11.8567 33.0251 12.0093 32.8725 12.0855L31.9573 12.5432ZM7.70306 21.0855L10.9064 15.5177C10.4488 15.2889 9.99119 15.0601 9.60984 14.755L6.55899 20.094C6.94035 20.3228 7.3217 20.7042 7.70306 21.0855ZM27.8386 39.3143C27.7624 39.0855 27.7624 38.8567 27.7624 38.6279C27.7624 38.3228 27.8386 38.094 27.9149 37.7889H19.5251C19.5251 38.0177 19.6014 38.3228 19.6014 38.5516C19.6014 38.7804 19.6014 39.0855 19.5251 39.3143H27.8386ZM36.5336 27.0347L31.5759 35.6533C32.1098 35.8059 32.5675 36.0347 32.8725 36.416L37.8302 27.7974C37.3725 27.6449 36.9912 27.416 36.5336 27.0347ZM19.0675 36.3398L36.0759 26.5008C35.7709 26.1194 35.4658 25.6618 35.3132 25.2042L18.3048 35.0432C18.6098 35.4245 18.9149 35.8821 19.0675 36.3398ZM13.7285 32.755C13.9573 32.755 14.2624 32.755 14.4912 32.8313V16.0516C14.2624 16.0516 13.9573 16.1279 13.7285 16.1279C13.4997 16.1279 13.1946 16.1279 12.9658 16.0516V32.8313C13.2709 32.8313 13.4997 32.755 13.7285 32.755ZM11.5166 33.2127L7.47425 26.1957C7.09289 26.5771 6.71153 26.8821 6.25391 27.111L10.22 33.9754C10.6014 33.6703 11.059 33.4415 11.5166 33.2127ZM20.8217 8.27197C20.8217 8.50079 20.898 8.80587 20.898 9.03468C20.898 9.2635 20.898 9.56858 20.8217 9.7974H27.2285C27.1522 9.56858 27.1522 9.2635 27.1522 9.03468C27.1522 8.80587 27.1522 8.50079 27.2285 8.27197H20.8217ZM36.0759 21.0093L20.2115 11.8567C19.9827 12.3143 19.7539 12.772 19.4488 13.1533L35.3132 22.3059C35.4658 21.8482 35.7709 21.4669 36.0759 21.0093ZM53.0081 39.0855V34.2042H54.6861C55.4488 34.2042 56.1353 34.433 56.5929 34.8906C57.0505 35.3482 57.3556 35.9584 57.3556 36.6449C57.3556 37.3313 57.1268 37.9415 56.5929 38.3991C56.1353 38.8567 55.4488 39.0855 54.6861 39.0855H53.0081ZM53.7709 38.3991H54.6861C55.2963 38.3991 55.7539 38.2466 56.1353 37.9415C56.4403 37.6364 56.6692 37.1788 56.6692 36.6449C56.6692 36.111 56.5166 35.7296 56.1353 35.3482C55.8302 35.0432 55.2963 34.8906 54.6861 34.8906H53.7709V38.3991ZM58.4234 39.0855V34.2804H61.9319V34.9669H59.1861V36.1872H61.398V36.8737H59.1861V38.3991H62.0081V39.0855H58.4234ZM63.381 38.4754C62.9234 38.0177 62.6183 37.4076 62.6183 36.6449C62.6183 35.8821 62.8471 35.3482 63.381 34.8143C63.8386 34.3567 64.4488 34.1279 65.2115 34.1279C65.7454 34.1279 66.1268 34.2042 66.5081 34.433V35.1957C66.1268 34.9669 65.6692 34.8143 65.2115 34.8143C64.6776 34.8143 64.2963 34.9669 63.9149 35.3482C63.6098 35.6533 63.381 36.111 63.381 36.6449C63.381 37.1788 63.5336 37.6364 63.9149 37.9415C64.2963 38.2466 64.6776 38.4754 65.2115 38.4754C65.7454 38.4754 66.2031 38.3228 66.5844 38.0177V38.7804C66.2031 39.0093 65.7454 39.1618 65.1353 39.1618C64.4488 39.2381 63.8386 38.933 63.381 38.4754ZM67.7285 39.0855V34.2804H71.1607V34.9669H68.4912V36.1872H70.6268V36.8737H68.4912V38.3991H71.237V39.0855H67.7285ZM72.2285 39.0855V34.2804H72.9149L75.6607 37.7889V34.2804H76.4234V39.0855H75.737L72.9912 35.5771V39.0855H72.2285ZM77.3387 34.2804H81.3047V34.9669H79.7031V39.0855H78.9403V34.9669H77.3387V34.2804ZM82.22 39.0855V34.2042H84.4319C84.8895 34.2042 85.3471 34.3567 85.5759 34.5855C85.881 34.8143 86.0336 35.1957 86.0336 35.5771C86.0336 36.2635 85.6522 36.7211 84.9658 36.9499L86.4912 39.0855H85.5759L84.1268 37.0262H82.9827V39.0855H82.22ZM82.9827 36.416H84.3556C84.8895 36.416 85.2709 36.1872 85.2709 35.7296C85.2709 35.272 84.9658 35.0432 84.3556 35.0432H82.9827V36.416ZM87.1014 39.0855L89.237 34.2042H89.9997L92.1353 39.0855H91.2963L90.7624 37.8652H88.4742L87.9403 39.0855H87.1014ZM88.7031 37.255H90.4573L89.542 35.1957L88.7031 37.255ZM92.9742 39.0855V34.2804H93.737V38.3991H96.3302V39.0855H92.9742ZM98.0081 34.2804H97.2454V39.1618H98.0081V34.2804ZM98.9234 39.0855V38.5516L101.669 34.9669H99.0759V34.2804H102.661V34.8143L99.9912 38.3991H102.813V39.0855H98.9234ZM103.805 39.0855V34.2804H107.237V34.9669H104.567V36.1872H106.703V36.8737H104.567V38.3991H107.313V39.0855H103.805ZM108.305 39.0855V34.2042H109.983C110.745 34.2042 111.432 34.433 111.889 34.8906C112.347 35.3482 112.652 35.9584 112.652 36.6449C112.652 37.3313 112.423 37.9415 111.889 38.3991C111.356 38.8567 110.745 39.0855 109.983 39.0855H108.305ZM109.067 38.3991H109.983C110.593 38.3991 111.051 38.2466 111.432 37.9415C111.737 37.6364 111.966 37.1788 111.966 36.6449C111.966 36.111 111.813 35.7296 111.432 35.3482C111.127 35.0432 110.593 34.8906 109.983 34.8906H109.067V38.3991ZM115.474 39.0855V34.2804H118.906V34.9669H116.237V36.1872H118.373V36.8737H116.237V38.3991H118.983V39.0855H115.474ZM119.669 39.0855L121.576 36.4923L119.974 34.2804H120.889L122.034 35.8821L123.254 34.2804H124.093L122.491 36.4923L124.398 39.0855H123.483L122.034 37.1025L120.584 39.0855H119.669ZM125.542 38.4754C125.084 38.0177 124.779 37.4076 124.779 36.6449C124.779 35.8821 125.008 35.3482 125.542 34.8143C126 34.3567 126.61 34.1279 127.373 34.1279C127.906 34.1279 128.288 34.2042 128.669 34.433V35.1957C128.288 34.9669 127.83 34.8143 127.373 34.8143C126.839 34.8143 126.457 34.9669 126.076 35.3482C125.771 35.6533 125.542 36.111 125.542 36.6449C125.542 37.1788 125.695 37.6364 126.076 37.9415C126.457 38.2466 126.839 38.4754 127.373 38.4754C127.906 38.4754 128.364 38.3228 128.745 38.0177V38.7804C128.364 39.0093 127.906 39.1618 127.296 39.1618C126.61 39.2381 126 38.933 125.542 38.4754ZM129.813 39.0855V34.2804H130.576V36.1872H133.169V34.2804H133.856V39.0855H133.169V36.8737H130.576V39.0855H129.813ZM134.771 39.0855L136.906 34.2042H137.669L139.805 39.0855H138.966L138.432 37.8652H136.144L135.61 39.0855H134.771ZM136.373 37.255H138.127L137.212 35.1957L136.373 37.255ZM140.567 39.0855V34.2804H141.254L144 37.7889V34.2804H144.762V39.0855H144.076L141.33 35.5771V39.0855H140.567ZM146.593 38.4754C146.135 38.0177 145.906 37.4076 145.906 36.6449C145.906 35.8821 146.135 35.3482 146.669 34.8143C147.127 34.3567 147.737 34.1279 148.5 34.1279C149.11 34.1279 149.567 34.2804 150.025 34.5093V35.272C149.567 34.9669 149.11 34.8143 148.576 34.8143C148.042 34.8143 147.584 34.9669 147.279 35.3482C146.974 35.6533 146.745 36.111 146.745 36.6449C146.745 37.1788 146.898 37.6364 147.279 37.9415C147.584 38.2466 148.042 38.3991 148.5 38.3991C148.957 38.3991 149.415 38.2465 149.644 38.0177V36.2635H150.406V38.3228C150.025 38.7804 149.262 39.1618 148.5 39.1618C147.661 39.2381 147.051 38.933 146.593 38.4754ZM151.551 39.0855V34.2804H154.983V34.9669H152.313V36.1872H154.525V36.8737H152.313V38.3991H155.135V39.0855H151.551ZM53.0081 29.7042V8.95841H62.6946C64.9827 8.95841 66.737 9.56858 68.1098 10.7889C69.4827 12.0093 70.1692 13.5347 70.1692 15.3652C70.1692 18.0347 68.6437 20.2466 66.1268 21.1618L72.381 29.6279H66.2793L60.4064 21.772H58.2709V29.6279H53.0081V29.7042ZM58.2709 17.4245H62.3895C63.8387 17.4245 64.7539 16.6618 64.7539 15.4415C64.7539 14.2211 63.8387 13.4584 62.3895 13.4584H58.2709V17.4245ZM73.9064 8.95841H79.2454V21.2381C79.2454 23.8313 80.8471 25.1279 82.9827 25.1279C85.1946 25.1279 86.72 23.8313 86.72 21.2381V8.95841H92.059V21.0093C92.059 23.9076 91.22 26.1194 89.4658 27.7211C87.7878 29.3228 85.5759 30.0855 82.9827 30.0855C80.3895 30.0855 78.1776 29.3228 76.4997 27.7211C74.8217 26.1194 73.9064 23.9076 73.9064 21.0093V8.95841ZM95.72 29.7042V8.95841H103.042C106.398 8.95841 109.067 9.94994 111.127 11.8567C113.262 13.7635 114.254 16.2804 114.254 19.3313C114.254 22.3821 113.186 24.8991 111.127 26.8059C109.067 28.7127 106.322 29.7042 103.042 29.7042H95.72ZM98.9234 26.6533H102.661C105.254 26.6533 107.237 25.9669 108.686 24.6703C110.135 23.3737 110.898 21.5432 110.898 19.3313C110.898 17.1194 110.135 15.2889 108.686 13.9923C107.237 12.6957 105.178 12.0093 102.661 12.0093H98.9234V26.6533ZM117.228 29.7042V8.95841H131.949V12.0093H120.432V17.1194H129.813V20.094H120.432V26.6533H132.33V29.7042H117.228ZM134.923 29.7042L143.084 18.4923L136.22 8.95841H140.034L145.067 15.8228L150.025 8.95841H153.839L146.898 18.416L155.135 29.7042H151.245L144.991 21.0855L138.661 29.7042H134.923Z" fill="#E3EBF9"/>
<path d="M30.8136 42.4414C28.678 42.4414 27 40.6872 27 38.6279C27 36.4923 28.7542 34.8143 30.8136 34.8143C32.9492 34.8143 34.6271 36.5685 34.6271 38.6279C34.6271 40.7635 32.9492 42.4414 30.8136 42.4414ZM30.8136 36.2635C29.517 36.2635 28.5254 37.3313 28.5254 38.5516C28.5254 39.8482 29.5932 40.8397 30.8136 40.8397C32.1102 40.8397 33.1017 39.7719 33.1017 38.5516C33.1017 37.3313 32.1102 36.2635 30.8136 36.2635ZM13.7288 16.8906C9.38136 16.8906 5.87288 13.3821 5.87288 9.03464C5.87288 4.68719 9.45763 1.17871 13.7288 1.17871C18.0763 1.17871 21.5847 4.68719 21.5847 9.03464C21.5847 13.3821 18.0763 16.8906 13.7288 16.8906ZM13.7288 2.70413C10.2203 2.70413 7.3983 5.52617 7.3983 9.03464C7.3983 12.5431 10.2203 15.3652 13.7288 15.3652C17.2373 15.3652 20.0593 12.5431 20.0593 9.03464C20.0593 5.52617 17.2373 2.70413 13.7288 2.70413ZM30.8136 13.4584C28.3729 13.4584 26.3898 11.4753 26.3898 9.03464C26.3898 6.59396 28.3729 4.61091 30.8136 4.61091C33.2542 4.61091 35.2373 6.59396 35.2373 9.03464C35.2373 10.4838 34.4746 11.8567 33.2542 12.6957C32.5678 13.1533 31.7288 13.4584 30.8136 13.4584ZM30.8136 6.13634C29.2119 6.13634 27.9153 7.43295 27.9153 9.03464C27.9153 10.6363 29.2119 11.9329 30.8136 11.9329C31.4237 11.9329 31.9576 11.7804 32.4153 11.399C33.2542 10.8652 33.7119 9.9499 33.7119 8.95837C33.7119 7.43295 32.4153 6.13634 30.8136 6.13634ZM39.3559 28.8652C36.6102 28.8652 34.322 26.577 34.322 23.8313C34.322 21.0855 36.6102 18.7974 39.3559 18.7974C42.1017 18.7974 44.3898 21.0855 44.3898 23.8313C44.3898 26.577 42.1017 28.8652 39.3559 28.8652ZM39.3559 20.3228C37.4492 20.3228 35.8475 21.9245 35.8475 23.8313C35.8475 25.738 37.4492 27.3397 39.3559 27.3397C41.2627 27.3397 42.8644 25.738 42.8644 23.8313C42.8644 21.8482 41.2627 20.3228 39.3559 20.3228ZM13.7288 45.1109C10.1441 45.1109 7.16949 42.2126 7.16949 38.5516C7.16949 34.9668 10.0678 31.9923 13.7288 31.9923C17.3898 31.9923 20.2881 34.8906 20.2881 38.5516C20.2881 42.2126 17.3898 45.1109 13.7288 45.1109ZM13.7288 33.5177C10.9831 33.5177 8.69491 35.8058 8.69491 38.5516C8.69491 41.2974 10.9068 43.5855 13.7288 43.5855C16.4746 43.5855 18.7627 41.3736 18.7627 38.5516C18.7627 35.7296 16.4746 33.5177 13.7288 33.5177ZM4.65254 28.1787C2.05932 28.1787 0 26.1194 0 23.5262C0 20.9329 2.05932 18.8736 4.65254 18.8736C7.24576 18.8736 9.30509 20.9329 9.30509 23.5262C9.30509 26.1194 7.24576 28.1787 4.65254 28.1787ZM4.65254 20.3991C2.89831 20.3991 1.52542 21.7719 1.52542 23.5262C1.52542 25.2804 2.89831 26.6533 4.65254 26.6533C6.40678 26.6533 7.77966 25.2804 7.77966 23.5262C7.77966 21.7719 6.40678 20.3991 4.65254 20.3991Z" fill="#E3EBF9"/>
</g>
<defs>
<clipPath id="clip0_412_45859">
<rect width="155.593" height="45" fill="white" transform="translate(0 0.5)"/>
</clipPath>
</defs>
</svg>
