<svg xmlns="http://www.w3.org/2000/svg" width="28" height="33" fill="none"><path fill="#104ADE" d="m5.86 24.4-.075.17a5.72 5.72 0 0 0 0 4.435c.297.704.73 1.343 1.274 1.88.548.539 1.196.965 1.908 1.256a5.96 5.96 0 0 0 4.5 0 5.9 5.9 0 0 0 1.907-1.256l10.82-10.661a5.88 5.88 0 0 0 1.76-4.19c0-1.41-.443-2.77-1.41-3.836a2.65 2.65 0 0 0-1.518-.17c-.457.084-.876.35-1.225.665L13.522 23.088c-.19.194-.41.355-.648.479q.189-.115.373-.24l-.032.013.03-.02-.03.02A8.7 8.7 0 0 1 5.86 24.4"/><path fill="#0038C7" d="m13.215 23.34.062-.041a2.59 2.59 0 0 1-2.424-.27 2.6 2.6 0 0 1-.757-.817 2.54 2.54 0 0 1 .402-3.09l3.421-3.4 4.997-4.923.02-.018.044-.035.752-.742q.576-.112 1.162-.107c.88 0 1.626.085 2.371.297a5.8 5.8 0 0 1 3.288 2.01 2.65 2.65 0 0 0-1.527-.176c-.458.085-.877.352-1.226.666L13.522 23.089c-.19.194-.41.355-.649.479q.189-.116.373-.24z"/><path fill="#0F75FC" d="M21.508 3.564a5.4 5.4 0 0 0-1.183-1.742A6.3 6.3 0 0 0 18.28.474a6.4 6.4 0 0 0-4.83 0c-.764.311-1.46.77-2.047 1.348l-8.908 8.776A8.33 8.33 0 0 0 0 16.4a8.32 8.32 0 0 0 2.307 5.876l.093.089.096.098q.132.127.276.24a8.69 8.69 0 0 0 10.504.595 2.59 2.59 0 0 1-2.424-.27 2.6 2.6 0 0 1-.757-.817 2.54 2.54 0 0 1 .402-3.089l3.42-3.4 4.998-4.924.064-.053 1.345-1.327a5.34 5.34 0 0 0 1.493-2.75 5.3 5.3 0 0 0-.31-3.102v-.002"/></svg>