<svg width="35" height="36" viewBox="0 0 35 36" fill="none" xmlns="http://www.w3.org/2000/svg">
<g clip-path="url(#clip0_332_7618)">
<path d="M30.4951 11.748C29.6901 5.94818 24.8761 1.25672 19.0472 0.588802C15.3941 0.168802 11.8445 1.23193 9.05615 3.57839C6.30427 5.89422 4.60677 9.27464 4.39969 12.8534C4.37635 13.2559 4.6826 13.6015 5.0851 13.6234C5.4876 13.6555 5.83177 13.3405 5.8551 12.938C6.03885 9.75589 7.54823 6.75172 9.99531 4.69255C12.473 2.60859 15.6289 1.66214 18.8809 2.03839C24.058 2.63047 28.3353 6.79839 29.0514 11.9478C29.3314 13.9705 29.0966 16.0194 28.3703 17.873C27.6586 19.693 25.7803 20.9165 23.6964 20.9165H20.0257C20.2751 20.4878 20.418 19.989 20.418 19.4582C20.418 17.8496 19.1099 16.5415 17.5014 16.5415C15.8928 16.5415 14.5847 17.8496 14.5847 19.4582C14.5847 21.0667 15.8928 22.3748 17.5014 22.3748H23.6964C26.3739 22.3748 28.7991 20.7794 29.7295 18.4053C30.5461 16.3169 30.8101 14.0157 30.4951 11.748ZM16.043 19.4582C16.043 18.6532 16.6978 17.9998 17.5014 17.9998C18.3049 17.9998 18.9597 18.6532 18.9597 19.4582C18.9597 20.2632 18.3049 20.9165 17.5014 20.9165C16.6978 20.9165 16.043 20.2632 16.043 19.4582ZM23.9982 16.9382C24.5247 15.9071 24.793 14.793 24.793 13.6248C24.793 9.60422 21.522 6.33318 17.5014 6.33318C13.4807 6.33318 10.2097 9.60422 10.2097 13.6248C10.2097 15.3151 10.8018 16.963 11.8766 18.2653C12.1332 18.5759 12.0895 19.0353 11.7789 19.2919C11.6432 19.4042 11.4784 19.4582 11.3151 19.4582C11.1051 19.4582 10.8966 19.3678 10.7522 19.1928C9.46302 17.6309 8.75135 15.6534 8.75135 13.6248C8.75135 8.79922 12.6757 4.87484 17.5014 4.87484C22.327 4.87484 26.2514 8.79922 26.2514 13.6248C26.2514 15.0263 25.9305 16.3651 25.2976 17.6032C25.1124 17.9619 24.6691 18.1019 24.3161 17.9211C23.9574 17.7373 23.8145 17.2955 23.9982 16.9382ZM29.152 34.6219C29.2351 35.0171 28.9814 35.4021 28.5861 35.4838C28.1997 35.5728 27.8059 35.3146 27.7243 34.918C26.7384 30.1842 22.4393 26.7484 17.4999 26.7484C12.5605 26.7484 8.26135 30.1828 7.27698 34.918C7.20552 35.2621 6.90219 35.4984 6.56385 35.4984C6.51427 35.4984 6.46469 35.494 6.4151 35.4823C6.01989 35.4007 5.7676 35.0157 5.84927 34.6205C6.97365 29.213 11.8736 25.2901 17.5014 25.2901C23.1291 25.2901 28.0276 29.213 29.152 34.6205V34.6219Z" fill="#E3EBF9"/>
</g>
<defs>
<clipPath id="clip0_332_7618">
<rect width="35" height="35" fill="white" transform="translate(0 0.5)"/>
</clipPath>
</defs>
</svg>
