<svg width="20" height="20" viewBox="0 0 20 20" fill="none" xmlns="http://www.w3.org/2000/svg">
<g clip-path="url(#clip0_10616_156144)">
<path d="M20 10C20 4.47715 15.5228 0 10 0C4.47715 0 0 4.47715 0 10C0 15.5228 4.47715 20 10 20C15.5228 20 20 15.5228 20 10Z" fill="#6CF9D8"/>
<path fill-rule="evenodd" clip-rule="evenodd" d="M4.34472 5.26228L5.31927 4.28772L9.21381 8.18231C8.9775 8.283 8.75606 8.42975 8.56325 8.62256C8.41393 8.77188 8.29218 8.93838 8.19812 9.11569L4.34472 5.26228ZM8.12475 10.8998L4.28711 14.7374L5.26166 15.712L9.06025 11.9134C8.8815 11.8191 8.71368 11.6966 8.56325 11.5463C8.37156 11.3546 8.22537 11.1346 8.12475 10.8998ZM10.9938 11.9114L14.7399 15.6575L15.7145 14.6829L11.9272 10.8956C11.8265 11.132 11.6797 11.3534 11.4869 11.5463C11.3376 11.6956 11.1711 11.8173 10.9938 11.9114ZM11.8541 9.11956L15.6569 5.31676L14.6823 4.34221L10.8405 8.18406C11.0752 8.28475 11.2952 8.43088 11.4869 8.62256C11.6373 8.773 11.7597 8.94081 11.8541 9.11956Z" fill="#2D2E33"/>
</g>
<defs>
<clipPath id="clip0_10616_156144">
<rect width="20" height="20" fill="white"/>
</clipPath>
</defs>
</svg>
