<svg width="21" height="22" viewBox="0 0 21 22" fill="none" xmlns="http://www.w3.org/2000/svg">
<circle cx="10" cy="11" r="10" fill="black"/>
<g filter="url(#filter0_f_10598_151149)">
<path fill-rule="evenodd" clip-rule="evenodd" d="M7.08629 7.09665L8.80717 6.41873L8.91146 6.37111L9.12005 6.10584L9.11059 6.04456L8.91146 6.11135L8.5725 6.22503L8.49428 6.13564L6.45132 6.99235L6.6333 7.25309L6.96862 7.13729L7.08629 7.09665Z" fill="#FF0000"/>
<path fill-rule="evenodd" clip-rule="evenodd" d="M9.79797 17.25V14.1887C11.5188 14.3452 13.2919 13.1562 13.2919 11.112C13.2919 8.55678 11.5188 7.82671 9.79797 7.82672L7.81636 7.82671V9.96477C7.81636 10.0691 7.81636 10.2255 7.60777 10.2255H4.89609C4.79179 10.2255 4.6875 10.1525 4.6875 10.0691V4.90644C4.6875 4.82083 4.6875 4.75 4.89609 4.75C5.10468 4.75 8.25093 4.7603 9.79797 4.76545C14.0219 4.59356 16.2643 6.9402 16.4207 11.112C16.2643 14.7102 13.5005 17.25 9.79797 17.25ZM5.10468 9.86047H7.45133V7.77457L6.72126 7.37911L6.4886 7.25309L5.10468 9.86047ZM5.00039 9.39114L6.17252 7.14879L5.00039 5.48007V9.39114ZM6.45132 6.99235L6.6333 7.25309L6.96862 7.13729L7.71207 7.51383H10.0066L8.91146 6.37111L9.12005 6.10584L9.11059 6.04456L11.571 5.21933L11.0495 5.06289H8.02495L8.91146 6.11135L8.5725 6.22503L8.49428 6.13564L7.55562 5.06289H5.10468L6.45132 6.99235ZM12.1508 5.32362L9.32864 6.32245L10.4759 7.51383C10.9278 7.56598 11.9673 7.80585 12.5097 8.34819L12.1508 5.32362ZM12.8747 8.55678L14.0219 7.77457L13.9176 6.31443C13.653 6.05369 12.9945 5.52179 12.4777 5.48007L12.8747 8.55678Z" fill="#FF0000"/>
<path d="M5.52186 11.112C5.52186 10.9968 5.61525 10.9034 5.73045 10.9034H6.77341C6.88861 10.9034 6.982 10.9968 6.982 11.112V12.1028V12.155C6.982 12.2702 6.88861 12.3636 6.77341 12.3636H5.73045C5.61525 12.3636 5.52186 12.2702 5.52186 12.155V11.112Z" fill="#FF0000"/>
<path d="M7.39918 12.885C7.39918 12.7878 7.46566 12.7062 7.55562 12.683C7.57229 12.6787 7.58976 12.6765 7.60777 12.6765H9.06791C9.18311 12.6765 9.2765 12.7698 9.2765 12.885V14.3452C9.2765 14.4604 9.18311 14.5538 9.06791 14.5538H7.65992H7.60777C7.49257 14.5538 7.39918 14.4604 7.39918 14.3452V12.9893V12.885Z" fill="#FF0000"/>
<path d="M4.7918 15.0752C4.7918 14.96 4.88518 14.8667 5.00039 14.8667H6.77341C6.79878 14.8667 6.8231 14.8712 6.8456 14.8795C6.92522 14.9089 6.982 14.9854 6.982 15.0752V15.2317V16.8483C6.982 16.9635 6.88861 17.0569 6.77341 17.0569H5.00039C4.88518 17.0569 4.7918 16.9635 4.7918 16.8483V15.0752Z" fill="#FF0000"/>
<path d="M7.60777 14.5538C7.49257 14.5538 7.39918 14.4604 7.39918 14.3452L6.8456 14.8795C6.92522 14.9089 6.982 14.9854 6.982 15.0752V15.2317L7.65992 14.5538H7.60777Z" fill="#FF0000"/>
<path d="M6.982 12.155C6.982 12.2702 6.88861 12.3636 6.77341 12.3636L7.39918 12.9893V12.885C7.39918 12.7878 7.46566 12.7062 7.55562 12.683L6.982 12.1028V12.155Z" fill="#FF0000"/>
<path d="M5.83475 6.73161C5.83475 6.61641 5.92814 6.52302 6.04334 6.52302H6.8777C6.9929 6.52302 7.08629 6.61641 7.08629 6.73161V7.56598C7.08629 7.68118 6.9929 7.77457 6.8777 7.77457H6.04334C5.92814 7.77457 5.83475 7.68118 5.83475 7.56598V6.73161Z" fill="#FF0000"/>
<path d="M8.54643 6.00155C8.54643 5.88634 8.63982 5.79296 8.75502 5.79296H9.1722C9.2874 5.79296 9.38079 5.88634 9.38079 6.00155V6.41873C9.38079 6.53393 9.2874 6.62732 9.1722 6.62732H8.75502C8.63982 6.62732 8.54643 6.53393 8.54643 6.41873V6.00155Z" fill="#FF0000"/>
<path d="M11.7796 5.06289C11.7796 4.94769 11.873 4.8543 11.9882 4.8543H12.4054C12.5206 4.8543 12.6139 4.94769 12.6139 5.06289V5.48007C12.6139 5.59527 12.5206 5.68866 12.4054 5.68866H11.9882C11.873 5.68866 11.7796 5.59527 11.7796 5.48007V5.06289Z" fill="#FF0000"/>
</g>
<path fill-rule="evenodd" clip-rule="evenodd" d="M7.08629 7.09665L8.80717 6.41873L8.91146 6.37111L9.12005 6.10584L9.11059 6.04456L8.91146 6.11135L8.5725 6.22503L8.49428 6.13564L6.45132 6.99235L6.6333 7.25309L6.96862 7.13729L7.08629 7.09665Z" fill="white"/>
<path fill-rule="evenodd" clip-rule="evenodd" d="M9.79797 17.25V14.1887C11.5188 14.3452 13.2919 13.1562 13.2919 11.112C13.2919 8.55678 11.5188 7.82671 9.79797 7.82672L7.81636 7.82671V9.96477C7.81636 10.0691 7.81636 10.2255 7.60777 10.2255H4.89609C4.79179 10.2255 4.6875 10.1525 4.6875 10.0691V4.90644C4.6875 4.82083 4.6875 4.75 4.89609 4.75C5.10468 4.75 8.25093 4.7603 9.79797 4.76545C14.0219 4.59356 16.2643 6.9402 16.4207 11.112C16.2643 14.7102 13.5005 17.25 9.79797 17.25ZM5.10468 9.86047H7.45133V7.77457L6.72126 7.37911L6.4886 7.25309L5.10468 9.86047ZM5.00039 9.39114L6.17252 7.14879L5.00039 5.48007V9.39114ZM6.45132 6.99235L6.6333 7.25309L6.96862 7.13729L7.71207 7.51383H10.0066L8.91146 6.37111L9.12005 6.10584L9.11059 6.04456L11.571 5.21933L11.0495 5.06289H8.02495L8.91146 6.11135L8.5725 6.22503L8.49428 6.13564L7.55562 5.06289H5.10468L6.45132 6.99235ZM12.1508 5.32362L9.32864 6.32245L10.4759 7.51383C10.9278 7.56598 11.9673 7.80585 12.5097 8.34819L12.1508 5.32362ZM12.8747 8.55678L14.0219 7.77457L13.9176 6.31443C13.653 6.05369 12.9945 5.52179 12.4777 5.48007L12.8747 8.55678Z" fill="white"/>
<path d="M5.52186 11.112C5.52186 10.9968 5.61525 10.9034 5.73045 10.9034H6.77341C6.88861 10.9034 6.982 10.9968 6.982 11.112V12.1028V12.155C6.982 12.2702 6.88861 12.3636 6.77341 12.3636H5.73045C5.61525 12.3636 5.52186 12.2702 5.52186 12.155V11.112Z" fill="white"/>
<path d="M7.39918 12.885C7.39918 12.7878 7.46566 12.7062 7.55562 12.683C7.57229 12.6787 7.58976 12.6765 7.60777 12.6765H9.06791C9.18311 12.6765 9.2765 12.7698 9.2765 12.885V14.3452C9.2765 14.4604 9.18311 14.5538 9.06791 14.5538H7.65992H7.60777C7.49257 14.5538 7.39918 14.4604 7.39918 14.3452V12.9893V12.885Z" fill="white"/>
<path d="M4.7918 15.0752C4.7918 14.96 4.88518 14.8667 5.00039 14.8667H6.77341C6.79878 14.8667 6.8231 14.8712 6.8456 14.8795C6.92522 14.9089 6.982 14.9854 6.982 15.0752V15.2317V16.8483C6.982 16.9635 6.88861 17.0569 6.77341 17.0569H5.00039C4.88518 17.0569 4.7918 16.9635 4.7918 16.8483V15.0752Z" fill="white"/>
<path d="M7.60777 14.5538C7.49257 14.5538 7.39918 14.4604 7.39918 14.3452L6.8456 14.8795C6.92522 14.9089 6.982 14.9854 6.982 15.0752V15.2317L7.65992 14.5538H7.60777Z" fill="white"/>
<path d="M6.982 12.155C6.982 12.2702 6.88861 12.3636 6.77341 12.3636L7.39918 12.9893V12.885C7.39918 12.7878 7.46566 12.7062 7.55562 12.683L6.982 12.1028V12.155Z" fill="white"/>
<path d="M5.83475 6.73161C5.83475 6.61641 5.92814 6.52302 6.04334 6.52302H6.8777C6.9929 6.52302 7.08629 6.61641 7.08629 6.73161V7.56598C7.08629 7.68118 6.9929 7.77457 6.8777 7.77457H6.04334C5.92814 7.77457 5.83475 7.68118 5.83475 7.56598V6.73161Z" fill="white"/>
<path d="M8.54643 6.00155C8.54643 5.88634 8.63982 5.79296 8.75502 5.79296H9.1722C9.2874 5.79296 9.38079 5.88634 9.38079 6.00155V6.41873C9.38079 6.53393 9.2874 6.62732 9.1722 6.62732H8.75502C8.63982 6.62732 8.54643 6.53393 8.54643 6.41873V6.00155Z" fill="white"/>
<path d="M11.7796 5.06289C11.7796 4.94769 11.873 4.8543 11.9882 4.8543H12.4054C12.5206 4.8543 12.6139 4.94769 12.6139 5.06289V5.48007C12.6139 5.59527 12.5206 5.68866 12.4054 5.68866H11.9882C11.873 5.68866 11.7796 5.59527 11.7796 5.48007V5.06289Z" fill="white"/>
<defs>
<filter id="filter0_f_10598_151149" x="0.6875" y="0.75" width="19.7334" height="20.5" filterUnits="userSpaceOnUse" color-interpolation-filters="sRGB">
<feFlood flood-opacity="0" result="BackgroundImageFix"/>
<feBlend mode="normal" in="SourceGraphic" in2="BackgroundImageFix" result="shape"/>
<feGaussianBlur stdDeviation="2" result="effect1_foregroundBlur_10598_151149"/>
</filter>
</defs>
</svg>
