<svg width="20" height="20" viewBox="0 0 20 20" fill="none" xmlns="http://www.w3.org/2000/svg">
<circle cx="10" cy="10" r="10" fill="#141414"/>
<path fill-rule="evenodd" clip-rule="evenodd" d="M4.4498 8.33751H2.1498V8.26251H4.4498V8.33751ZM6.0248 8.33751H4.8498V8.26251H6.0248V8.33751ZM8.34979 8.33751H6.7998V8.26251H8.34979V8.33751ZM12.2498 8.33751H9.14979V8.26251H12.2498V8.33751ZM14.1998 8.33751H12.6498V8.26251H14.1998V8.33751ZM16.5248 8.33751H14.9748V8.26251H16.5248V8.33751ZM17.3248 8.33751H16.9248V8.26251H17.3248V8.33751ZM19.2498 8.33751H18.4998V8.26251H19.2498V8.33751ZM1.76582 9.04423L2.01582 8.50914L2.08377 8.54089L1.83377 9.07597L1.76582 9.04423ZM4.06582 9.04423L4.31582 8.50914L4.38377 8.54089L4.13377 9.07597L4.06582 9.04423ZM4.46582 9.04423L4.71582 8.50914L4.78377 8.54089L4.53377 9.07597L4.46582 9.04423ZM8.66582 9.07597L8.41582 8.54089L8.48377 8.50914L8.73377 9.04423L8.66582 9.07597ZM8.76582 9.04423L9.01582 8.50914L9.08377 8.54089L8.83377 9.07597L8.76582 9.04423ZM11.1158 9.04423L11.3658 8.50914L11.4338 8.54089L11.1838 9.07597L11.1158 9.04423ZM11.9158 9.04423L12.1658 8.50914L12.2338 8.54089L11.9838 9.07597L11.9158 9.04423ZM12.2658 9.04423L12.5158 8.50914L12.5838 8.54089L12.3338 9.07597L12.2658 9.04423ZM13.0658 9.04423L13.3158 8.50914L13.3838 8.54089L13.1338 9.07597L13.0658 9.04423ZM14.6158 9.04423L14.8658 8.50914L14.9338 8.54089L14.6838 9.07597L14.6158 9.04423ZM15.7658 9.04423L16.0158 8.50914L16.0838 8.54089L15.8338 9.07597L15.7658 9.04423ZM17.3658 9.04423L17.6158 8.50914L17.6838 8.54089L17.4338 9.07597L17.3658 9.04423ZM18.1158 9.04423L18.3658 8.50914L18.4338 8.54089L18.1838 9.07597L18.1158 9.04423ZM6.1873 8.52501H6.2623V11.575H6.1873V8.52501ZM6.5873 9.12501V8.52501H6.6623V9.12501H6.5873ZM14.3873 9.12501V8.52501H14.4623V9.12501H14.3873ZM17.0873 9.12501V8.52501H17.1623V9.12501H17.0873ZM4.0498 9.16251H2.5248V9.08751H4.0498V9.16251ZM7.94979 9.16251H7.57479V9.08751H7.94979V9.16251ZM9.54979 9.16251H9.14979V9.08751H9.54979V9.16251ZM11.0748 9.16251H10.3498V9.08751H11.0748V9.16251ZM13.0248 9.16251H12.6498V9.08751H13.0248V9.16251ZM5.3873 9.95001V9.30001H5.4623V9.95001H5.3873ZM6.5873 9.95001V9.30001H6.6623V9.95001H6.5873ZM7.33729 9.95001V9.30001H7.41229V9.95001H7.33729ZM8.88729 9.95001V9.30001H8.96229V9.95001H8.88729ZM9.28729 9.95001V9.30001H9.36229V9.95001H9.28729ZM10.0873 9.95001V9.30001H10.1623V9.95001H10.0873ZM14.4623 9.95001H14.3873V9.30001H14.4623V9.95001ZM17.1623 9.95001H17.0873V9.30001H17.1623V9.95001ZM8.15823 9.60073C8.14604 9.50676 8.10387 9.42096 8.06913 9.37159L8.13046 9.32843C8.17072 9.38564 8.21855 9.48273 8.23261 9.59107C8.24681 9.70051 8.2266 9.8239 8.12662 9.92622L8.07297 9.8738C8.15299 9.79192 8.17028 9.6936 8.15823 9.60073ZM1.38508 9.85914L1.61869 9.35914L1.68664 9.39089L1.45303 9.89089L1.38508 9.85914ZM2.13508 9.85914L2.36869 9.35914L2.43664 9.39089L2.20303 9.89089L2.13508 9.85914ZM4.08508 9.85914L4.31869 9.35914L4.38664 9.39089L4.15303 9.89089L4.08508 9.85914ZM4.88506 9.85914L5.11866 9.35914L5.18661 9.39089L4.95301 9.89089L4.88506 9.85914ZM10.7351 9.85914L10.9687 9.35914L11.0366 9.39089L10.803 9.89089L10.7351 9.85914ZM13.0351 9.85914L13.2687 9.35914L13.3366 9.39089L13.103 9.89089L13.0351 9.85914ZM13.8351 9.85914L14.0687 9.35914L14.1366 9.39089L13.903 9.89089L13.8351 9.85914ZM15.0351 9.85914L15.2687 9.35914L15.3366 9.39089L15.103 9.89089L15.0351 9.85914ZM15.7851 9.85914L16.0187 9.35914L16.0866 9.39089L15.853 9.89089L15.7851 9.85914ZM16.5851 9.85914L16.8187 9.35914L16.8866 9.39089L16.653 9.89089L16.5851 9.85914ZM17.7351 9.85914L17.9687 9.35914L18.0366 9.39089L17.803 9.89089L17.7351 9.85914ZM18.5351 9.85914L18.7687 9.35914L18.8366 9.39089L18.603 9.89089L18.5351 9.85914ZM12.1273 9.44501L12.1723 9.50501L12.0093 9.62725L12.1745 9.77179L12.1251 9.82823L11.8903 9.62277L12.1273 9.44501ZM11.6519 9.81397C11.6559 9.80435 11.653 9.78649 11.6426 9.76931L11.707 9.73072C11.7216 9.7552 11.7387 9.79984 11.7214 9.8423C11.702 9.88985 11.65 9.91251 11.5748 9.91251V9.83751C11.6396 9.83751 11.6501 9.81851 11.6519 9.81397ZM2.8748 9.98751H2.5248V9.91251H2.8748V9.98751ZM7.94979 9.98751H7.57479V9.91251H7.94979V9.98751ZM14.9748 9.98751H14.5998V9.91251H14.9748V9.98751ZM17.7498 9.98751H17.3248V9.91251H17.7498V9.98751ZM2.51133 10.6591L2.76584 10.1144L2.83379 10.1461L2.57928 10.6909L2.51133 10.6591ZM11.1113 10.6591L11.3658 10.1144L11.4338 10.1461L11.1793 10.6909L11.1113 10.6591ZM1.01131 10.6591L1.26582 10.1144L1.33377 10.1461L1.07926 10.6909L1.01131 10.6591ZM3.71131 10.6591L3.96582 10.1144L4.03377 10.1461L3.77926 10.6909L3.71131 10.6591ZM10.3613 10.6591L10.6158 10.1144L10.6838 10.1461L10.4293 10.6909L10.3613 10.6591ZM12.6613 10.6591L12.9158 10.1144L12.9838 10.1461L12.7293 10.6909L12.6613 10.6591ZM13.4613 10.6591L13.7158 10.1144L13.7838 10.1461L13.5293 10.6909L13.4613 10.6591ZM14.6613 10.6591L14.9158 10.1144L14.9838 10.1461L14.7293 10.6909L14.6613 10.6591ZM15.4113 10.6591L15.6658 10.1144L15.7338 10.1461L15.4793 10.6909L15.4113 10.6591ZM16.2113 10.6591L16.4658 10.1144L16.5338 10.1461L16.2793 10.6909L16.2113 10.6591ZM17.3613 10.6591L17.6158 10.1144L17.6838 10.1461L17.4293 10.6909L17.3613 10.6591ZM18.1613 10.6591L18.4158 10.1144L18.4838 10.1461L18.2293 10.6909L18.1613 10.6591ZM11.6373 10.825V10.1303H11.7123V10.825H11.6373ZM12.4373 10.825V10.1303H12.5123V10.825H12.4373ZM6.5873 10.825V10.1303H6.6623V10.825H6.5873ZM9.28729 10.825V10.1303H9.36229V10.825H9.28729ZM10.0873 10.825V10.1303H10.1623V10.825H10.0873ZM8.6251 10.2718L8.67449 10.3282L8.50674 10.475L8.67449 10.6218L8.6251 10.6782L8.39285 10.475L8.6251 10.2718ZM2.5248 10.7875H1.7248V10.7125H2.5248V10.7875ZM5.6248 10.7875H4.4498V10.7125H5.6248V10.7875ZM7.94979 10.7875H7.57479V10.7125H7.94979V10.7875ZM8.88729 11.575V10.95H8.96229V11.575H8.88729ZM10.6998 11.5399L10.9478 11.0091L11.0157 11.0409L10.7588 11.5909L10.6998 11.5633V11.6125H10.3498V11.5375H10.6998V11.5399ZM0.59082 11.5591L0.847788 11.0091L0.915737 11.0409L0.65877 11.5909L0.59082 11.5591ZM1.34082 11.5591L1.59779 11.0091L1.66574 11.0409L1.40877 11.5909L1.34082 11.5591ZM3.29082 11.5591L3.54779 11.0091L3.61574 11.0409L3.35877 11.5909L3.29082 11.5591ZM4.0498 11.5399L4.29779 11.0091L4.36574 11.0409L4.10877 11.5909L4.0498 11.5633V11.6125H3.6748V11.5375H4.0498V11.5399ZM7.89779 11.5909L7.64082 11.0409L7.70877 11.0091L7.95563 11.5375H8.34979V11.6125H7.94979V11.5666L7.89779 11.5909ZM8.64779 11.5909L8.39082 11.0409L8.45877 11.0091L8.71574 11.5591L8.64779 11.5909ZM9.54979 11.5399L9.79779 11.0091L9.86574 11.0409L9.60877 11.5909L9.54979 11.5633V11.6125H9.14979V11.5375H9.54979V11.5399ZM9.94082 11.5591L10.1978 11.0091L10.2657 11.0409L10.0088 11.5909L9.94082 11.5591ZM12.2498 11.5399L12.4978 11.0091L12.5657 11.0409L12.3088 11.5909L12.2498 11.5633V11.6125H11.8748V11.5375H12.2498V11.5399ZM13.0408 11.5591L13.2978 11.0091L13.3657 11.0409L13.1088 11.5909L13.0408 11.5591ZM14.2408 11.5591L14.4978 11.0091L14.5657 11.0409L14.3088 11.5909L14.2408 11.5591ZM14.9908 11.5591L15.2478 11.0091L15.3157 11.0409L15.0588 11.5909L14.9908 11.5591ZM15.7908 11.5591L16.0478 11.0091L16.1157 11.0409L15.8588 11.5909L15.7908 11.5591ZM16.9408 11.5591L17.1978 11.0091L17.2657 11.0409L17.0088 11.5909L16.9408 11.5591ZM17.7498 11.5399L17.9978 11.0091L18.0657 11.0409L17.8088 11.5909L17.7498 11.5633V11.6125H17.3248V11.5375H17.7498V11.5399ZM11.6373 11.575V11.025H11.7123V11.575H11.6373ZM5.3873 11.575V11.025H5.4623V11.575H5.3873ZM6.9373 11.575V11.025H7.01229V11.575H6.9373ZM0.949795 11.5375H1.2998V11.6125H0.949795V11.5375ZM5.6248 11.5375H6.0248V11.6125H5.6248V11.5375ZM6.3998 11.5375H6.7998V11.6125H6.3998V11.5375ZM12.6498 11.5375H13.0248V11.6125H12.6498V11.5375ZM14.5998 11.5375H14.9748V11.6125H14.5998V11.5375ZM15.3998 11.5375H15.7748V11.6125H15.3998V11.5375Z" fill="white"/>
</svg>
