<svg width="20" height="20" viewBox="0 0 20 20" fill="none" xmlns="http://www.w3.org/2000/svg">
<circle cx="10" cy="10" r="10" fill="black"/>
<path d="M15.8989 8.14464H12.8568L12.223 7.57141H8.18881L7.07203 8.58156L6.50823 9.09181L6.21178 8.82395C6.20281 8.81556 6.19414 8.80716 6.18548 8.79904C6.17527 8.78952 6.16567 8.78001 6.15577 8.77049C6.14556 8.76098 6.13627 8.75118 6.1273 8.7411C6.11802 8.7313 6.10873 8.72151 6.09945 8.71143C6.09017 8.70164 6.0815 8.69184 6.07284 8.68148C6.06541 8.67253 6.05768 8.66385 6.05025 8.65489C6.04035 8.64342 6.03106 8.63166 6.02209 8.61991C6.01405 8.60927 6.006 8.59919 5.99826 8.58856C5.99022 8.57792 5.98248 8.56756 5.97505 8.55665C5.96763 8.54601 5.96051 8.5351 5.95308 8.52474C5.93854 8.50319 5.92461 8.48108 5.91162 8.45897C5.90667 8.45085 5.90172 8.44273 5.89708 8.43405C5.88872 8.42006 5.88129 8.40607 5.87387 8.39179C5.86861 8.38171 5.86304 8.37108 5.85809 8.36044C5.85159 8.34841 5.84602 8.33637 5.84045 8.32406C5.83519 8.31286 5.82993 8.30138 5.82497 8.28963C5.81848 8.27563 5.81291 8.26164 5.80734 8.24736C5.80393 8.23896 5.80053 8.23029 5.79743 8.22189C5.78753 8.1967 5.77887 8.17151 5.77113 8.14604C5.76773 8.1354 5.76433 8.12449 5.76123 8.11413C5.74792 8.06879 5.7374 8.02316 5.72874 7.97726C5.72719 7.96915 5.72564 7.96103 5.7241 7.95263C5.6653 7.60499 5.73616 7.24281 5.93668 6.92988C5.95773 6.89714 5.98032 6.86467 6.00445 6.83304C6.03694 6.79049 6.07129 6.74907 6.10812 6.70877C6.13627 6.67882 6.16567 6.64942 6.196 6.62144C6.19724 6.62004 6.19878 6.61864 6.20002 6.61724L7.10267 5.80078C7.22706 5.68826 7.39633 5.625 7.57271 5.625H12.8379C13.0143 5.625 13.1835 5.68826 13.308 5.80134L15.898 8.14408L15.8989 8.14464Z" fill="#53FFEA"/>
<path d="M16.0028 9.93915C15.9886 9.95619 15.9725 9.97273 15.9546 9.98867L15.6433 10.2702L13.9379 11.8128L13.2798 12.4078C13.9336 11.8172 13.4704 10.8063 12.5464 10.8063H10.1064L8.27637 9.15094H15.5715C15.5975 9.15094 15.6222 9.15234 15.6467 9.15542C15.9017 9.18565 16.0756 9.3687 16.109 9.57359C16.1288 9.69674 16.0982 9.82801 16.0028 9.93856V9.93915Z" fill="#53FFEA"/>
<path d="M13.2797 12.408L12.8056 12.8368L10.5616 14.8669C10.3654 15.0443 10.0473 15.0443 9.85108 14.8669L3.84941 9.43856C3.63744 9.24711 3.63744 8.93642 3.84941 8.74497L6.19623 6.62195C5.54423 7.22681 5.54052 8.19049 6.1854 8.79955C6.19406 8.80767 6.20304 8.81579 6.21201 8.8239L8.18501 10.6085L8.40412 10.8064L10.206 12.4362L11.4246 11.3343L12.0079 10.8064H12.546C13.4703 10.8064 13.9336 11.8171 13.2797 12.408Z" fill="#53FFEA"/>
<path style="mix-blend-mode:multiply" opacity="0.14" d="M8.40341 7.57136H8.18929L7.07251 8.58151L6.5087 9.09177L6.21226 8.82363C6.20328 8.81551 6.19462 8.80739 6.18595 8.799C6.17574 8.78948 6.16615 8.77996 6.15625 8.77045C6.14696 8.76093 6.13706 8.75113 6.12778 8.74105C6.1089 8.72174 6.09095 8.70159 6.07331 8.68144C6.06465 8.67136 6.05599 8.66101 6.04763 8.65093C6.03061 8.63049 6.01452 8.60978 5.99874 8.58879C5.98296 8.5678 5.9678 8.54625 5.95356 8.5247C5.93933 8.50286 5.9254 8.48103 5.91209 8.45892C5.9056 8.448 5.89879 8.43681 5.89291 8.42589C5.88641 8.41469 5.88053 8.4035 5.87434 8.3923C5.86846 8.38111 5.86258 8.36991 5.85702 8.35816C5.85145 8.34696 5.84588 8.33576 5.84061 8.32401C5.79853 8.23388 5.76666 8.14068 5.74407 8.04607C5.7419 8.03655 5.73943 8.02704 5.73757 8.01752C5.73231 7.99373 5.72767 7.96966 5.72364 7.94531C5.72086 7.92935 5.71869 7.9134 5.71653 7.89744C5.71653 7.89604 5.71622 7.89492 5.71622 7.89381C5.71405 7.87701 5.7125 7.86022 5.71096 7.84342C5.7091 7.82355 5.70755 7.80396 5.70693 7.7838C5.70663 7.77765 5.70632 7.77149 5.70632 7.76533C5.7057 7.74854 5.70508 7.73202 5.70508 7.71523C5.70508 7.6948 5.70539 7.67436 5.70663 7.65393C5.70848 7.60635 5.71312 7.55905 5.71993 7.51174C5.72148 7.50027 5.72333 7.48851 5.7255 7.47704C5.72612 7.47032 5.72736 7.46332 5.7289 7.4566C5.732 7.44065 5.73478 7.42469 5.73819 7.40874C5.74128 7.39559 5.74407 7.38215 5.74747 7.369C5.74933 7.36172 5.75118 7.35472 5.75304 7.34744C5.75799 7.32813 5.76356 7.3091 5.76944 7.29035C5.77223 7.28083 5.77501 7.27131 5.77841 7.26207C5.78924 7.22877 5.80162 7.19546 5.81524 7.16243C5.82174 7.14704 5.82855 7.13192 5.83566 7.11653C5.84216 7.10225 5.84897 7.08826 5.85608 7.07426C5.88022 7.02528 5.90715 6.97686 5.93747 6.93012C5.94799 6.91388 5.95882 6.89737 5.97027 6.88113C5.98141 6.86518 5.99317 6.84923 6.00524 6.83327C6.03773 6.79045 6.07208 6.7493 6.1089 6.709C6.13706 6.67905 6.16646 6.64966 6.19679 6.62167C6.19802 6.62027 6.19957 6.61887 6.20081 6.61747L7.10345 5.80101C7.13718 5.7705 7.17463 5.74363 7.21454 5.7204L8.40311 7.5708L8.40341 7.57136Z" fill="url(#paint0_linear_10519_142949)"/>
<path style="mix-blend-mode:multiply" opacity="0.14" d="M13.2794 12.408L12.8051 12.8371L11.7269 13.8122L10.2061 12.4365L12.0079 10.8067H12.5457C13.4704 10.8067 13.9333 11.8171 13.2794 12.408Z" fill="url(#paint1_linear_10519_142949)"/>
<defs>
<linearGradient id="paint0_linear_10519_142949" x1="9.94786" y1="5.99666" x2="5.44018" y2="8.51345" gradientUnits="userSpaceOnUse">
<stop offset="0.47" stop-color="white" stop-opacity="0"/>
<stop offset="0.57" stop-color="#BEBDBD" stop-opacity="0.29"/>
<stop offset="0.81" stop-color="#4C4849" stop-opacity="0.81"/>
<stop offset="0.98" stop-color="#231F20"/>
</linearGradient>
<linearGradient id="paint1_linear_10519_142949" x1="9.50949" y1="14.2993" x2="13.5651" y2="10.1156" gradientUnits="userSpaceOnUse">
<stop offset="0.49" stop-color="white" stop-opacity="0"/>
<stop offset="0.76" stop-color="#716E6F" stop-opacity="0.64"/>
<stop offset="0.98" stop-color="#231F20"/>
</linearGradient>
</defs>
</svg>
