<svg xmlns="http://www.w3.org/2000/svg" width="20" height="20" fill="none"><circle cx="10" cy="10" r="10" fill="#fff"/><path d="M6.434 7.72l3.491-.857a.052.052 0 01.027 0l3.492.857a.057.057 0 01.043.05c.005.06.428 5.893-3.53 7.252a.06.06 0 01-.036 0C5.963 13.664 6.386 7.83 6.39 7.771a.058.058 0 01.043-.051z" fill="#798CE5"/><path fill-rule="evenodd" clip-rule="evenodd" d="M16.504 5.172a.103.103 0 00-.079-.094l-6.4-1.575a.106.106 0 00-.05 0L3.574 5.078a.104.104 0 00-.079.094c-.008.108-.785 10.826 6.471 13.322a.103.103 0 00.068 0c7.256-2.496 6.48-13.214 6.47-13.322zm-1.182 1.133a.086.086 0 00-.064-.076L10.02 4.942a.082.082 0 00-.04 0L4.741 6.23a.084.084 0 00-.064.076c-.007.088-.642 8.838 5.295 10.876a.076.076 0 00.055 0c5.937-2.038 5.3-10.788 5.294-10.876z" fill="#798CE5"/></svg>