<?xml version="1.0" encoding="UTF-8"?><svg id="_Слой_1" xmlns="http://www.w3.org/2000/svg" viewBox="0 0 24 24"><defs><style>.cls-1{fill:#fff;fill-rule:evenodd;}</style></defs><circle cx="12" cy="12" r="12"/><path class="cls-1" d="M8.18,3.14s.07,0,.09-.02c.02-.03,0-.07-.02-.09-.03-.02-.07,0-.09.02-.02.03,0,.07.02.09ZM8.97,3.15s.06,0,.06-.06c0-.1-.04-.12-.09-.04-.02.03,0,.07.03.09ZM9.44,3.14s.07,0,.09-.02c.02-.03,0-.07-.02-.09-.03-.02-.07,0-.09.02-.02.03,0,.07.02.09ZM10.47,3.14s.07,0,.09-.02c.02-.03,0-.07-.02-.09-.03-.02-.07,0-.09.02-.02.03,0,.07.02.09ZM8.73,3.18s.06-.03.06-.06-.03-.06-.06-.06-.06.03-.06.06.03.06.06.06ZM9.75,3.18s.06-.03.06-.06-.03-.06-.06-.06-.06.03-.06.06.03.06.06.06ZM10.26,3.18s.03-.03.03-.06-.03-.06-.06-.06-.05.03-.03.06c.02.03.05.06.06.06ZM6.68,3.41s.06-.03.06-.06-.03-.06-.06-.06-.06.03-.06.06.03.06.06.06ZM7.22,3.41s.06-.03.06-.06-.03-.06-.06-.06-.06.03-.06.06.03.06.06.06ZM7.46,3.41s.06-.03.06-.06-.03-.06-.06-.06-.06.03-.06.06.03.06.06.06ZM7.94,3.41s.06-.03.06-.06-.03-.06-.06-.06-.06.03-.06.06.03.06.06.06ZM8.24,3.41s.06-.03.06-.06-.03-.06-.06-.06-.06.03-.06.06.03.06.06.06ZM8.73,3.41s.06-.03.06-.06-.03-.06-.06-.06-.06.03-.06.06.03.06.06.06ZM8.97,3.41s.06-.03.06-.06-.03-.06-.06-.06-.06.03-.06.06.03.06.06.06ZM9.51,3.41s.06-.03.06-.06-.03-.06-.06-.06-.06.03-.06.06.03.06.06.06ZM9.75,3.41s.06-.03.06-.06-.03-.06-.06-.06-.06.03-.06.06.03.06.06.06ZM10.23,3.41s.06-.03.06-.06-.03-.06-.06-.06-.06.03-.06.06.03.06.06.06ZM10.53,3.41s.06-.03.06-.06-.04-.06-.09-.06-.08.03-.06.06c.02.03.06.06.09.06ZM11.01,3.41s.06-.03.06-.06-.03-.06-.06-.06-.06.03-.06.06.03.06.06.06ZM11.25,3.41s.06-.03.06-.06-.03-.06-.06-.06-.06.03-.06.06.03.06.06.06ZM11.8,3.41s.06-.03.06-.06-.04-.06-.09-.06-.08.03-.06.06c.02.03.06.06.09.06ZM5.96,3.68s.05-.06.03-.09c-.05-.08-.09-.07-.09.04,0,.05.03.08.06.06ZM6.44,3.65s.06-.03.06-.06-.03-.06-.06-.06-.06.03-.06.06.03.06.06.06ZM6.67,3.68s.07,0,.09-.02c.02-.03,0-.07-.02-.09-.03-.02-.07,0-.09.02-.02.03,0,.07.02.09ZM7.16,3.68s.07,0,.09-.02c.02-.03,0-.07-.02-.09-.03-.02-.07,0-.09.02-.02.03,0,.07.02.09ZM7.46,3.68s.06,0,.06-.06-.03-.09-.06-.09-.06.03-.06.06.03.07.06.09ZM7.94,3.68s.07,0,.09-.02c.02-.03,0-.07-.02-.09-.03-.02-.07,0-.09.02-.02.03,0,.07.02.09ZM8.18,3.68s.07,0,.09-.02c.02-.03,0-.07-.02-.09-.03-.02-.07,0-.09.02-.02.03,0,.07.02.09ZM8.73,3.65s.06-.03.06-.06-.03-.06-.06-.06-.06.03-.06.06.03.06.06.06ZM8.97,3.68s.06,0,.06-.06c0-.1-.04-.12-.09-.04-.02.03,0,.07.03.09ZM9.44,3.68s.07,0,.09-.02c.02-.03,0-.07-.02-.09-.03-.02-.07,0-.09.02-.02.03,0,.07.02.09ZM9.75,3.68s.06-.06.06-.09-.03-.06-.06-.06-.06.04-.06.09.03.08.06.06ZM10.23,3.68s.06,0,.06-.06-.03-.09-.06-.09-.06.03-.06.06.03.07.06.09ZM10.47,3.68s.07,0,.09-.02c.02-.03,0-.07-.02-.09-.03-.02-.07,0-.09.02-.02.03,0,.07.02.09ZM11.01,3.68s.06-.06.06-.09-.03-.06-.06-.06-.06.04-.06.09.03.08.06.06ZM11.25,3.68s.06,0,.06-.06c0-.1-.04-.12-.09-.04-.02.03,0,.07.03.09ZM11.73,3.68s.07,0,.09-.02c.02-.03,0-.07-.02-.09-.03-.02-.07,0-.09.02-.02.03,0,.07.02.09ZM12.03,3.68s.06-.06.06-.09-.03-.06-.06-.06-.06.04-.06.09.03.08.06.06ZM12.52,3.68s.06,0,.06-.06c0-.1-.04-.12-.09-.04-.02.03,0,.07.03.09ZM11.25,3.95s.06-.03.06-.06-.03-.06-.06-.06-.06.03-.06.06.03.06.06.06ZM11.8,3.95s.06-.03.06-.06-.04-.06-.09-.06-.08.03-.06.06c.02.03.06.06.09.06ZM12.03,3.95s.06-.03.06-.06-.03-.06-.06-.06-.06.03-.06.06.03.06.06.06ZM12.52,3.95s.06-.03.06-.06-.03-.06-.06-.06-.06.03-.06.06.03.06.06.06ZM12.82,3.95s.06-.03.06-.06-.03-.06-.06-.06-.06.03-.06.06.03.06.06.06ZM13.3,3.95s.06-.03.06-.06-.03-.06-.06-.06-.06.03-.06.06.03.06.06.06ZM11.8,4.55s.06-.03.06-.06-.04-.06-.09-.06-.08.03-.06.06c.02.03.06.06.09.06ZM12.03,4.55s.06-.03.06-.06-.03-.06-.06-.06-.06.03-.06.06.03.06.06.06ZM12.52,4.55s.06-.03.06-.06-.03-.06-.06-.06-.06.03-.06.06.03.06.06.06ZM12.82,4.55s.06-.03.06-.06-.03-.06-.06-.06-.06.03-.06.06.03.06.06.06ZM13.3,4.55s.06-.03.06-.06-.03-.06-.06-.06-.06.03-.06.06.03.06.06.06ZM13.54,4.55s.06-.03.06-.06-.03-.06-.06-.06-.06.03-.06.06.03.06.06.06ZM12.51,4.79s.06-.03.06-.06-.01-.06-.03-.06-.04.03-.06.06c-.02.03,0,.06.03.06ZM12.82,4.79s.06-.03.06-.06-.03-.06-.06-.06-.06.03-.06.06.03.06.06.06ZM13.3,4.79s.06-.03.06-.06-.03-.06-.06-.06-.06.03-.06.06.03.06.06.06ZM13.54,4.79s.06-.03.06-.06-.03-.06-.06-.06-.06.03-.06.06.03.06.06.06ZM14.05,4.79c.05,0,.08-.03.06-.06-.02-.03-.05-.06-.06-.06s-.04.03-.06.06c-.02.03,0,.06.06.06ZM15.07,4.79c.05,0,.08-.03.06-.06-.02-.03-.05-.06-.06-.06s-.04.03-.06.06c-.02.03,0,.06.06.06ZM12.52,5.08s.06-.03.06-.06-.03-.06-.06-.06-.06.03-.06.06.03.06.06.06ZM12.82,5.08s.06-.03.06-.06-.03-.06-.06-.06-.06.03-.06.06.03.06.06.06ZM13.3,5.08s.06-.03.06-.06-.03-.06-.06-.06-.06.03-.06.06.03.06.06.06ZM13.54,5.08s.06-.03.06-.06-.03-.06-.06-.06-.06.03-.06.06.03.06.06.06ZM13.99,5.03c.03.06.15.03.15-.03,0-.01-.04-.03-.09-.03s-.08.03-.06.06ZM15.58,5.08s.06-.03.06-.06-.03-.06-.06-.06-.06.03-.06.06.03.06.06.06ZM12.82,5.32s.06-.03.06-.06-.03-.06-.06-.06-.06.03-.06.06.03.06.06.06ZM13.3,5.32s.06-.03.06-.06-.03-.06-.06-.06-.06.03-.06.06.03.06.06.06ZM13.54,5.32s.06-.03.06-.06-.03-.06-.06-.06-.06.03-.06.06.03.06.06.06ZM14.05,5.32c.05,0,.09-.03.09-.06s-.03-.06-.06-.06-.07.03-.09.06c-.02.03,0,.06.06.06ZM14.32,5.32s.06-.03.06-.06-.03-.06-.06-.06-.06.03-.06.06.03.06.06.06ZM15.58,5.32s.06-.03.06-.06-.03-.06-.06-.06-.06.03-.06.06.03.06.06.06ZM15.83,5.32s.06-.03.06-.06-.03-.06-.06-.06-.06.03-.06.06.03.06.06.06ZM13.3,5.92s.06-.03.06-.06-.03-.06-.06-.06-.06.03-.06.06.03.06.06.06ZM13.54,5.92s.06-.03.06-.06-.03-.06-.06-.06-.06.03-.06.06.03.06.06.06ZM14.05,5.92c.05,0,.08-.03.06-.06-.02-.03-.05-.06-.06-.06s-.04.03-.06.06c-.02.03,0,.06.06.06ZM14.32,5.92s.06-.03.06-.06-.03-.06-.06-.06-.06.03-.06.06.03.06.06.06ZM15.58,5.92s.06-.03.06-.06-.03-.06-.06-.06-.06.03-.06.06.03.06.06.06ZM15.83,5.92s.06-.03.06-.06-.03-.06-.06-.06-.06.03-.06.06.03.06.06.06ZM13.51,6.09c-.05.08,0,.17.06.11.02-.02.02-.07.01-.11-.02-.06-.03-.06-.07,0ZM14,6.09c-.04.07.07.16.13.1.02-.02,0-.07-.03-.1-.04-.04-.08-.04-.1,0ZM13.3,6.22s.06-.03.06-.06-.03-.06-.06-.06-.06.03-.06.06.03.06.06.06ZM14.32,6.22s.06-.03.06-.06-.03-.06-.06-.06-.06.03-.06.06.03.06.06.06ZM14.8,6.22s.06-.03.06-.06-.03-.06-.06-.06-.06.03-.06.06.03.06.06.06ZM15.83,6.22s.06-.03.06-.06-.03-.06-.06-.06-.06.03-.06.06.03.06.06.06ZM16.28,6.16c.03.06.15.03.15-.03,0-.01-.04-.03-.09-.03s-.08.03-.06.06ZM13.3,6.46s.06-.03.06-.06-.03-.06-.06-.06-.06.03-.06.06.03.06.06.06ZM13.54,6.46s.06-.03.06-.06-.03-.06-.06-.06-.06.03-.06.06.03.06.06.06ZM14.05,6.46c.05,0,.09-.03.09-.06s-.03-.06-.06-.06-.07.03-.09.06c-.02.03,0,.06.06.06ZM14.32,6.46s.06-.03.06-.06-.03-.06-.06-.06-.06.03-.06.06.03.06.06.06ZM14.8,6.46s.06-.03.06-.06-.03-.06-.06-.06-.06.03-.06.06.03.06.06.06ZM15.83,6.46s.06-.03.06-.06-.03-.06-.06-.06-.06.03-.06.06.03.06.06.06ZM16.34,6.46c.05,0,.08-.03.06-.06-.02-.03-.05-.06-.06-.06s-.04.03-.06.06c-.02.03,0,.06.06.06ZM16.61,6.46s.06-.03.06-.06-.03-.06-.06-.06-.06.03-.06.06.03.06.06.06ZM6.15,7c.06-.05.11-.09.11-.1,0-.05-.05-.02-.13.08-.07.09-.07.1.02.02ZM5.85,7.23c.09-.08.17-.15.17-.16,0-.05-.05,0-.19.14l-.15.16.17-.14ZM5.34,7.68c.17-.16.32-.3.32-.31,0-.04-.06,0-.33.3l-.3.31.32-.3ZM12.82,7.59s.06-.03.06-.06-.03-.06-.06-.06-.06.03-.06.06.03.06.06.06ZM13.3,7.59s.06-.03.06-.06-.03-.06-.06-.06-.06.03-.06.06.03.06.06.06ZM13.54,7.59s.06-.03.06-.06-.03-.06-.06-.06-.06.03-.06.06.03.06.06.06ZM14.08,7.59s.06-.03.06-.06-.03-.06-.06-.06-.06.03-.06.06.03.06.06.06ZM14.32,7.59s.06-.03.06-.06-.03-.06-.06-.06-.06.03-.06.06.03.06.06.06ZM14.8,7.59s.06-.03.06-.06-.03-.06-.06-.06-.06.03-.06.06.03.06.06.06ZM15.1,7.59s.06-.03.06-.06-.03-.06-.06-.06-.06.03-.06.06.03.06.06.06ZM15.58,7.59s.06-.03.06-.06-.03-.06-.06-.06-.06.03-.06.06.03.06.06.06ZM15.83,7.59s.06-.03.06-.06-.03-.06-.06-.06-.06.03-.06.06.03.06.06.06ZM16.33,7.59c.05,0,.09-.03.09-.06s-.03-.06-.06-.06-.07.03-.09.06c-.02.03,0,.06.06.06ZM16.61,7.59s.06-.03.06-.06-.03-.06-.06-.06-.06.03-.06.06.03.06.06.06ZM17.09,7.59s.06-.03.06-.06-.03-.06-.06-.06-.06.03-.06.06.03.06.06.06ZM17.36,7.59s.09-.03.09-.06-.04-.06-.09-.06-.09.03-.09.06.04.06.09.06ZM8.73,7.86s.06-.06.06-.09-.03-.06-.06-.06-.06.04-.06.09.03.08.06.06ZM8.97,7.86s.06,0,.06-.06c0-.1-.04-.12-.09-.04-.02.03,0,.07.03.09ZM9.44,7.85s.07,0,.09-.02c.02-.03,0-.07-.02-.09-.03-.02-.07,0-.09.02-.02.03,0,.07.02.09ZM9.75,7.86s.06-.06.06-.09-.03-.06-.06-.06-.06.04-.06.09.03.08.06.06ZM10.23,7.86s.06,0,.06-.06c0-.1-.04-.12-.09-.04-.02.03,0,.07.03.09ZM10.47,7.85s.07,0,.09-.02c.02-.03,0-.07-.02-.09-.03-.02-.07,0-.09.02-.02.03,0,.07.02.09ZM11.01,7.86s.06-.06.06-.09-.03-.06-.06-.06-.06.04-.06.09.03.08.06.06ZM11.25,7.86s.06,0,.06-.06c0-.1-.04-.12-.09-.04-.02.03,0,.07.03.09ZM13.3,7.86s.06,0,.06-.06-.03-.09-.06-.09-.06.03-.06.06.03.07.06.09ZM13.54,7.86s.06,0,.06-.06c0-.1-.04-.12-.09-.04-.02.03,0,.07.03.09ZM14.02,7.85s.07,0,.09-.02c.02-.03,0-.07-.02-.09-.03-.02-.07,0-.09.02-.02.03,0,.07.02.09ZM14.32,7.83s.06-.03.06-.06-.03-.06-.06-.06-.06.03-.06.06.03.06.06.06ZM14.8,7.86s.06,0,.06-.06c0-.1-.04-.12-.09-.04-.02.03,0,.07.03.09ZM15.04,7.85s.07,0,.09-.02c.02-.03,0-.07-.02-.09-.03-.02-.07,0-.09.02-.02.03,0,.07.02.09ZM15.59,7.86s.05-.06.03-.09c-.05-.08-.09-.07-.09.04,0,.05.03.08.06.06ZM15.82,7.86s.06,0,.06-.06c0-.1-.04-.12-.09-.04-.02.03,0,.07.03.09ZM16.3,7.85s.07,0,.09-.02c.02-.03,0-.07-.02-.09-.03-.02-.07,0-.09.02-.02.03,0,.07.02.09ZM16.61,7.86s.06,0,.06-.06-.03-.09-.06-.09-.06.03-.06.06.03.07.06.09ZM17.09,7.86s.06,0,.06-.06-.03-.09-.06-.09-.06.03-.06.06.03.07.06.09ZM17.32,7.85s.07,0,.09-.02c.02-.03,0-.07-.02-.09-.03-.02-.07,0-.09.02-.02.03,0,.07.02.09ZM3.34,11.13c.25-.95.88-2.17,1.46-2.83.15-.17.24-.3.22-.3-.03,0-.16.14-.3.31-3.55,4.43-1.32,11.05,4.19,12.4.66.16,2.19.34,2.1.25-.02-.02-.34-.06-.72-.09-4.96-.46-8.19-5-6.94-9.75ZM8.24,8.12s.06-.03.06-.06-.03-.06-.06-.06-.06.03-.06.06.03.06.06.06ZM8.73,8.12s.06-.03.06-.06-.03-.06-.06-.06-.06.03-.06.06.03.06.06.06ZM8.97,8.12s.06-.03.06-.06-.03-.06-.06-.06-.06.03-.06.06.03.06.06.06ZM9.51,8.12s.06-.03.06-.06-.04-.06-.09-.06-.08.03-.06.06.06.06.09.06ZM9.75,8.12s.06-.03.06-.06-.03-.06-.06-.06-.06.03-.06.06.03.06.06.06ZM10.23,8.12s.06-.03.06-.06-.03-.06-.06-.06-.06.03-.06.06.03.06.06.06ZM10.53,8.12s.06-.03.06-.06-.04-.06-.09-.06-.08.03-.06.06c.02.03.06.06.09.06ZM11.01,8.12s.06-.03.06-.06-.03-.06-.06-.06-.06.03-.06.06.03.06.06.06ZM11.25,8.12s.06-.03.06-.06-.03-.06-.06-.06-.06.03-.06.06.03.06.06.06ZM11.8,8.12s.06-.03.06-.06-.04-.06-.09-.06-.08.03-.06.06c.02.03.06.06.09.06ZM12.03,8.12s.06-.03.06-.06-.03-.06-.06-.06-.06.03-.06.06.03.06.06.06ZM13.3,8.12s.06-.03.06-.06-.03-.06-.06-.06-.06.03-.06.06.03.06.06.06ZM13.54,8.12s.06-.03.06-.06-.03-.06-.06-.06-.06.03-.06.06.03.06.06.06ZM14.08,8.12s.06-.03.06-.06-.04-.06-.09-.06-.08.03-.06.06c.02.03.06.06.09.06ZM14.32,8.12s.06-.03.06-.06-.03-.06-.06-.06-.06.03-.06.06.03.06.06.06ZM14.8,8.12s.06-.03.06-.06-.03-.06-.06-.06-.06.03-.06.06.03.06.06.06ZM15.11,8.12s.06-.03.06-.06-.04-.06-.09-.06-.08.03-.06.06c.02.03.06.06.09.06ZM15.58,8.12s.06-.03.06-.06-.03-.06-.06-.06-.06.03-.06.06.03.06.06.06ZM15.83,8.12s.06-.03.06-.06-.03-.06-.06-.06-.06.03-.06.06.03.06.06.06ZM16.28,8.07c.03.06.15.03.15-.03,0-.01-.04-.03-.09-.03s-.08.03-.06.06ZM16.61,8.12s.06-.03.06-.06-.03-.06-.06-.06-.06.03-.06.06.03.06.06.06ZM17.09,8.12s.06-.03.06-.06-.03-.06-.06-.06-.06.03-.06.06.03.06.06.06ZM17.39,8.12s.06-.03.06-.06-.04-.06-.09-.06-.08.03-.06.06c.02.03.06.06.09.06ZM17.87,8.12s.06-.03.06-.06-.03-.06-.06-.06-.06.03-.06.06.03.06.06.06ZM18.89,8.12s.06-.03.06-.06-.03-.06-.06-.06-.06.03-.06.06.03.06.06.06ZM19.38,8.12s.06-.03.06-.06-.03-.06-.06-.06-.06.03-.06.06.03.06.06.06ZM19.61,8.12s.07-.03.09-.06c.02-.03,0-.06-.06-.06s-.09.03-.09.06.03.06.06.06ZM20.16,8.12s.06-.03.06-.06-.03-.06-.06-.06-.06.03-.06.06.03.06.06.06ZM20.4,8.12s.06-.03.06-.06-.03-.06-.06-.06-.06.03-.06.06.03.06.06.06ZM8.73,8.72s.06-.03.06-.06-.03-.06-.06-.06-.06.03-.06.06.03.06.06.06ZM8.97,8.72s.06-.03.06-.06-.03-.06-.06-.06-.06.03-.06.06.03.06.06.06ZM9.51,8.72s.06-.03.06-.06-.03-.06-.06-.06-.06.03-.06.06.03.06.06.06ZM9.75,8.72s.06-.03.06-.06-.03-.06-.06-.06-.06.03-.06.06.03.06.06.06ZM10.23,8.72s.06-.03.06-.06-.03-.06-.06-.06-.06.03-.06.06.03.06.06.06ZM10.53,8.72s.06-.03.06-.06-.03-.06-.06-.06-.06.03-.06.06.03.06.06.06ZM11.01,8.72s.06-.03.06-.06-.03-.06-.06-.06-.06.03-.06.06.03.06.06.06ZM11.25,8.72s.06-.03.06-.06-.03-.06-.06-.06-.06.03-.06.06.03.06.06.06ZM11.8,8.72s.06-.03.06-.06-.04-.06-.09-.06-.08.03-.06.06c.02.03.06.06.09.06ZM12.03,8.72s.06-.03.06-.06-.03-.06-.06-.06-.06.03-.06.06.03.06.06.06ZM13.3,8.72s.06-.03.06-.06-.03-.06-.06-.06-.06.03-.06.06.03.06.06.06ZM13.54,8.72s.06-.03.06-.06-.03-.06-.06-.06-.06.03-.06.06.03.06.06.06ZM14.08,8.72s.06-.03.06-.06-.03-.06-.06-.06-.06.03-.06.06.03.06.06.06ZM14.32,8.72s.06-.03.06-.06-.03-.06-.06-.06-.06.03-.06.06.03.06.06.06ZM14.8,8.72s.06-.03.06-.06-.03-.06-.06-.06-.06.03-.06.06.03.06.06.06ZM15.11,8.72s.06-.03.06-.06-.04-.06-.09-.06-.08.03-.06.06c.02.03.06.06.09.06ZM15.58,8.72s.06-.03.06-.06-.03-.06-.06-.06-.06.03-.06.06.03.06.06.06ZM15.83,8.72s.06-.03.06-.06-.03-.06-.06-.06-.06.03-.06.06.03.06.06.06ZM16.28,8.66c.03.06.15.03.15-.03,0-.01-.04-.03-.09-.03s-.08.03-.06.06ZM16.61,8.72s.06-.03.06-.06-.03-.06-.06-.06-.06.03-.06.06.03.06.06.06ZM17.09,8.72s.06-.03.06-.06-.03-.06-.06-.06-.06.03-.06.06.03.06.06.06ZM17.39,8.72s.06-.03.06-.06-.04-.06-.09-.06-.08.03-.06.06c.02.03.06.06.09.06ZM17.87,8.72s.06-.03.06-.06-.03-.06-.06-.06-.06.03-.06.06.03.06.06.06ZM18.89,8.72s.06-.03.06-.06-.03-.06-.06-.06-.06.03-.06.06.03.06.06.06ZM19.38,8.72s.06-.03.06-.06-.03-.06-.06-.06-.06.03-.06.06.03.06.06.06ZM19.59,8.66c.03.06.15.03.15-.03,0-.01-.04-.03-.09-.03s-.08.03-.06.06ZM20.16,8.72s.06-.03.06-.06-.03-.06-.06-.06-.06.03-.06.06.03.06.06.06ZM20.4,8.72s.06-.03.06-.06-.03-.06-.06-.06-.06.03-.06.06.03.06.06.06ZM20.85,8.66c.03.06.15.03.15-.03,0-.01-.04-.03-.09-.03s-.08.03-.06.06ZM9.48,8.96c.05,0,.08-.03.06-.06-.02-.03-.05-.06-.06-.06s-.04.03-.06.06,0,.06.06.06ZM9.75,8.96s.06-.03.06-.06-.03-.06-.06-.06-.06.03-.06.06.03.06.06.06ZM10.23,8.96s.06-.03.06-.06-.03-.06-.06-.06-.06.03-.06.06.03.06.06.06ZM10.5,8.96c.05,0,.08-.03.06-.06-.02-.03-.05-.06-.06-.06s-.04.03-.06.06c-.02.03,0,.06.06.06ZM11.01,8.96s.06-.03.06-.06-.03-.06-.06-.06-.06.03-.06.06.03.06.06.06ZM11.25,8.96s.06-.03.06-.06-.03-.06-.06-.06-.06.03-.06.06.03.06.06.06ZM11.76,8.96c.05,0,.08-.03.06-.06-.02-.03-.05-.06-.06-.06s-.04.03-.06.06c-.02.03,0,.06.06.06ZM12.03,8.96s.06-.03.06-.06-.03-.06-.06-.06-.06.03-.06.06.03.06.06.06ZM12.52,8.96s.06-.03.06-.06-.03-.06-.06-.06-.06.03-.06.06.03.06.06.06ZM13.54,8.96s.06-.03.06-.06-.03-.06-.06-.06-.06.03-.06.06.03.06.06.06ZM14.05,8.96c.05,0,.08-.03.06-.06-.02-.03-.05-.06-.06-.06s-.04.03-.06.06c-.02.03,0,.06.06.06ZM14.32,8.96s.06-.03.06-.06-.03-.06-.06-.06-.06.03-.06.06.03.06.06.06ZM14.8,8.96s.06-.03.06-.06-.03-.06-.06-.06-.06.03-.06.06.03.06.06.06ZM15.07,8.96c.05,0,.08-.03.06-.06s-.05-.06-.06-.06-.04.03-.06.06c-.02.03,0,.06.06.06ZM15.58,8.96s.06-.03.06-.06-.03-.06-.06-.06-.06.03-.06.06.03.06.06.06ZM15.83,8.96s.06-.03.06-.06-.03-.06-.06-.06-.06.03-.06.06.03.06.06.06ZM16.34,8.96c.05,0,.08-.03.06-.06-.02-.03-.05-.06-.06-.06s-.04.03-.06.06c-.02.03,0,.06.06.06ZM16.61,8.96s.06-.03.06-.06-.03-.06-.06-.06-.06.03-.06.06.03.06.06.06ZM17.09,8.96s.06-.03.06-.06-.03-.06-.06-.06-.06.03-.06.06.03.06.06.06ZM17.36,8.96c.05,0,.08-.03.06-.06-.02-.03-.05-.06-.06-.06s-.04.03-.06.06c-.02.03,0,.06.06.06ZM17.87,8.96s.06-.03.06-.06-.03-.06-.06-.06-.06.03-.06.06.03.06.06.06ZM18.11,8.96s.06-.03.06-.06-.03-.06-.06-.06-.06.03-.06.06.03.06.06.06ZM19.38,8.96s.06-.03.06-.06-.03-.06-.06-.06-.06.03-.06.06.03.06.06.06ZM19.65,8.96c.05,0,.08-.03.06-.06-.02-.03-.05-.06-.06-.06s-.04.03-.06.06c-.02.03,0,.06.06.06ZM20.16,8.96s.06-.03.06-.06-.03-.06-.06-.06-.06.03-.06.06.03.06.06.06ZM20.4,8.96s.06-.03.06-.06-.03-.06-.06-.06-.06.03-.06.06.03.06.06.06ZM10.53,9.26s.06-.03.06-.06-.03-.06-.06-.06-.06.03-.06.06.03.06.06.06ZM11.01,9.26s.06-.03.06-.06-.03-.06-.06-.06-.06.03-.06.06.03.06.06.06ZM11.25,9.26s.06-.03.06-.06-.03-.06-.06-.06-.06.03-.06.06.03.06.06.06ZM11.7,9.2c.03.06.15.03.15-.03,0-.01-.04-.03-.09-.03s-.08.03-.06.06ZM12.03,9.26s.06-.03.06-.06-.03-.06-.06-.06-.06.03-.06.06.03.06.06.06ZM12.52,9.26s.06-.03.06-.06-.03-.06-.06-.06-.06.03-.06.06.03.06.06.06ZM13.54,9.26s.06-.03.06-.06-.03-.06-.06-.06-.06.03-.06.06.03.06.06.06ZM13.99,9.2c.03.06.15.03.15-.03,0-.01-.04-.03-.09-.03s-.08.03-.06.06ZM14.32,9.26s.06-.03.06-.06-.03-.06-.06-.06-.06.03-.06.06.03.06.06.06ZM15.1,9.26s.06-.03.06-.06-.03-.06-.06-.06-.06.03-.06.06.03.06.06.06ZM15.58,9.26s.06-.03.06-.06-.03-.06-.06-.06-.06.03-.06.06.03.06.06.06ZM15.83,9.26s.06-.03.06-.06-.03-.06-.06-.06-.06.03-.06.06.03.06.06.06ZM16.28,9.2c.03.06.15.03.15-.03,0-.01-.04-.03-.09-.03s-.08.03-.06.06ZM16.61,9.26s.06-.03.06-.06-.03-.06-.06-.06-.06.03-.06.06.03.06.06.06ZM17.09,9.26s.06-.03.06-.06-.03-.06-.06-.06-.06.03-.06.06.03.06.06.06ZM17.3,9.2c.03.06.15.03.15-.03,0-.01-.04-.03-.09-.03s-.08.03-.06.06ZM17.87,9.26s.06-.03.06-.06-.03-.06-.06-.06-.06.03-.06.06.03.06.06.06ZM18.11,9.26s.06-.03.06-.06-.03-.06-.06-.06-.06.03-.06.06.03.06.06.06ZM19.38,9.26s.06-.03.06-.06-.03-.06-.06-.06-.06.03-.06.06.03.06.06.06ZM19.59,9.2c.03.06.15.03.15-.03,0-.01-.04-.03-.09-.03s-.08.03-.06.06ZM11.25,9.5s.06-.03.06-.06-.03-.06-.06-.06-.06.03-.06.06.03.06.06.06ZM11.76,9.5c.05,0,.08-.03.06-.06-.02-.03-.05-.06-.06-.06s-.04.03-.06.06c-.02.03,0,.06.06.06ZM12.03,9.5s.06-.03.06-.06-.03-.06-.06-.06-.06.03-.06.06.03.06.06.06ZM12.52,9.5s.06-.03.06-.06-.03-.06-.06-.06-.06.03-.06.06.03.06.06.06ZM13.54,9.5s.06-.03.06-.06-.03-.06-.06-.06-.06.03-.06.06.03.06.06.06ZM14.05,9.5c.05,0,.09-.03.09-.06s-.03-.06-.06-.06-.07.03-.09.06c-.02.03,0,.06.06.06ZM15.83,9.5s.06-.03.06-.06-.03-.06-.06-.06-.06.03-.06.06.03.06.06.06ZM16.34,9.5c.05,0,.08-.03.06-.06-.02-.03-.05-.06-.06-.06s-.04.03-.06.06c-.02.03,0,.06.06.06ZM16.61,9.5s.06-.03.06-.06-.03-.06-.06-.06-.06.03-.06.06.03.06.06.06ZM17.09,9.5s.06-.03.06-.06-.03-.06-.06-.06-.06.03-.06.06.03.06.06.06ZM17.36,9.5c.05,0,.08-.03.06-.06-.02-.03-.05-.06-.06-.06s-.04.03-.06.06c-.02.03,0,.06.06.06ZM17.87,9.5s.06-.03.06-.06-.03-.06-.06-.06-.06.03-.06.06.03.06.06.06ZM18.11,9.5s.06-.03.06-.06-.03-.06-.06-.06-.06.03-.06.06.03.06.06.06ZM9.75,10.09s.06-.03.06-.06-.03-.06-.06-.06-.06.03-.06.06.03.06.06.06ZM10.23,10.09s.06-.03.06-.06-.03-.06-.06-.06-.06.03-.06.06.03.06.06.06ZM11.76,10.09c.05,0,.08-.03.06-.06-.02-.03-.05-.06-.06-.06s-.04.03-.06.06c-.02.03,0,.06.06.06ZM12.03,10.09s.06-.03.06-.06-.03-.06-.06-.06-.06.03-.06.06.03.06.06.06ZM13.54,10.09s.06-.03.06-.06-.03-.06-.06-.06-.06.03-.06.06.03.06.06.06ZM14.05,10.09c.05,0,.08-.03.06-.06-.02-.03-.05-.06-.06-.06s-.04.03-.06.06c-.02.03,0,.06.06.06ZM15.83,10.09s.06-.03.06-.06-.03-.06-.06-.06-.06.03-.06.06.03.06.06.06ZM16.34,10.09c.05,0,.08-.03.06-.06-.02-.03-.05-.06-.06-.06s-.04.03-.06.06c-.02.03,0,.06.06.06ZM16.61,10.09s.06-.03.06-.06-.03-.06-.06-.06-.06.03-.06.06.03.06.06.06ZM17.09,10.09s.06-.03.06-.06-.03-.06-.06-.06-.06.03-.06.06.03.06.06.06ZM17.36,10.09c.05,0,.09-.03.09-.06s-.03-.06-.06-.06-.07.03-.09.06c-.02.03,0,.06.06.06ZM17.87,10.09s.06-.03.06-.06-.03-.06-.06-.06-.06.03-.06.06.03.06.06.06ZM18.11,10.09s.06-.03.06-.06-.03-.06-.06-.06-.06.03-.06.06.03.06.06.06ZM18.62,10.09c.05,0,.08-.03.06-.06-.02-.03-.05-.06-.06-.06s-.04.03-.06.06c-.02.03,0,.06.06.06ZM8.97,10.39s.06-.03.06-.06-.03-.06-.06-.06-.06.03-.06.06.03.06.06.06ZM9.42,10.33c.03.06.15.03.15-.03,0-.01-.04-.03-.09-.03s-.08.03-.06.06ZM9.75,10.39s.06-.03.06-.06-.03-.06-.06-.06-.06.03-.06.06.03.06.06.06ZM10.23,10.39s.06-.03.06-.06-.03-.06-.06-.06-.06.03-.06.06.03.06.06.06ZM10.44,10.33c.03.06.15.03.15-.03,0-.01-.04-.03-.09-.03s-.08.03-.06.06ZM13.3,10.39s.06-.03.06-.06-.03-.06-.06-.06-.06.03-.06.06.03.06.06.06ZM13.54,10.39s.06-.03.06-.06-.03-.06-.06-.06-.06.03-.06.06.03.06.06.06ZM13.99,10.33c.03.06.15.03.15-.03,0-.01-.04-.03-.09-.03s-.08.03-.06.06ZM14.32,10.39s.06-.03.06-.06-.03-.06-.06-.06-.06.03-.06.06.03.06.06.06ZM14.8,10.39s.06-.03.06-.06-.03-.06-.06-.06-.06.03-.06.06.03.06.06.06ZM15.83,10.39s.06-.03.06-.06-.03-.06-.06-.06-.06.03-.06.06.03.06.06.06ZM16.28,10.33c.03.06.15.03.15-.03,0-.01-.04-.03-.09-.03s-.08.03-.06.06ZM16.61,10.39s.06-.03.06-.06-.03-.06-.06-.06-.06.03-.06.06.03.06.06.06ZM17.09,10.39s.06-.03.06-.06-.03-.06-.06-.06-.06.03-.06.06.03.06.06.06ZM17.3,10.33c.03.06.15.03.15-.03,0-.01-.04-.03-.09-.03s-.08.03-.06.06ZM17.87,10.39s.06-.03.06-.06-.03-.06-.06-.06-.06.03-.06.06.03.06.06.06ZM18.11,10.39s.06-.03.06-.06-.03-.06-.06-.06-.06.03-.06.06.03.06.06.06ZM18.56,10.33c.03.06.15.03.15-.03,0-.01-.04-.03-.09-.03s-.08.03-.06.06ZM7.94,10.63s.06-.03.06-.06-.03-.06-.06-.06-.06.03-.06.06.03.06.06.06ZM8.24,10.63s.06-.03.06-.06-.03-.06-.06-.06-.06.03-.06.06.03.06.06.06ZM8.73,10.63s.06-.03.06-.06-.03-.06-.06-.06-.06.03-.06.06.03.06.06.06ZM8.97,10.63s.06-.03.06-.06-.03-.06-.06-.06-.06.03-.06.06.03.06.06.06ZM9.51,10.63s.06-.03.06-.06-.03-.06-.06-.06-.06.03-.06.06.03.06.06.06ZM9.75,10.63s.06-.03.06-.06-.03-.06-.06-.06-.06.03-.06.06.03.06.06.06ZM10.23,10.63s.06-.03.06-.06-.03-.06-.06-.06-.06.03-.06.06.03.06.06.06ZM10.5,10.63c.05,0,.09-.03.09-.06s-.03-.06-.06-.06-.07.03-.09.06c-.02.03,0,.06.06.06ZM11.01,10.63s.06-.03.06-.06-.03-.06-.06-.06-.06.03-.06.06.03.06.06.06ZM11.25,10.63s.06-.03.06-.06-.03-.06-.06-.06-.06.03-.06.06.03.06.06.06ZM12.82,10.63s.06-.03.06-.06-.03-.06-.06-.06-.06.03-.06.06.03.06.06.06ZM13.3,10.63s.06-.03.06-.06-.03-.06-.06-.06-.06.03-.06.06.03.06.06.06ZM13.54,10.63s.06-.03.06-.06-.03-.06-.06-.06-.06.03-.06.06.03.06.06.06ZM14.05,10.63c.05,0,.09-.03.09-.06s-.03-.06-.06-.06-.07.03-.09.06c-.02.03,0,.06.06.06ZM14.32,10.63s.06-.03.06-.06-.03-.06-.06-.06-.06.03-.06.06.03.06.06.06ZM14.8,10.63s.06-.03.06-.06-.03-.06-.06-.06-.06.03-.06.06.03.06.06.06ZM15.07,10.63c.05,0,.09-.03.09-.06s-.03-.06-.06-.06-.07.03-.09.06c-.02.03,0,.06.06.06ZM15.58,10.63s.06-.03.06-.06-.03-.06-.06-.06-.06.03-.06.06.03.06.06.06ZM15.83,10.63s.06-.03.06-.06-.03-.06-.06-.06-.06.03-.06.06.03.06.06.06ZM16.33,10.63c.05,0,.09-.03.09-.06s-.03-.06-.06-.06-.07.03-.09.06c-.02.03,0,.06.06.06ZM16.61,10.63s.06-.03.06-.06-.03-.06-.06-.06-.06.03-.06.06.03.06.06.06ZM17.09,10.63s.06-.03.06-.06-.03-.06-.06-.06-.06.03-.06.06.03.06.06.06ZM17.36,10.63c.05,0,.09-.03.09-.06s-.03-.06-.06-.06-.07.03-.09.06c-.02.03,0,.06.06.06ZM17.87,10.63s.06-.03.06-.06-.03-.06-.06-.06-.06.03-.06.06.03.06.06.06ZM18.11,10.63s.06-.03.06-.06-.03-.06-.06-.06-.06.03-.06.06.03.06.06.06ZM18.62,10.63c.05,0,.08-.03.06-.06-.02-.03-.05-.06-.06-.06s-.04.03-.06.06c-.02.03,0,.06.06.06ZM18.89,10.63s.06-.03.06-.06-.03-.06-.06-.06-.06.03-.06.06.03.06.06.06ZM6.67,10.89s.07,0,.09-.02c.02-.03,0-.07-.02-.09-.03-.02-.07,0-.09.02-.02.03,0,.07.02.09ZM7.16,10.89s.07,0,.09-.02c.02-.03,0-.07-.02-.09-.03-.02-.07,0-.09.02-.02.03,0,.07.02.09ZM7.94,10.9s.06,0,.06-.06c0-.1-.04-.12-.09-.04-.02.03,0,.07.03.09ZM8.18,10.89s.07,0,.09-.02c.02-.03,0-.07-.02-.09-.03-.02-.07,0-.09.02-.02.03,0,.07.02.09ZM8.97,10.9s.06,0,.06-.06c0-.1-.04-.12-.09-.04-.02.03,0,.07.03.09ZM9.44,10.89s.07,0,.09-.02c.02-.03,0-.07-.02-.09-.03-.02-.07,0-.09.02-.02.03,0,.07.02.09ZM10.47,10.89s.07,0,.09-.02c.02-.03,0-.07-.02-.09-.03-.02-.07,0-.09.02-.02.03,0,.07.02.09ZM11.73,10.89s.07,0,.09-.02c.02-.03,0-.07-.02-.09-.03-.02-.07,0-.09.02-.02.03,0,.07.02.09ZM12.52,10.9s.06,0,.06-.06c0-.1-.04-.12-.09-.04-.02.03,0,.07.03.09ZM12.75,10.89s.07,0,.09-.02c.02-.03,0-.07-.02-.09-.03-.02-.07,0-.09.02-.02.03,0,.07.02.09ZM14.02,10.89s.07,0,.09-.02c.02-.03,0-.07-.02-.09-.03-.02-.07,0-.09.02-.02.03,0,.07.02.09ZM14.32,10.93s.06-.03.06-.06-.03-.07-.06-.09c-.03-.02-.06,0-.06.06s.03.09.06.09ZM14.8,10.9s.06,0,.06-.06c0-.1-.04-.12-.09-.04-.02.03,0,.07.03.09ZM15.04,10.89s.07,0,.09-.02c.02-.03,0-.07-.02-.09-.03-.02-.07,0-.09.02-.02.03,0,.07.02.09ZM15.8,10.8c-.05.08,0,.17.06.11.02-.02.03-.07.01-.11-.02-.06-.03-.06-.07,0ZM16.3,10.89s.07,0,.09-.02c.02-.03,0-.07-.02-.09-.03-.02-.07,0-.09.02-.02.03,0,.07.02.09ZM17.06,10.8c-.05.08,0,.17.06.11.02-.02.02-.07.01-.11-.02-.06-.03-.06-.07,0ZM17.32,10.89s.07,0,.09-.02c.02-.03,0-.07-.02-.09-.03-.02-.07,0-.09.02-.02.03,0,.07.02.09ZM17.87,10.9s.05-.06.03-.09c-.05-.08-.09-.07-.09.04,0,.05.03.08.06.06ZM18.59,10.89s.07,0,.09-.02c.02-.03,0-.07-.02-.09-.03-.02-.07,0-.09.02-.02.03,0,.07.02.09ZM7.46,10.93s.06-.03.06-.06-.03-.06-.06-.06-.06.03-.06.06.03.06.06.06ZM8.73,10.93s.06-.03.06-.06-.03-.06-.06-.06-.06.03-.06.06.03.06.06.06ZM9.75,10.93s.06-.03.06-.06-.03-.06-.06-.06-.06.03-.06.06.03.06.06.06ZM10.26,10.93s.03-.03.03-.06-.03-.06-.06-.06-.05.03-.03.06c.02.03.05.06.06.06ZM11.01,10.93s.06-.03.06-.06-.03-.06-.06-.06-.06.03-.06.06.03.06.06.06ZM11.29,10.93s.03-.03.03-.06-.03-.06-.06-.06-.05.03-.03.06c.02.03.05.06.06.06ZM12.03,10.93s.06-.03.06-.06-.03-.06-.06-.06-.06.03-.06.06.03.06.06.06ZM13.3,10.93s.06-.03.06-.06-.03-.06-.06-.06-.06.03-.06.06.03.06.06.06ZM13.57,10.93s.03-.03.03-.06-.03-.06-.06-.06-.05.03-.03.06c.02.03.05.06.06.06ZM15.58,10.93s.06-.03.06-.06-.03-.06-.06-.06-.06.03-.06.06.03.06.06.06ZM16.61,10.93s.06-.03.06-.06-.03-.06-.06-.06-.06.03-.06.06.03.06.06.06ZM18.11,10.93s.06-.03.06-.06-.03-.06-.06-.06-.06.03-.06.06.03.06.06.06ZM18.89,10.93s.06-.03.06-.06-.03-.06-.06-.06-.06.03-.06.06.03.06.06.06ZM5.65,11.49s.07,0,.09-.02c.02-.03,0-.07-.02-.09-.03-.02-.07,0-.09.02-.02.03,0,.07.02.09ZM5.96,11.49s.05-.06.03-.09c-.05-.08-.09-.07-.09.04,0,.05.03.08.06.06ZM6.67,11.49s.07,0,.09-.02c.02-.03,0-.07-.02-.09-.03-.02-.07,0-.09.02-.02.03,0,.07.02.09ZM7.16,11.49s.07,0,.09-.02c.02-.03,0-.07-.02-.09-.03-.02-.07,0-.09.02-.02.03,0,.07.02.09ZM7.94,11.49s.07,0,.09-.02c.02-.03,0-.07-.02-.09-.03-.02-.07,0-.09.02-.02.03,0,.07.02.09ZM8.24,11.49s.05-.06.03-.09c-.05-.08-.09-.07-.09.04,0,.05.03.08.06.06ZM8.97,11.49s.06,0,.06-.06c0-.1-.04-.12-.09-.04-.02.03,0,.07.03.09ZM9.51,11.49s.05-.06.03-.09c-.05-.08-.09-.07-.09.04,0,.05.03.08.06.06ZM10.2,11.4c-.05.08,0,.17.06.11.02-.02.03-.07.01-.11-.02-.06-.03-.06-.07,0ZM10.47,11.49s.07,0,.09-.02c.02-.03,0-.07-.02-.09-.03-.02-.07,0-.09.02-.02.03,0,.07.02.09ZM11.25,11.49s.06,0,.06-.06c0-.1-.04-.12-.09-.04-.02.03,0,.07.03.09ZM11.73,11.49s.07,0,.09-.02c.02-.03,0-.07-.02-.09-.03-.02-.07,0-.09.02-.02.03,0,.07.02.09ZM12.52,11.49s.06,0,.06-.06c0-.1-.04-.12-.09-.04-.02.03,0,.07.03.09ZM12.82,11.49s.05-.06.03-.09c-.05-.08-.09-.07-.09.04,0,.05.03.08.06.06ZM14.02,11.49s.07,0,.09-.02c.02-.03,0-.07-.02-.09-.03-.02-.07,0-.09.02-.02.03,0,.07.02.09ZM14.8,11.49s.06,0,.06-.06c0-.1-.04-.12-.09-.04-.02.03,0,.07.03.09ZM16.3,11.49s.07,0,.09-.02c.02-.03,0-.07-.02-.09-.03-.02-.07,0-.09.02-.02.03,0,.07.02.09ZM17.06,11.4c-.05.08,0,.17.06.11.02-.02.02-.07.01-.11-.02-.06-.03-.06-.07,0ZM17.32,11.49s.07,0,.09-.02c.02-.03,0-.07-.02-.09-.03-.02-.07,0-.09.02-.02.03,0,.07.02.09ZM17.87,11.52s.06-.03.06-.06-.03-.07-.06-.09-.06,0-.06.06.03.09.06.09ZM18.09,11.4c-.05.08,0,.17.06.11.02-.02.02-.07.01-.11-.02-.06-.03-.06-.07,0ZM18.59,11.49s.07,0,.09-.02c.02-.03,0-.07-.02-.09-.03-.02-.07,0-.09.02-.02.03,0,.07.02.09ZM18.89,11.52s.06-.03.06-.06-.03-.07-.06-.09-.06,0-.06.06.03.09.06.09ZM19.35,11.4c-.05.08,0,.17.06.11.02-.02.02-.07.01-.11-.02-.06-.03-.06-.07,0ZM6.44,11.52s.06-.03.06-.06-.03-.06-.06-.06-.06.03-.06.06.03.06.06.06ZM7.46,11.52s.06-.03.06-.06-.03-.06-.06-.06-.06.03-.06.06.03.06.06.06ZM8.73,11.52s.06-.03.06-.06-.03-.06-.06-.06-.06.03-.06.06.03.06.06.06ZM9.75,11.52s.06-.03.06-.06-.03-.06-.06-.06-.06.03-.06.06.03.06.06.06ZM11.01,11.52s.06-.03.06-.06-.03-.06-.06-.06-.06.03-.06.06.03.06.06.06ZM12.03,11.52s.06-.03.06-.06-.03-.06-.06-.06-.06.03-.06.06.03.06.06.06ZM13.3,11.52s.06-.03.06-.06-.03-.06-.06-.06-.06.03-.06.06.03.06.06.06ZM13.57,11.52s.03-.03.03-.06-.03-.06-.06-.06-.05.03-.03.06c.02.03.05.06.06.06ZM14.32,11.52s.06-.03.06-.06-.03-.06-.06-.06-.06.03-.06.06.03.06.06.06ZM15.01,11.46c.03.06.15.03.15-.03,0-.01-.04-.03-.09-.03s-.08.03-.06.06ZM15.58,11.52s.06-.03.06-.06-.03-.06-.06-.06-.06.03-.06.06.03.06.06.06ZM15.86,11.52s.03-.03.03-.06-.03-.06-.06-.06-.05.03-.03.06c.02.03.05.06.06.06ZM16.61,11.52s.06-.03.06-.06-.03-.06-.06-.06-.06.03-.06.06.03.06.06.06ZM5.66,11.76s.06-.03.06-.06-.03-.06-.06-.06-.06.03-.06.06.03.06.06.06ZM5.96,11.76s.06-.03.06-.06-.03-.06-.06-.06-.06.03-.06.06.03.06.06.06ZM6.44,11.76s.06-.03.06-.06-.03-.06-.06-.06-.06.03-.06.06.03.06.06.06ZM6.68,11.76s.06-.03.06-.06-.03-.06-.06-.06-.06.03-.06.06.03.06.06.06ZM7.22,11.76s.06-.03.06-.06-.03-.06-.06-.06-.06.03-.06.06.03.06.06.06ZM7.46,11.76s.06-.03.06-.06-.03-.06-.06-.06-.06.03-.06.06.03.06.06.06ZM7.94,11.76s.06-.03.06-.06-.03-.06-.06-.06-.06.03-.06.06.03.06.06.06ZM8.24,11.76s.06-.03.06-.06-.03-.06-.06-.06-.06.03-.06.06.03.06.06.06ZM8.73,11.76s.06-.03.06-.06-.03-.06-.06-.06-.06.03-.06.06.03.06.06.06ZM8.97,11.76s.06-.03.06-.06-.03-.06-.06-.06-.06.03-.06.06.03.06.06.06ZM9.51,11.76s.06-.03.06-.06-.03-.06-.06-.06-.06.03-.06.06.03.06.06.06ZM9.75,11.76s.06-.03.06-.06-.03-.06-.06-.06-.06.03-.06.06.03.06.06.06ZM10.23,11.76s.06-.03.06-.06-.03-.06-.06-.06-.06.03-.06.06.03.06.06.06ZM10.53,11.76s.06-.03.06-.06-.04-.06-.09-.06-.08.03-.06.06c.02.03.06.06.09.06ZM11.01,11.76s.06-.03.06-.06-.03-.06-.06-.06-.06.03-.06.06.03.06.06.06ZM11.25,11.76s.06-.03.06-.06-.03-.06-.06-.06-.06.03-.06.06.03.06.06.06ZM11.76,11.76s.09-.03.09-.06-.04-.06-.09-.06-.09.03-.09.06.04.06.09.06ZM12.03,11.76s.06-.03.06-.06-.03-.06-.06-.06-.06.03-.06.06.03.06.06.06ZM12.52,11.76s.06-.03.06-.06-.03-.06-.06-.06-.06.03-.06.06.03.06.06.06ZM12.82,11.76s.06-.03.06-.06-.03-.06-.06-.06-.06.03-.06.06.03.06.06.06ZM13.3,11.76s.06-.03.06-.06-.03-.06-.06-.06-.06.03-.06.06.03.06.06.06ZM13.54,11.76s.06-.03.06-.06-.03-.06-.06-.06-.06.03-.06.06.03.06.06.06ZM14.08,11.76s.06-.03.06-.06-.03-.06-.06-.06-.06.03-.06.06.03.06.06.06ZM14.32,11.76s.06-.03.06-.06-.03-.06-.06-.06-.06.03-.06.06.03.06.06.06ZM14.8,11.76s.06-.03.06-.06-.03-.06-.06-.06-.06.03-.06.06.03.06.06.06ZM15.1,11.76s.06-.03.06-.06-.03-.06-.06-.06-.06.03-.06.06.03.06.06.06ZM15.58,11.76s.06-.03.06-.06-.03-.06-.06-.06-.06.03-.06.06.03.06.06.06ZM15.83,11.76s.06-.03.06-.06-.03-.06-.06-.06-.06.03-.06.06.03.06.06.06ZM16.33,11.76c.05,0,.09-.03.09-.06s-.03-.06-.06-.06-.07.03-.09.06c-.02.03,0,.06.06.06ZM16.61,11.76s.06-.03.06-.06-.03-.06-.06-.06-.06.03-.06.06.03.06.06.06ZM17.09,11.76s.06-.03.06-.06-.03-.06-.06-.06-.06.03-.06.06.03.06.06.06ZM17.36,11.76s.09-.03.09-.06-.04-.06-.09-.06-.09.03-.09.06.04.06.09.06ZM17.87,11.76s.06-.03.06-.06-.03-.06-.06-.06-.06.03-.06.06.03.06.06.06ZM18.11,11.76s.06-.03.06-.06-.03-.06-.06-.06-.06.03-.06.06.03.06.06.06ZM18.62,11.76s.09-.03.09-.06-.04-.06-.09-.06-.09.03-.09.06.04.06.09.06ZM18.89,11.76s.06-.03.06-.06-.03-.06-.06-.06-.06.03-.06.06.03.06.06.06ZM19.38,11.76s.06-.03.06-.06-.03-.06-.06-.06-.06.03-.06.06.03.06.06.06ZM5.66,12.03s.06,0,.06-.06c0-.1-.04-.12-.09-.04-.02.03,0,.07.03.09ZM5.96,12.03s.05-.06.03-.09c-.05-.08-.09-.07-.09.04,0,.05.03.08.06.06ZM6.44,12s.06-.03.06-.06-.03-.06-.06-.06-.06.03-.06.06.03.06.06.06ZM6.67,12.03s.07,0,.09-.02c.02-.03,0-.07-.02-.09-.03-.02-.07,0-.09.02-.02.03,0,.07.02.09ZM7.16,12.03s.07,0,.09-.02c.02-.03,0-.07-.02-.09-.03-.02-.07,0-.09.02-.02.03,0,.07.02.09ZM7.46,12s.06-.03.06-.06-.03-.06-.06-.06-.06.03-.06.06.03.06.06.06ZM7.94,12.03s.06,0,.06-.06c0-.1-.04-.12-.09-.04-.02.03,0,.07.03.09ZM8.24,12.03s.05-.06.03-.09c-.05-.08-.09-.07-.09.04,0,.05.03.08.06.06ZM8.73,12.03s.06-.06.06-.09-.03-.06-.06-.06-.06.04-.06.09.03.08.06.06ZM8.97,12.03s.06,0,.06-.06c0-.1-.04-.12-.09-.04-.02.03,0,.07.03.09ZM9.44,12.03s.07,0,.09-.02c.02-.03,0-.07-.02-.09-.03-.02-.07,0-.09.02-.02.03,0,.07.02.09ZM9.75,12s.06-.03.06-.06-.03-.06-.06-.06-.06.03-.06.06.03.06.06.06ZM10.23,12.03s.06,0,.06-.06c0-.1-.04-.12-.09-.04-.02.03,0,.07.03.09ZM10.47,12.03s.07,0,.09-.02c.02-.03,0-.07-.02-.09-.03-.02-.07,0-.09.02-.02.03,0,.07.02.09ZM11.01,12.03s.06-.06.06-.09-.03-.06-.06-.06-.06.04-.06.09.03.08.06.06ZM11.25,12.03s.06,0,.06-.06c0-.1-.04-.12-.09-.04-.02.03,0,.07.03.09ZM11.73,12.03s.07,0,.09-.02c.02-.03,0-.07-.02-.09-.03-.02-.07,0-.09.02-.02.03,0,.07.02.09ZM12.03,12.03s.06-.06.06-.09-.03-.06-.06-.06-.06.04-.06.09.03.08.06.06ZM12.52,12.03s.06,0,.06-.06c0-.1-.04-.12-.09-.04-.02.03,0,.07.03.09ZM12.82,12.03s.05-.06.03-.09c-.05-.08-.09-.07-.09.04,0,.05.03.08.06.06ZM13.3,12.03s.06-.06.06-.09-.03-.06-.06-.06-.06.04-.06.09.03.08.06.06ZM13.54,12.03s.06,0,.06-.06c0-.1-.04-.12-.09-.04-.02.03,0,.07.03.09ZM14.02,12.03s.07,0,.09-.02c.02-.03,0-.07-.02-.09-.03-.02-.07,0-.09.02-.02.03,0,.07.02.09ZM14.32,12.03s.06-.06.06-.09-.03-.06-.06-.06-.06.04-.06.09.03.08.06.06ZM14.8,12.03s.06,0,.06-.06c0-.1-.04-.12-.09-.04-.02.03,0,.07.03.09ZM15.04,12.03s.07,0,.09-.02c.02-.03,0-.07-.02-.09-.03-.02-.07,0-.09.02-.02.03,0,.07.02.09ZM15.58,12.03s.06-.06.06-.09-.03-.06-.06-.06-.06.04-.06.09.03.08.06.06ZM15.82,12.03s.06,0,.06-.06c0-.1-.04-.12-.09-.04-.02.03,0,.07.03.09ZM16.3,12.03s.07,0,.09-.02c.02-.03,0-.07-.02-.09-.03-.02-.07,0-.09.02s0,.07.02.09ZM16.61,12.03s.06-.06.06-.09-.03-.06-.06-.06-.06.04-.06.09.03.08.06.06ZM17.09,12.03s.06,0,.06-.06c0-.1-.04-.12-.09-.04-.02.03,0,.07.03.09ZM17.32,12.03s.07,0,.09-.02c.02-.03,0-.07-.02-.09-.03-.02-.07,0-.09.02-.02.03,0,.07.02.09ZM17.87,12.03s.05-.06.03-.09c-.05-.08-.09-.07-.09.04,0,.05.03.08.06.06ZM18.11,12.03s.06,0,.06-.06-.03-.09-.06-.09-.06.03-.06.06.03.07.06.09ZM18.59,12.03s.07,0,.09-.02c.02-.03,0-.07-.02-.09-.03-.02-.07,0-.09.02-.02.03,0,.07.02.09ZM18.89,12.03s.06-.06.06-.09-.03-.06-.06-.06-.06.04-.06.09.03.08.06.06ZM19.38,12.03s.06,0,.06-.06-.03-.09-.06-.09-.06.03-.06.06.03.07.06.09ZM4.93,12.3s.06-.03.06-.06-.03-.06-.06-.06-.06.03-.06.06.03.06.06.06ZM5.18,12.3s.06-.03.06-.06-.03-.06-.06-.06-.06.03-.06.06.03.06.06.06ZM5.66,12.3s.06-.03.06-.06-.03-.06-.06-.06-.06.03-.06.06.03.06.06.06ZM5.96,12.3s.06-.03.06-.06-.03-.06-.06-.06-.06.03-.06.06.03.06.06.06ZM6.44,12.3s.06-.03.06-.06-.03-.06-.06-.06-.06.03-.06.06.03.06.06.06ZM6.68,12.3s.06-.03.06-.06-.03-.06-.06-.06-.06.03-.06.06.03.06.06.06ZM7.22,12.3s.06-.03.06-.06-.03-.06-.06-.06-.06.03-.06.06.03.06.06.06ZM7.46,12.3s.06-.03.06-.06-.03-.06-.06-.06-.06.03-.06.06.03.06.06.06ZM7.94,12.3s.06-.03.06-.06-.03-.06-.06-.06-.06.03-.06.06.03.06.06.06ZM8.24,12.3s.06-.03.06-.06-.03-.06-.06-.06-.06.03-.06.06.03.06.06.06ZM8.73,12.3s.06-.03.06-.06-.03-.06-.06-.06-.06.03-.06.06.03.06.06.06ZM8.97,12.3s.06-.03.06-.06-.03-.06-.06-.06-.06.03-.06.06.03.06.06.06ZM9.51,12.3s.06-.03.06-.06-.04-.06-.09-.06-.08.03-.06.06c.02.03.06.06.09.06ZM9.75,12.3s.06-.03.06-.06-.03-.06-.06-.06-.06.03-.06.06.03.06.06.06ZM10.23,12.3s.06-.03.06-.06-.03-.06-.06-.06-.06.03-.06.06.03.06.06.06ZM10.53,12.3s.06-.03.06-.06-.03-.06-.06-.06-.06.03-.06.06.03.06.06.06ZM11.01,12.3s.06-.03.06-.06-.03-.06-.06-.06-.06.03-.06.06.03.06.06.06ZM11.25,12.3s.06-.03.06-.06-.03-.06-.06-.06-.06.03-.06.06.03.06.06.06ZM11.7,12.24c.03.06.15.03.15-.03,0-.01-.04-.03-.09-.03s-.08.03-.06.06ZM12.03,12.3s.06-.03.06-.06-.03-.06-.06-.06-.06.03-.06.06.03.06.06.06ZM12.52,12.3s.06-.03.06-.06-.03-.06-.06-.06-.06.03-.06.06.03.06.06.06ZM12.82,12.3s.06-.03.06-.06-.03-.06-.06-.06-.06.03-.06.06.03.06.06.06ZM13.3,12.3s.06-.03.06-.06-.03-.06-.06-.06-.06.03-.06.06.03.06.06.06ZM13.54,12.3s.06-.03.06-.06-.03-.06-.06-.06-.06.03-.06.06.03.06.06.06ZM14.08,12.3s.06-.03.06-.06-.04-.06-.09-.06-.08.03-.06.06c.02.03.06.06.09.06ZM14.32,12.3s.06-.03.06-.06-.03-.06-.06-.06-.06.03-.06.06.03.06.06.06ZM14.8,12.3s.06-.03.06-.06-.03-.06-.06-.06-.06.03-.06.06.03.06.06.06ZM15.1,12.3s.06-.03.06-.06-.03-.06-.06-.06-.06.03-.06.06.03.06.06.06ZM15.58,12.3s.06-.03.06-.06-.03-.06-.06-.06-.06.03-.06.06.03.06.06.06ZM15.83,12.3s.06-.03.06-.06-.03-.06-.06-.06-.06.03-.06.06.03.06.06.06ZM16.28,12.24c.03.06.15.03.15-.03,0-.01-.04-.03-.09-.03s-.08.03-.06.06ZM16.61,12.3s.06-.03.06-.06-.03-.06-.06-.06-.06.03-.06.06.03.06.06.06ZM17.09,12.3s.06-.03.06-.06-.03-.06-.06-.06-.06.03-.06.06.03.06.06.06ZM17.39,12.3s.06-.03.06-.06-.04-.06-.09-.06-.08.03-.06.06c.02.03.06.06.09.06ZM17.87,12.3s.06-.03.06-.06-.03-.06-.06-.06-.06.03-.06.06.03.06.06.06ZM18.11,12.3s.06-.03.06-.06-.03-.06-.06-.06-.06.03-.06.06.03.06.06.06ZM18.59,12.3s.06-.03.06-.06-.03-.06-.06-.06-.06.03-.06.06.03.06.06.06ZM18.89,12.3s.06-.03.06-.06-.03-.06-.06-.06-.06.03-.06.06.03.06.06.06ZM19.38,12.3s.06-.03.06-.06-.03-.06-.06-.06-.06.03-.06.06.03.06.06.06ZM19.61,12.3s.07-.03.09-.06c.02-.03,0-.06-.06-.06s-.09.03-.09.06.03.06.06.06ZM4.93,12.89s.06-.03.06-.06-.03-.06-.06-.06-.06.03-.06.06.03.06.06.06ZM5.18,12.89s.06-.03.06-.06-.03-.06-.06-.06-.06.03-.06.06.03.06.06.06ZM5.66,12.89s.06-.03.06-.06-.03-.06-.06-.06-.06.03-.06.06.03.06.06.06ZM5.96,12.89s.06-.03.06-.06-.03-.06-.06-.06-.06.03-.06.06.03.06.06.06ZM6.44,12.89s.06-.03.06-.06-.03-.06-.06-.06-.06.03-.06.06.03.06.06.06ZM6.68,12.89s.06-.03.06-.06-.03-.06-.06-.06-.06.03-.06.06.03.06.06.06ZM7.22,12.89s.06-.03.06-.06-.03-.06-.06-.06-.06.03-.06.06.03.06.06.06ZM7.46,12.89s.06-.03.06-.06-.03-.06-.06-.06-.06.03-.06.06.03.06.06.06ZM7.94,12.89s.06-.03.06-.06-.03-.06-.06-.06-.06.03-.06.06.03.06.06.06ZM8.24,12.89s.06-.03.06-.06-.03-.06-.06-.06-.06.03-.06.06.03.06.06.06ZM8.73,12.89s.06-.03.06-.06-.03-.06-.06-.06-.06.03-.06.06.03.06.06.06ZM8.97,12.89s.06-.03.06-.06-.03-.06-.06-.06-.06.03-.06.06.03.06.06.06ZM9.51,12.89s.06-.03.06-.06-.03-.06-.06-.06-.06.03-.06.06.03.06.06.06ZM9.75,12.89s.06-.03.06-.06-.03-.06-.06-.06-.06.03-.06.06.03.06.06.06ZM10.23,12.89s.06-.03.06-.06-.03-.06-.06-.06-.06.03-.06.06.03.06.06.06ZM10.53,12.89s.06-.03.06-.06-.04-.06-.09-.06-.08.03-.06.06c.02.03.06.06.09.06ZM11.01,12.89s.06-.03.06-.06-.03-.06-.06-.06-.06.03-.06.06.03.06.06.06ZM11.25,12.89s.06-.03.06-.06-.03-.06-.06-.06-.06.03-.06.06.03.06.06.06ZM11.8,12.89s.06-.03.06-.06-.04-.06-.09-.06-.08.03-.06.06c.02.03.06.06.09.06ZM12.03,12.89s.06-.03.06-.06-.03-.06-.06-.06-.06.03-.06.06.03.06.06.06ZM12.52,12.89s.06-.03.06-.06-.03-.06-.06-.06-.06.03-.06.06.03.06.06.06ZM12.82,12.89s.06-.03.06-.06-.03-.06-.06-.06-.06.03-.06.06.03.06.06.06ZM13.3,12.89s.06-.03.06-.06-.03-.06-.06-.06-.06.03-.06.06.03.06.06.06ZM13.54,12.89s.06-.03.06-.06-.03-.06-.06-.06-.06.03-.06.06.03.06.06.06ZM14.08,12.89s.06-.03.06-.06-.03-.06-.06-.06-.06.03-.06.06.03.06.06.06ZM14.32,12.89s.06-.03.06-.06-.03-.06-.06-.06-.06.03-.06.06.03.06.06.06ZM14.8,12.89s.06-.03.06-.06-.03-.06-.06-.06-.06.03-.06.06.03.06.06.06ZM15.1,12.89s.06-.03.06-.06-.03-.06-.06-.06-.06.03-.06.06.03.06.06.06ZM15.58,12.89s.06-.03.06-.06-.03-.06-.06-.06-.06.03-.06.06.03.06.06.06ZM15.83,12.89s.06-.03.06-.06-.03-.06-.06-.06-.06.03-.06.06.03.06.06.06ZM16.34,12.89s.09-.03.09-.06-.04-.06-.09-.06-.09.03-.09.06.04.06.09.06ZM16.61,12.89s.06-.03.06-.06-.03-.06-.06-.06-.06.03-.06.06.03.06.06.06ZM17.09,12.89s.06-.03.06-.06-.03-.06-.06-.06-.06.03-.06.06.03.06.06.06ZM17.39,12.89s.06-.03.06-.06-.04-.06-.09-.06-.08.03-.06.06c.02.03.06.06.09.06ZM17.87,12.89s.06-.03.06-.06-.03-.06-.06-.06-.06.03-.06.06.03.06.06.06ZM18.11,12.89s.06-.03.06-.06-.03-.06-.06-.06-.06.03-.06.06.03.06.06.06ZM18.59,12.89s.07-.03.09-.06c.02-.03,0-.06-.06-.06s-.09.03-.09.06.03.06.06.06ZM18.89,12.89s.06-.03.06-.06-.03-.06-.06-.06-.06.03-.06.06.03.06.06.06ZM19.38,12.89s.06-.03.06-.06-.03-.06-.06-.06-.06.03-.06.06.03.06.06.06ZM19.65,12.89s.09-.03.09-.06-.04-.06-.09-.06-.09.03-.09.06.04.06.09.06ZM4.93,13.13s.06-.03.06-.06-.03-.06-.06-.06-.06.03-.06.06.03.06.06.06ZM5.18,13.13s.06-.03.06-.06-.03-.06-.06-.06-.06.03-.06.06.03.06.06.06ZM5.69,13.13c.05,0,.08-.03.06-.06-.02-.03-.05-.06-.06-.06s-.04.03-.06.06c-.02.03,0,.06.06.06ZM5.96,13.13s.06-.03.06-.06-.03-.06-.06-.06-.06.03-.06.06.03.06.06.06ZM6.44,13.13s.06-.03.06-.06-.03-.06-.06-.06-.06.03-.06.06.03.06.06.06ZM6.71,13.13c.05,0,.08-.03.06-.06-.02-.03-.05-.06-.06-.06s-.04.03-.06.06c-.02.03,0,.06.06.06ZM7.22,13.13s.05-.03.03-.06c-.02-.03-.05-.06-.06-.06s-.03.03-.03.06.03.06.06.06ZM7.46,13.13s.06-.03.06-.06-.03-.06-.06-.06-.06.03-.06.06.03.06.06.06ZM7.94,13.13s.06-.03.06-.06-.03-.06-.06-.06-.06.03-.06.06.03.06.06.06ZM8.21,13.13c.05,0,.09-.03.09-.06s-.03-.06-.06-.06-.07.03-.09.06c-.02.03,0,.06.06.06ZM8.73,13.13s.06-.03.06-.06-.03-.06-.06-.06-.06.03-.06.06.03.06.06.06ZM8.97,13.16s.06,0,.06-.06-.03-.09-.06-.09-.06.03-.06.06.03.07.06.09ZM9.44,13.16s.07,0,.09-.02c.02-.03,0-.07-.02-.09-.03-.02-.07,0-.09.02-.02.03,0,.07.02.09ZM9.75,13.13s.06-.03.06-.06-.03-.06-.06-.06-.06.03-.06.06.03.06.06.06ZM10.23,13.13s.06-.03.06-.06-.03-.06-.06-.06-.06.03-.06.06.03.06.06.06ZM10.5,13.13c.05,0,.08-.03.06-.06-.02-.03-.05-.06-.06-.06s-.04.03-.06.06c-.02.03,0,.06.06.06ZM11.01,13.13s.06-.03.06-.06-.03-.06-.06-.06-.06.03-.06.06.03.06.06.06ZM11.25,13.13s.06-.03.06-.06-.03-.06-.06-.06-.06.03-.06.06.03.06.06.06ZM11.76,13.13c.05,0,.08-.03.06-.06-.02-.03-.05-.06-.06-.06s-.04.03-.06.06c-.02.03,0,.06.06.06ZM12.03,13.13s.06-.03.06-.06-.03-.06-.06-.06-.06.03-.06.06.03.06.06.06ZM12.51,13.13s.06-.03.06-.06-.01-.06-.03-.06-.04.03-.06.06c-.02.03,0,.06.03.06ZM12.79,13.13c.05,0,.08-.03.06-.06-.02-.03-.05-.06-.06-.06s-.04.03-.06.06c-.02.03,0,.06.06.06ZM13.3,13.13s.06-.03.06-.06-.03-.06-.06-.06-.06.03-.06.06.03.06.06.06ZM13.54,13.13s.06-.03.06-.06-.03-.06-.06-.06-.06.03-.06.06.03.06.06.06ZM14.02,13.16s.07,0,.09-.02c.02-.03,0-.07-.02-.09-.03-.02-.07,0-.09.02-.02.03,0,.07.02.09ZM14.32,13.13s.06-.03.06-.06-.03-.06-.06-.06-.06.03-.06.06.03.06.06.06ZM14.8,13.16s.06,0,.06-.06-.03-.09-.06-.09-.06.03-.06.06.03.07.06.09ZM15.07,13.13c.05,0,.08-.03.06-.06-.02-.03-.05-.06-.06-.06s-.04.03-.06.06c-.02.03,0,.06.06.06ZM15.58,13.13s.06-.03.06-.06-.03-.06-.06-.06-.06.03-.06.06.03.06.06.06ZM15.83,13.13s.06-.03.06-.06-.03-.06-.06-.06-.06.03-.06.06.03.06.06.06ZM16.34,13.13c.05,0,.08-.03.06-.06-.02-.03-.05-.06-.06-.06s-.04.03-.06.06c-.02.03,0,.06.06.06ZM16.61,13.13s.06-.03.06-.06-.03-.06-.06-.06-.06.03-.06.06.03.06.06.06ZM17.09,13.13s.06-.03.06-.06-.03-.06-.06-.06-.06.03-.06.06.03.06.06.06ZM17.36,13.13c.05,0,.08-.03.06-.06-.02-.03-.05-.06-.06-.06s-.04.03-.06.06c-.02.03,0,.06.06.06ZM17.87,13.13s.06-.03.06-.06-.03-.06-.06-.06-.06.03-.06.06.03.06.06.06ZM18.11,13.13s.06-.03.06-.06-.03-.06-.06-.06-.06.03-.06.06.03.06.06.06ZM18.62,13.13c.05,0,.08-.03.06-.06-.02-.03-.05-.06-.06-.06s-.04.03-.06.06c-.02.03,0,.06.06.06ZM18.89,13.13s.06-.03.06-.06-.03-.06-.06-.06-.06.03-.06.06.03.06.06.06ZM19.38,13.13s.06-.03.06-.06-.03-.06-.06-.06-.06.03-.06.06.03.06.06.06ZM19.65,13.13c.05,0,.08-.03.06-.06-.02-.03-.05-.06-.06-.06s-.04.03-.06.06c-.02.03,0,.06.06.06ZM4.93,13.43s.06-.03.06-.06-.03-.06-.06-.06-.06.03-.06.06.03.06.06.06ZM5.18,13.43s.06-.03.06-.06-.03-.06-.06-.06-.06.03-.06.06.03.06.06.06ZM5.69,13.43s.03-.03.03-.06-.03-.06-.06-.06-.05.03-.03.06c.02.03.05.06.06.06ZM5.96,13.43s.06-.03.06-.06-.03-.06-.06-.06-.06.03-.06.06.03.06.06.06ZM6.44,13.43s.06-.03.06-.06-.03-.06-.06-.06-.06.03-.06.06.03.06.06.06ZM6.68,13.43s.07-.03.09-.06c.02-.03,0-.06-.06-.06s-.09.03-.09.06.03.06.06.06ZM7.22,13.43s.06-.03.06-.06-.04-.06-.09-.06-.08.03-.06.06c.02.03.06.06.09.06ZM7.46,13.43s.06-.03.06-.06-.03-.06-.06-.06-.06.03-.06.06.03.06.06.06ZM7.94,13.43s.06-.03.06-.06-.03-.06-.06-.06-.06.03-.06.06.03.06.06.06ZM8.25,13.43s.06-.03.06-.06-.04-.06-.09-.06-.08.03-.06.06c.02.03.06.06.09.06ZM8.73,13.43s.06-.03.06-.06-.03-.06-.06-.06-.06.03-.06.06.03.06.06.06ZM8.96,13.43s.07-.03.09-.06c.02-.03,0-.06-.06-.06s-.09.03-.09.06.03.06.06.06ZM9.51,13.43s.06-.03.06-.06-.04-.06-.09-.06-.08.03-.06.06c.02.03.06.06.09.06ZM9.75,13.43s.06-.03.06-.06-.03-.06-.06-.06-.06.03-.06.06.03.06.06.06ZM10.23,13.43s.06-.03.06-.06-.03-.06-.06-.06-.06.03-.06.06.03.06.06.06ZM10.44,13.37c.03.06.15.03.15-.03,0-.01-.04-.03-.09-.03s-.08.03-.06.06ZM11.01,13.43s.06-.03.06-.06-.03-.06-.06-.06-.06.03-.06.06.03.06.06.06ZM11.25,13.43s.06-.03.06-.06-.03-.06-.06-.06-.06.03-.06.06.03.06.06.06ZM11.7,13.37c.03.06.15.03.15-.03,0-.01-.04-.03-.09-.03s-.08.03-.06.06ZM12.03,13.43s.06-.03.06-.06-.03-.06-.06-.06-.06.03-.06.06.03.06.06.06ZM12.52,13.43s.06-.03.06-.06-.03-.06-.06-.06-.06.03-.06.06.03.06.06.06ZM12.82,13.43s.06-.03.06-.06-.03-.06-.06-.06-.06.03-.06.06.03.06.06.06ZM13.3,13.43s.06-.03.06-.06-.03-.06-.06-.06-.06.03-.06.06.03.06.06.06ZM13.54,13.43s.06-.03.06-.06-.03-.06-.06-.06-.06.03-.06.06.03.06.06.06ZM13.99,13.37c.03.06.15.03.15-.03,0-.01-.04-.03-.09-.03s-.08.03-.06.06ZM14.32,13.43s.06-.03.06-.06-.03-.06-.06-.06-.06.03-.06.06.03.06.06.06ZM14.8,13.43s.06-.03.06-.06-.03-.06-.06-.06-.06.03-.06.06.03.06.06.06ZM15.11,13.43s.06-.03.06-.06-.04-.06-.09-.06-.08.03-.06.06c.02.03.06.06.09.06ZM15.58,13.43s.06-.03.06-.06-.03-.06-.06-.06-.06.03-.06.06.03.06.06.06ZM15.83,13.43s.06-.03.06-.06-.03-.06-.06-.06-.06.03-.06.06.03.06.06.06ZM16.28,13.37c.03.06.15.03.15-.03,0-.01-.04-.03-.09-.03s-.08.03-.06.06ZM16.61,13.43s.06-.03.06-.06-.03-.06-.06-.06-.06.03-.06.06.03.06.06.06ZM17.09,13.43s.06-.03.06-.06-.03-.06-.06-.06-.06.03-.06.06.03.06.06.06ZM17.3,13.37c.03.06.15.03.15-.03,0-.01-.04-.03-.09-.03s-.08.03-.06.06ZM17.87,13.43s.06-.03.06-.06-.03-.06-.06-.06-.06.03-.06.06.03.06.06.06ZM18.11,13.43s.06-.03.06-.06-.03-.06-.06-.06-.06.03-.06.06.03.06.06.06ZM18.56,13.37c.03.06.15.03.15-.03,0-.01-.04-.03-.09-.03s-.08.03-.06.06ZM18.89,13.43s.06-.03.06-.06-.03-.06-.06-.06-.06.03-.06.06.03.06.06.06ZM19.38,13.43s.06-.03.06-.06-.03-.06-.06-.06-.06.03-.06.06.03.06.06.06ZM19.59,13.37c.03.06.15.03.15-.03,0-.01-.04-.03-.09-.03s-.08.03-.06.06ZM20.16,13.43s.06-.03.06-.06-.03-.06-.06-.06-.06.03-.06.06.03.06.06.06ZM4.93,13.67s.06-.03.06-.06-.03-.06-.06-.06-.06.03-.06.06.03.06.06.06ZM5.18,13.67s.06-.03.06-.06-.03-.06-.06-.06-.06.03-.06.06.03.06.06.06ZM5.66,13.67s.06-.03.06-.06-.03-.06-.06-.06-.06.03-.06.06.03.06.06.06ZM5.96,13.67s.06-.03.06-.06-.03-.06-.06-.06-.06.03-.06.06.03.06.06.06ZM6.44,13.67s.06-.03.06-.06-.03-.06-.06-.06-.06.03-.06.06.03.06.06.06ZM6.71,13.67c.05,0,.08-.03.06-.06-.02-.03-.06-.06-.09-.06s-.06.03-.06.06.04.06.09.06ZM7.22,13.67s.06-.03.06-.06-.03-.06-.06-.06-.06.03-.06.06.03.06.06.06ZM7.46,13.67s.06-.03.06-.06-.03-.06-.06-.06-.06.03-.06.06.03.06.06.06ZM7.94,13.67s.06-.03.06-.06-.03-.06-.06-.06-.06.03-.06.06.03.06.06.06ZM8.24,13.67s.06-.03.06-.06-.03-.06-.06-.06-.06.03-.06.06.03.06.06.06ZM8.73,13.67s.06-.03.06-.06-.03-.06-.06-.06-.06.03-.06.06.03.06.06.06ZM8.97,13.67s.06-.03.06-.06-.03-.06-.06-.06-.06.03-.06.06.03.06.06.06ZM9.51,13.67s.06-.03.06-.06-.03-.06-.06-.06-.06.03-.06.06.03.06.06.06ZM9.75,13.67s.06-.03.06-.06-.03-.06-.06-.06-.06.03-.06.06.03.06.06.06ZM10.23,13.67s.06-.03.06-.06-.03-.06-.06-.06-.06.03-.06.06.03.06.06.06ZM10.5,13.67c.05,0,.08-.03.06-.06-.02-.03-.05-.06-.06-.06s-.04.03-.06.06c-.02.03,0,.06.06.06ZM11.01,13.67s.06-.03.06-.06-.03-.06-.06-.06-.06.03-.06.06.03.06.06.06ZM11.25,13.67s.06-.03.06-.06-.03-.06-.06-.06-.06.03-.06.06.03.06.06.06ZM11.76,13.67c.05,0,.08-.03.06-.06-.02-.03-.05-.06-.06-.06s-.04.03-.06.06c-.02.03,0,.06.06.06ZM12.03,13.67s.06-.03.06-.06-.03-.06-.06-.06-.06.03-.06.06.03.06.06.06ZM12.52,13.67s.06-.03.06-.06-.03-.06-.06-.06-.06.03-.06.06.03.06.06.06ZM12.82,13.67s.06-.03.06-.06-.03-.06-.06-.06-.06.03-.06.06.03.06.06.06ZM13.3,13.67s.06-.03.06-.06-.03-.06-.06-.06-.06.03-.06.06.03.06.06.06ZM13.54,13.67s.06-.03.06-.06-.03-.06-.06-.06-.06.03-.06.06.03.06.06.06ZM14.05,13.67c.05,0,.09-.03.09-.06s-.03-.06-.06-.06-.07.03-.09.06c-.02.03,0,.06.06.06ZM14.32,13.67s.06-.03.06-.06-.03-.06-.06-.06-.06.03-.06.06.03.06.06.06ZM14.8,13.67s.06-.03.06-.06-.03-.06-.06-.06-.06.03-.06.06.03.06.06.06ZM15.07,13.67c.05,0,.09-.03.09-.06s-.03-.06-.06-.06-.07.03-.09.06c-.02.03,0,.06.06.06ZM15.58,13.67s.06-.03.06-.06-.03-.06-.06-.06-.06.03-.06.06.03.06.06.06ZM15.83,13.67s.06-.03.06-.06-.03-.06-.06-.06-.06.03-.06.06.03.06.06.06ZM16.34,13.67c.05,0,.08-.03.06-.06-.02-.03-.05-.06-.06-.06s-.04.03-.06.06c-.02.03,0,.06.06.06ZM16.61,13.67s.06-.03.06-.06-.03-.06-.06-.06-.06.03-.06.06.03.06.06.06ZM17.09,13.67s.06-.03.06-.06-.03-.06-.06-.06-.06.03-.06.06.03.06.06.06ZM17.36,13.67c.05,0,.08-.03.06-.06-.02-.03-.05-.06-.06-.06s-.04.03-.06.06c-.02.03,0,.06.06.06ZM17.87,13.67s.06-.03.06-.06-.03-.06-.06-.06-.06.03-.06.06.03.06.06.06ZM18.11,13.67s.06-.03.06-.06-.03-.06-.06-.06-.06.03-.06.06.03.06.06.06ZM18.62,13.67c.05,0,.08-.03.06-.06-.02-.03-.05-.06-.06-.06s-.04.03-.06.06c-.02.03,0,.06.06.06ZM18.89,13.67s.06-.03.06-.06-.03-.06-.06-.06-.06.03-.06.06.03.06.06.06ZM19.38,13.67s.06-.03.06-.06-.03-.06-.06-.06-.06.03-.06.06.03.06.06.06ZM19.65,13.67c.05,0,.08-.03.06-.06-.02-.03-.06-.06-.09-.06s-.06.03-.06.06.04.06.09.06ZM20.16,13.67s.06-.03.06-.06-.03-.06-.06-.06-.06.03-.06.06.03.06.06.06ZM4.93,14.26s.06-.03.06-.06-.03-.06-.06-.06-.06.03-.06.06.03.06.06.06ZM5.18,14.26s.06-.03.06-.06-.03-.06-.06-.06-.06.03-.06.06.03.06.06.06ZM5.66,14.26s.06-.03.06-.06-.03-.06-.06-.06-.06.03-.06.06.03.06.06.06ZM5.96,14.26s.06-.03.06-.06-.03-.06-.06-.06-.06.03-.06.06.03.06.06.06ZM6.44,14.26s.06-.03.06-.06-.03-.06-.06-.06-.06.03-.06.06.03.06.06.06ZM6.68,14.26s.06-.03.06-.06-.03-.06-.06-.06-.06.03-.06.06.03.06.06.06ZM7.22,14.26s.06-.03.06-.06-.03-.06-.06-.06-.06.03-.06.06.03.06.06.06ZM7.46,14.26s.06-.03.06-.06-.03-.06-.06-.06-.06.03-.06.06.03.06.06.06ZM7.94,14.26s.06-.03.06-.06-.03-.06-.06-.06-.06.03-.06.06.03.06.06.06ZM8.24,14.26s.06-.03.06-.06-.03-.06-.06-.06-.06.03-.06.06.03.06.06.06ZM8.73,14.26s.06-.03.06-.06-.03-.06-.06-.06-.06.03-.06.06.03.06.06.06ZM8.97,14.26s.06-.03.06-.06-.03-.06-.06-.06-.06.03-.06.06.03.06.06.06ZM9.51,14.26s.06-.03.06-.06-.03-.06-.06-.06-.06.03-.06.06.03.06.06.06ZM9.75,14.26s.06-.03.06-.06-.03-.06-.06-.06-.06.03-.06.06.03.06.06.06ZM10.23,14.26s.06-.03.06-.06-.03-.06-.06-.06-.06.03-.06.06.03.06.06.06ZM10.53,14.26s.05-.03.03-.06c-.02-.03-.05-.06-.06-.06s-.03.03-.03.06.03.06.06.06ZM11.01,14.26s.06-.03.06-.06-.03-.06-.06-.06-.06.03-.06.06.03.06.06.06ZM11.25,14.26s.06-.03.06-.06-.03-.06-.06-.06-.06.03-.06.06.03.06.06.06ZM11.76,14.26c.05,0,.09-.03.09-.06s-.03-.06-.06-.06-.07.03-.09.06c-.02.03,0,.06.06.06ZM12.03,14.26s.06-.03.06-.06-.03-.06-.06-.06-.06.03-.06.06.03.06.06.06ZM12.52,14.26s.06-.03.06-.06-.03-.06-.06-.06-.06.03-.06.06.03.06.06.06ZM12.82,14.26s.06-.03.06-.06-.03-.06-.06-.06-.06.03-.06.06.03.06.06.06ZM13.3,14.26s.06-.03.06-.06-.03-.06-.06-.06-.06.03-.06.06.03.06.06.06ZM13.54,14.26s.06-.03.06-.06-.03-.06-.06-.06-.06.03-.06.06.03.06.06.06ZM14.08,14.26s.06-.03.06-.06-.03-.06-.06-.06-.06.03-.06.06.03.06.06.06ZM14.32,14.26s.06-.03.06-.06-.03-.06-.06-.06-.06.03-.06.06.03.06.06.06ZM14.8,14.26s.06-.03.06-.06-.03-.06-.06-.06-.06.03-.06.06.03.06.06.06ZM15.07,14.26c.05,0,.09-.03.09-.06s-.03-.06-.06-.06-.07.03-.09.06c-.02.03,0,.06.06.06ZM15.58,14.26s.06-.03.06-.06-.03-.06-.06-.06-.06.03-.06.06.03.06.06.06ZM15.83,14.26s.06-.03.06-.06-.03-.06-.06-.06-.06.03-.06.06.03.06.06.06ZM16.33,14.26c.05,0,.09-.03.09-.06s-.03-.06-.06-.06-.07.03-.09.06c-.02.03,0,.06.06.06ZM16.61,14.26s.06-.03.06-.06-.03-.06-.06-.06-.06.03-.06.06.03.06.06.06ZM17.09,14.26s.06-.03.06-.06-.03-.06-.06-.06-.06.03-.06.06.03.06.06.06ZM17.36,14.26c.05,0,.08-.03.06-.06-.02-.03-.05-.06-.06-.06s-.04.03-.06.06c-.02.03,0,.06.06.06ZM17.87,14.26s.06-.03.06-.06-.03-.06-.06-.06-.06.03-.06.06.03.06.06.06ZM18.11,14.26s.06-.03.06-.06-.03-.06-.06-.06-.06.03-.06.06.03.06.06.06ZM18.62,14.26c.05,0,.08-.03.06-.06-.02-.03-.05-.06-.06-.06s-.04.03-.06.06c-.02.03,0,.06.06.06ZM19.65,14.26c.05,0,.08-.03.06-.06-.02-.03-.05-.06-.06-.06s-.04.03-.06.06c-.02.03,0,.06.06.06ZM20.16,14.26s.06-.03.06-.06-.03-.06-.06-.06-.06.03-.06.06.03.06.06.06ZM4.93,14.56s.06-.03.06-.06-.03-.07-.06-.09c-.03-.02-.06,0-.06.06s.03.09.06.09ZM5.15,14.44c-.05.08,0,.17.06.11.02-.02.02-.07.01-.11-.02-.06-.03-.06-.07,0ZM5.65,14.53s.07,0,.09-.02c.02-.03,0-.07-.02-.09-.03-.02-.07,0-.09.02-.02.03,0,.07.02.09ZM5.96,14.53s.05-.06.03-.09c-.05-.08-.09-.07-.09.04,0,.05.03.08.06.06ZM6.67,14.53s.07,0,.09-.02c.02-.03,0-.07-.02-.09-.03-.02-.07,0-.09.02-.02.03,0,.07.02.09ZM7.22,14.53s.05-.06.03-.09c-.05-.08-.09-.07-.09.04,0,.05.03.08.06.06ZM7.94,14.53s.06,0,.06-.06c0-.1-.04-.12-.09-.04-.02.03,0,.07.03.09ZM8.18,14.53s.07,0,.09-.02c.02-.03,0-.07-.02-.09-.03-.02-.07,0-.09.02-.02.03,0,.07.02.09ZM8.94,14.44c-.05.08,0,.17.06.11.02-.02.02-.07.01-.11-.02-.06-.03-.06-.07,0ZM9.44,14.53s.07,0,.09-.02c.02-.03,0-.07-.02-.09-.03-.02-.07,0-.09.02-.02.03,0,.07.02.09ZM10.2,14.44c-.05.08,0,.17.06.11.02-.02.03-.07.01-.11-.02-.06-.03-.06-.07,0ZM10.47,14.53s.07,0,.09-.02c.02-.03,0-.07-.02-.09-.03-.02-.07,0-.09.02-.02.03,0,.07.02.09ZM11.23,14.44c-.05.08,0,.17.06.11.02-.02.02-.07.01-.11-.02-.06-.03-.06-.07,0ZM11.73,14.53s.07,0,.09-.02c.02-.03,0-.07-.02-.09-.03-.02-.07,0-.09.02-.02.03,0,.07.02.09ZM12.03,14.56s.06-.03.06-.06-.03-.07-.06-.09c-.03-.02-.06,0-.06.06s.03.09.06.09ZM12.52,14.53s.06,0,.06-.06c0-.1-.04-.12-.09-.04-.02.03,0,.07.03.09ZM12.75,14.53s.07,0,.09-.02c.02-.03,0-.07-.02-.09-.03-.02-.07,0-.09.02-.02.03,0,.07.02.09ZM13.54,14.53s.06,0,.06-.06c0-.1-.04-.12-.09-.04-.02.03,0,.07.03.09ZM14.02,14.53s.07,0,.09-.02c.02-.03,0-.07-.02-.09-.03-.02-.07,0-.09.02-.02.03,0,.07.02.09ZM14.8,14.53s.06,0,.06-.06c0-.1-.04-.12-.09-.04-.02.03,0,.07.03.09ZM15.04,14.53s.07,0,.09-.02c.02-.03,0-.07-.02-.09-.03-.02-.07,0-.09.02-.02.03,0,.07.02.09ZM15.8,14.44c-.05.08,0,.17.06.11.02-.02.03-.07.01-.11-.02-.06-.03-.06-.07,0ZM16.3,14.53s.07,0,.09-.02c.02-.03,0-.07-.02-.09-.03-.02-.07,0-.09.02-.02.03,0,.07.02.09ZM16.61,14.56s.06-.03.06-.06-.03-.07-.06-.09c-.03-.02-.06,0-.06.06s.03.09.06.09ZM17.06,14.44c-.05.08,0,.17.06.11.02-.02.02-.07.01-.11-.02-.06-.03-.06-.07,0ZM17.32,14.53s.07,0,.09-.02c.02-.03,0-.07-.02-.09-.03-.02-.07,0-.09.02-.02.03,0,.07.02.09ZM17.87,14.56s.06-.03.06-.06-.03-.07-.06-.09c-.03-.02-.06,0-.06.06s.03.09.06.09ZM18.09,14.44c-.05.08,0,.17.06.11.02-.02.02-.07.01-.11-.02-.06-.03-.06-.07,0ZM18.59,14.53s.07,0,.09-.02c.02-.03,0-.07-.02-.09-.03-.02-.07,0-.09.02-.02.03,0,.07.02.09ZM19.61,14.53s.07,0,.09-.02c.02-.03,0-.07-.02-.09-.03-.02-.07,0-.09.02-.02.03,0,.07.02.09ZM20.4,14.53s.06,0,.06-.06c0-.1-.04-.12-.09-.04-.02.03,0,.07.03.09ZM6.44,14.56s.06-.03.06-.06-.03-.06-.06-.06-.06.03-.06.06.03.06.06.06ZM7.46,14.56s.06-.03.06-.06-.03-.06-.06-.06-.06.03-.06.06.03.06.06.06ZM8.73,14.56s.06-.03.06-.06-.03-.06-.06-.06-.06.03-.06.06.03.06.06.06ZM9.75,14.56s.06-.03.06-.06-.03-.06-.06-.06-.06.03-.06.06.03.06.06.06ZM11.01,14.56s.06-.03.06-.06-.03-.06-.06-.06-.06.03-.06.06.03.06.06.06ZM13.3,14.56s.06-.03.06-.06-.03-.06-.06-.06-.06.03-.06.06.03.06.06.06ZM14.32,14.56s.06-.03.06-.06-.03-.06-.06-.06-.06.03-.06.06.03.06.06.06ZM15.58,14.56s.06-.03.06-.06-.03-.06-.06-.06-.06.03-.06.06.03.06.06.06ZM20.16,14.56s.06-.03.06-.06-.03-.06-.06-.06-.06.03-.06.06.03.06.06.06ZM4.93,14.8s.06-.03.06-.06-.03-.06-.06-.06-.06.03-.06.06.03.06.06.06ZM5.18,14.8s.06-.03.06-.06-.03-.06-.06-.06-.06.03-.06.06.03.06.06.06ZM5.66,14.8s.06-.03.06-.06-.03-.06-.06-.06-.06.03-.06.06.03.06.06.06ZM5.96,14.8s.06-.03.06-.06-.03-.06-.06-.06-.06.03-.06.06.03.06.06.06ZM6.44,14.8s.06-.03.06-.06-.03-.06-.06-.06-.06.03-.06.06.03.06.06.06ZM6.71,14.8c.05,0,.08-.03.06-.06-.02-.03-.06-.06-.09-.06s-.06.03-.06.06.04.06.09.06ZM7.22,14.8s.06-.03.06-.06-.03-.06-.06-.06-.06.03-.06.06.03.06.06.06ZM7.46,14.8s.06-.03.06-.06-.03-.06-.06-.06-.06.03-.06.06.03.06.06.06ZM7.94,14.8s.06-.03.06-.06-.03-.06-.06-.06-.06.03-.06.06.03.06.06.06ZM8.24,14.8s.06-.03.06-.06-.03-.06-.06-.06-.06.03-.06.06.03.06.06.06ZM8.73,14.8s.06-.03.06-.06-.03-.06-.06-.06-.06.03-.06.06.03.06.06.06ZM8.97,14.8s.06-.03.06-.06-.03-.06-.06-.06-.06.03-.06.06.03.06.06.06ZM9.47,14.8c.05,0,.09-.03.09-.06s-.03-.06-.06-.06-.07.03-.09.06,0,.06.06.06ZM9.75,14.8s.06-.03.06-.06-.03-.06-.06-.06-.06.03-.06.06.03.06.06.06ZM10.23,14.8s.06-.03.06-.06-.03-.06-.06-.06-.06.03-.06.06.03.06.06.06ZM10.5,14.8c.05,0,.09-.03.09-.06s-.03-.06-.06-.06-.07.03-.09.06c-.02.03,0,.06.06.06ZM11.01,14.8s.06-.03.06-.06-.03-.06-.06-.06-.06.03-.06.06.03.06.06.06ZM11.25,14.8s.06-.03.06-.06-.03-.06-.06-.06-.06.03-.06.06.03.06.06.06ZM11.76,14.8s.09-.03.09-.06-.04-.06-.09-.06-.09.03-.09.06.04.06.09.06ZM12.03,14.8s.06-.03.06-.06-.03-.06-.06-.06-.06.03-.06.06.03.06.06.06ZM12.52,14.8s.06-.03.06-.06-.03-.06-.06-.06-.06.03-.06.06.03.06.06.06ZM12.82,14.8s.06-.03.06-.06-.03-.06-.06-.06-.06.03-.06.06.03.06.06.06ZM13.3,14.8s.06-.03.06-.06-.03-.06-.06-.06-.06.03-.06.06.03.06.06.06ZM13.54,14.8s.06-.03.06-.06-.03-.06-.06-.06-.06.03-.06.06.03.06.06.06ZM14.08,14.8s.06-.03.06-.06-.03-.06-.06-.06-.06.03-.06.06.03.06.06.06ZM14.32,14.8s.06-.03.06-.06-.03-.06-.06-.06-.06.03-.06.06.03.06.06.06ZM14.8,14.8s.06-.03.06-.06-.03-.06-.06-.06-.06.03-.06.06.03.06.06.06ZM15.1,14.8s.06-.03.06-.06-.03-.06-.06-.06-.06.03-.06.06.03.06.06.06ZM15.58,14.8s.06-.03.06-.06-.03-.06-.06-.06-.06.03-.06.06.03.06.06.06ZM15.83,14.8s.06-.03.06-.06-.03-.06-.06-.06-.06.03-.06.06.03.06.06.06ZM16.34,14.8c.05,0,.08-.03.06-.06-.02-.03-.05-.06-.06-.06s-.04.03-.06.06c-.02.03,0,.06.06.06ZM16.61,14.8s.06-.03.06-.06-.03-.06-.06-.06-.06.03-.06.06.03.06.06.06ZM18.11,14.8s.06-.03.06-.06-.03-.06-.06-.06-.06.03-.06.06.03.06.06.06ZM18.63,14.8c.05,0,.08-.03.06-.06-.02-.03-.06-.06-.09-.06s-.06.03-.06.06.04.06.09.06ZM18.89,14.8s.06-.03.06-.06-.03-.06-.06-.06-.06.03-.06.06.03.06.06.06ZM20.16,14.8s.06-.03.06-.06-.03-.06-.06-.06-.06.03-.06.06.03.06.06.06ZM20.4,14.8s.06-.03.06-.06-.03-.06-.06-.06-.06.03-.06.06.03.06.06.06ZM4.94,15.07s.05-.06.03-.09c-.05-.08-.09-.07-.09.04,0,.05.03.08.06.06ZM5.18,15.1s.06-.04.06-.09-.03-.09-.06-.09-.06.04-.06.09.03.09.06.09ZM5.66,15.07s.06,0,.06-.06c0-.1-.04-.12-.09-.04-.02.03,0,.07.03.09ZM5.96,15.07s.05-.06.03-.09c-.05-.08-.09-.07-.09.04,0,.05.03.08.06.06ZM6.44,15.07s.06-.06.06-.09-.03-.06-.06-.06-.06.04-.06.09.03.08.06.06ZM6.67,15.07s.07,0,.09-.02c.02-.03,0-.07-.02-.09-.03-.02-.07,0-.09.02-.02.03,0,.07.02.09ZM7.16,15.07s.07,0,.09-.02c.02-.03,0-.07-.02-.09-.03-.02-.07,0-.09.02-.02.03,0,.07.02.09ZM7.46,15.1s.06-.04.06-.09-.03-.09-.06-.09-.06.04-.06.09.03.09.06.09ZM7.94,15.07s.06,0,.06-.06c0-.1-.04-.12-.09-.04-.02.03,0,.07.03.09ZM8.18,15.07s.07,0,.09-.02c.02-.03,0-.07-.02-.09-.03-.02-.07,0-.09.02-.02.03,0,.07.02.09ZM8.73,15.1s.06-.04.06-.09-.03-.09-.06-.09-.06.04-.06.09.03.09.06.09ZM8.97,15.07s.06,0,.06-.06c0-.1-.04-.12-.09-.04-.02.03,0,.07.03.09ZM9.44,15.07s.07,0,.09-.02c.02-.03,0-.07-.02-.09-.03-.02-.07,0-.09.02-.02.03,0,.07.02.09ZM9.75,15.1s.06-.04.06-.09-.03-.09-.06-.09-.06.04-.06.09.03.09.06.09ZM10.23,15.07s.06,0,.06-.06-.03-.09-.06-.09-.06.03-.06.06.03.07.06.09ZM10.47,15.07s.07,0,.09-.02c.02-.03,0-.07-.02-.09-.03-.02-.07,0-.09.02-.02.03,0,.07.02.09ZM11.02,15.04s.05-.03.03-.06c-.02-.03-.05-.06-.06-.06s-.03.03-.03.06.03.06.06.06ZM11.25,15.07s.06,0,.06-.06c0-.1-.04-.12-.09-.04-.02.03,0,.07.03.09ZM11.73,15.07s.07,0,.09-.02c.02-.03,0-.07-.02-.09-.03-.02-.07,0-.09.02-.02.03,0,.07.02.09ZM12.03,15.07s.06-.06.06-.09-.03-.06-.06-.06-.06.04-.06.09.03.08.06.06ZM12.52,15.07s.06,0,.06-.06c0-.1-.04-.12-.09-.04-.02.03,0,.07.03.09ZM12.82,15.07s.05-.06.03-.09c-.05-.08-.09-.07-.09.04,0,.05.03.08.06.06ZM13.3,15.07s.06-.06.06-.09-.03-.06-.06-.06-.06.04-.06.09.03.08.06.06ZM13.54,15.07s.06,0,.06-.06c0-.1-.04-.12-.09-.04-.02.03,0,.07.03.09ZM14.02,15.07s.07,0,.09-.02c.02-.03,0-.07-.02-.09-.03-.02-.07,0-.09.02-.02.03,0,.07.02.09ZM14.32,15.07s.06-.06.06-.09-.03-.06-.06-.06-.06.04-.06.09.03.08.06.06ZM14.8,15.07s.06,0,.06-.06c0-.1-.04-.12-.09-.04-.02.03,0,.07.03.09ZM15.04,15.07s.07,0,.09-.02c.02-.03,0-.07-.02-.09-.03-.02-.07,0-.09.02-.02.03,0,.07.02.09ZM15.58,15.07s.06-.06.06-.09-.03-.06-.06-.06-.06.04-.06.09.03.08.06.06ZM15.82,15.07s.06,0,.06-.06c0-.1-.04-.12-.09-.04-.02.03,0,.07.03.09ZM16.3,15.07s.07,0,.09-.02c.02-.03,0-.07-.02-.09-.03-.02-.07,0-.09.02-.02.03,0,.07.02.09ZM16.61,15.1s.06-.04.06-.09-.03-.09-.06-.09-.06.04-.06.09.03.09.06.09ZM17.09,15.07s.06,0,.06-.06c0-.1-.04-.12-.09-.04-.02.03,0,.07.03.09ZM17.32,15.07s.07,0,.09-.02c.02-.03,0-.07-.02-.09-.03-.02-.07,0-.09.02-.02.03,0,.07.02.09ZM18.89,15.07s.05-.06.03-.09c-.05-.08-.09-.07-.09.04,0,.05.03.08.06.06ZM19.38,15.1s.06-.04.06-.09-.03-.09-.06-.09-.06.04-.06.09.03.09.06.09ZM19.61,15.07s.07,0,.09-.02c.02-.03,0-.07-.02-.09-.03-.02-.07,0-.09.02-.02.03,0,.07.02.09ZM20.16,15.07s.06-.06.06-.09-.03-.06-.06-.06-.06.04-.06.09.03.08.06.06ZM5.65,15.66s.07,0,.09-.02c.02-.03,0-.07-.02-.09-.03-.02-.07,0-.09.02-.02.03,0,.07.02.09ZM5.96,15.67s.05-.06.03-.09c-.05-.08-.09-.07-.09.04,0,.05.03.08.06.06ZM6.67,15.66s.07,0,.09-.02c.02-.03,0-.07-.02-.09-.03-.02-.07,0-.09.02-.02.03,0,.07.02.09ZM7.16,15.66s.07,0,.09-.02c.02-.03,0-.07-.02-.09-.03-.02-.07,0-.09.02-.02.03,0,.07.02.09ZM7.94,15.66s.07,0,.09-.02c.02-.03,0-.07-.02-.09-.03-.02-.07,0-.09.02-.02.03,0,.07.02.09ZM8.18,15.66s.07,0,.09-.02c.02-.03,0-.07-.02-.09-.03-.02-.07,0-.09.02-.02.03,0,.07.02.09ZM8.97,15.67s.06,0,.06-.06c0-.1-.04-.12-.09-.04-.02.03,0,.07.03.09ZM9.44,15.66s.07,0,.09-.02c.02-.03,0-.07-.02-.09-.03-.02-.07,0-.09.02-.02.03,0,.07.02.09ZM10.2,15.57c-.05.08,0,.17.06.11.02-.02.03-.07.01-.11-.02-.06-.03-.06-.07,0ZM10.47,15.66s.07,0,.09-.02c.02-.03,0-.07-.02-.09-.03-.02-.07,0-.09.02-.02.03,0,.07.02.09ZM11.01,15.7s.06-.03.06-.06-.03-.07-.06-.09c-.03-.02-.06,0-.06.06s.03.09.06.09ZM11.25,15.67s.06,0,.06-.06c0-.1-.04-.12-.09-.04-.02.03,0,.07.03.09ZM11.73,15.66s.07,0,.09-.02c.02-.03,0-.07-.02-.09-.03-.02-.07,0-.09.02-.02.03,0,.07.02.09ZM12.51,15.66s.07,0,.09-.02c.02-.03,0-.07-.02-.09-.03-.02-.07,0-.09.02-.02.03,0,.07.02.09ZM12.82,15.67s.05-.06.03-.09c-.05-.08-.09-.07-.09.04,0,.05.03.08.06.06ZM13.54,15.67s.06,0,.06-.06c0-.1-.04-.12-.09-.04-.02.03,0,.07.03.09ZM15.82,15.67s.06,0,.06-.06c0-.1-.04-.12-.09-.04-.02.03,0,.07.03.09ZM16.3,15.66s.07,0,.09-.02c.02-.03,0-.07-.02-.09-.03-.02-.07,0-.09.02-.02.03,0,.07.02.09ZM17.32,15.66s.07,0,.09-.02c.02-.03,0-.07-.02-.09-.03-.02-.07,0-.09.02-.02.03,0,.07.02.09ZM17.87,15.7s.06-.03.06-.06-.03-.07-.06-.09c-.03-.02-.06,0-.06.06s.03.09.06.09ZM19.61,15.66s.07,0,.09-.02c.02-.03,0-.07-.02-.09-.03-.02-.07,0-.09.02-.02.03,0,.07.02.09ZM4.93,15.7s.06-.03.06-.06-.03-.06-.06-.06-.06.03-.06.06.03.06.06.06ZM5.18,15.7s.06-.03.06-.06-.03-.06-.06-.06-.06.03-.06.06.03.06.06.06ZM6.44,15.7s.06-.03.06-.06-.03-.06-.06-.06-.06.03-.06.06.03.06.06.06ZM7.46,15.7s.06-.03.06-.06-.03-.06-.06-.06-.06.03-.06.06.03.06.06.06ZM8.73,15.7s.06-.03.06-.06-.03-.06-.06-.06-.06.03-.06.06.03.06.06.06ZM9.75,15.7s.06-.03.06-.06-.03-.06-.06-.06-.06.03-.06.06.03.06.06.06ZM12.03,15.7s.06-.03.06-.06-.03-.06-.06-.06-.06.03-.06.06.03.06.06.06ZM13.3,15.7s.06-.03.06-.06-.03-.06-.06-.06-.06.03-.06.06.03.06.06.06ZM15.58,15.7s.06-.03.06-.06-.03-.06-.06-.06-.06.03-.06.06.03.06.06.06ZM16.61,15.7s.06-.03.06-.06-.03-.06-.06-.06-.06.03-.06.06.03.06.06.06ZM17.09,15.7s.06-.03.06-.06-.03-.06-.06-.06-.06.03-.06.06.03.06.06.06ZM20.16,15.7s.06-.03.06-.06-.03-.06-.06-.06-.06.03-.06.06.03.06.06.06ZM4.93,15.93s.06-.03.06-.06-.03-.06-.06-.06-.06.03-.06.06.03.06.06.06ZM5.18,15.93s.06-.03.06-.06-.03-.06-.06-.06-.06.03-.06.06.03.06.06.06ZM5.66,15.93s.06-.03.06-.06-.03-.06-.06-.06-.06.03-.06.06.03.06.06.06ZM5.96,15.93s.06-.03.06-.06-.03-.06-.06-.06-.06.03-.06.06.03.06.06.06ZM6.44,15.93s.06-.03.06-.06-.03-.06-.06-.06-.06.03-.06.06.03.06.06.06ZM6.68,15.93s.06-.03.06-.06-.03-.06-.06-.06-.06.03-.06.06.03.06.06.06ZM7.22,15.93s.06-.03.06-.06-.03-.06-.06-.06-.06.03-.06.06.03.06.06.06ZM7.46,15.93s.06-.03.06-.06-.03-.06-.06-.06-.06.03-.06.06.03.06.06.06ZM7.94,15.93s.06-.03.06-.06-.03-.06-.06-.06-.06.03-.06.06.03.06.06.06ZM8.24,15.93s.06-.03.06-.06-.03-.06-.06-.06-.06.03-.06.06.03.06.06.06ZM8.73,15.93s.06-.03.06-.06-.03-.06-.06-.06-.06.03-.06.06.03.06.06.06ZM8.97,15.93s.06-.03.06-.06-.03-.06-.06-.06-.06.03-.06.06.03.06.06.06ZM9.51,15.93s.06-.03.06-.06-.03-.06-.06-.06-.06.03-.06.06.03.06.06.06ZM9.75,15.93s.06-.03.06-.06-.03-.06-.06-.06-.06.03-.06.06.03.06.06.06ZM10.23,15.93s.06-.03.06-.06-.03-.06-.06-.06-.06.03-.06.06.03.06.06.06ZM10.5,15.93c.05,0,.09-.03.09-.06s-.03-.06-.06-.06-.07.03-.09.06c-.02.03,0,.06.06.06ZM11.01,15.93s.06-.03.06-.06-.03-.06-.06-.06-.06.03-.06.06.03.06.06.06ZM11.25,15.93s.06-.03.06-.06-.03-.06-.06-.06-.06.03-.06.06.03.06.06.06ZM11.76,15.93s.09-.03.09-.06-.04-.06-.09-.06-.09.03-.09.06.04.06.09.06ZM12.03,15.93s.06-.03.06-.06-.03-.06-.06-.06-.06.03-.06.06.03.06.06.06ZM12.52,15.93s.06-.03.06-.06-.03-.06-.06-.06-.06.03-.06.06.03.06.06.06ZM12.82,15.93s.06-.03.06-.06-.03-.06-.06-.06-.06.03-.06.06.03.06.06.06ZM13.3,15.93s.06-.03.06-.06-.03-.06-.06-.06-.06.03-.06.06.03.06.06.06ZM16.33,15.93c.05,0,.09-.03.09-.06s-.03-.06-.06-.06-.07.03-.09.06c-.02.03,0,.06.06.06ZM16.61,15.93s.06-.03.06-.06-.03-.06-.06-.06-.06.03-.06.06.03.06.06.06ZM17.09,15.93s.06-.03.06-.06-.03-.06-.06-.06-.06.03-.06.06.03.06.06.06ZM17.36,15.93s.09-.03.09-.06-.04-.06-.09-.06-.09.03-.09.06.04.06.09.06ZM17.87,15.93s.06-.03.06-.06-.03-.06-.06-.06-.06.03-.06.06.03.06.06.06ZM18.11,15.93s.06-.03.06-.06-.03-.06-.06-.06-.06.03-.06.06.03.06.06.06ZM18.62,15.93c.05,0,.08-.03.06-.06-.02-.03-.05-.06-.06-.06s-.04.03-.06.06c-.02.03,0,.06.06.06ZM4.94,16.2s.05-.06.03-.09c-.05-.08-.09-.07-.09.04,0,.05.03.08.06.06ZM5.17,16.2s.06,0,.06-.06c0-.1-.04-.12-.09-.04-.02.03,0,.07.03.09ZM5.66,16.2s.06,0,.06-.06c0-.1-.04-.12-.09-.04-.02.03,0,.07.03.09ZM5.96,16.2s.05-.06.03-.09c-.05-.08-.09-.07-.09.04,0,.05.03.08.06.06ZM6.44,16.2s.06-.06.06-.09-.03-.06-.06-.06-.06.04-.06.09.03.08.06.06ZM6.67,16.2s.07,0,.09-.02c.02-.03,0-.07-.02-.09-.03-.02-.07,0-.09.02-.02.03,0,.07.02.09ZM7.16,16.2s.07,0,.09-.02c.02-.03,0-.07-.02-.09-.03-.02-.07,0-.09.02-.02.03,0,.07.02.09ZM7.46,16.2s.06,0,.06-.06-.03-.09-.06-.09-.06.03-.06.06.03.07.06.09ZM7.94,16.2s.06,0,.06-.06c0-.1-.04-.12-.09-.04-.02.03,0,.07.03.09ZM8.18,16.2s.07,0,.09-.02c.02-.03,0-.07-.02-.09s-.07,0-.09.02c-.02.03,0,.07.02.09ZM8.73,16.23s.06-.04.06-.09-.03-.09-.06-.09-.06.04-.06.09.03.09.06.09ZM8.97,16.2s.06,0,.06-.06c0-.1-.04-.12-.09-.04-.02.03,0,.07.03.09ZM9.44,16.2s.07,0,.09-.02c.02-.03,0-.07-.02-.09-.03-.02-.07,0-.09.02-.02.03,0,.07.02.09ZM9.75,16.23s.06-.04.06-.09-.03-.09-.06-.09-.06.04-.06.09.03.09.06.09ZM10.23,16.2s.06,0,.06-.06c0-.1-.04-.12-.09-.04-.02.03,0,.07.03.09ZM10.47,16.2s.07,0,.09-.02c.02-.03,0-.07-.02-.09-.03-.02-.07,0-.09.02-.02.03,0,.07.02.09ZM11.01,16.2s.06-.06.06-.09-.03-.06-.06-.06-.06.04-.06.09.03.08.06.06ZM11.25,16.2s.06,0,.06-.06c0-.1-.04-.12-.09-.04-.02.03,0,.07.03.09ZM11.73,16.2s.07,0,.09-.02c.02-.03,0-.07-.02-.09-.03-.02-.07,0-.09.02-.02.03,0,.07.02.09ZM12.03,16.23s.06-.04.06-.09-.03-.09-.06-.09-.06.04-.06.09.03.09.06.09ZM12.52,16.2s.06,0,.06-.06c0-.1-.04-.12-.09-.04-.02.03,0,.07.03.09ZM12.82,16.2s.05-.06.03-.09c-.05-.08-.09-.07-.09.04,0,.05.03.08.06.06ZM17.09,16.2s.06,0,.06-.06c0-.1-.04-.12-.09-.04-.02.03,0,.07.03.09ZM17.32,16.2s.07,0,.09-.02c.02-.03,0-.07-.02-.09-.03-.02-.07,0-.09.02-.02.03,0,.07.02.09ZM17.87,16.2s.05-.06.03-.09c-.05-.08-.09-.07-.09.04,0,.05.03.08.06.06ZM18.11,16.2s.06,0,.06-.06-.03-.09-.06-.09-.06.03-.06.06.03.07.06.09ZM18.59,16.2s.07,0,.09-.02c.02-.03,0-.07-.02-.09-.03-.02-.07,0-.09.02-.02.03,0,.07.02.09ZM18.89,16.2s.05-.06.03-.09c-.05-.08-.09-.07-.09.04,0,.05.03.08.06.06ZM19.38,16.23s.06-.04.06-.09-.03-.09-.06-.09-.06.04-.06.09.03.09.06.09ZM4.93,16.47s.06-.03.06-.06-.03-.06-.06-.06-.06.03-.06.06.03.06.06.06ZM5.18,16.47s.06-.03.06-.06-.03-.06-.06-.06-.06.03-.06.06.03.06.06.06ZM5.66,16.47s.06-.03.06-.06-.03-.06-.06-.06-.06.03-.06.06.03.06.06.06ZM5.96,16.47s.06-.03.06-.06-.03-.06-.06-.06-.06.03-.06.06.03.06.06.06ZM6.44,16.47s.06-.03.06-.06-.03-.06-.06-.06-.06.03-.06.06.03.06.06.06ZM6.68,16.47s.06-.03.06-.06-.03-.06-.06-.06-.06.03-.06.06.03.06.06.06ZM7.22,16.47s.06-.03.06-.06-.03-.06-.06-.06-.06.03-.06.06.03.06.06.06ZM7.46,16.47s.06-.03.06-.06-.03-.06-.06-.06-.06.03-.06.06.03.06.06.06ZM7.94,16.47s.06-.03.06-.06-.03-.06-.06-.06-.06.03-.06.06.03.06.06.06ZM8.24,16.47s.06-.03.06-.06-.03-.06-.06-.06-.06.03-.06.06.03.06.06.06ZM8.73,16.47s.06-.03.06-.06-.03-.06-.06-.06-.06.03-.06.06.03.06.06.06ZM8.97,16.47s.06-.03.06-.06-.03-.06-.06-.06-.06.03-.06.06.03.06.06.06ZM9.51,16.47s.06-.03.06-.06-.03-.06-.06-.06-.06.03-.06.06.03.06.06.06ZM9.75,16.47s.06-.03.06-.06-.03-.06-.06-.06-.06.03-.06.06.03.06.06.06ZM10.23,16.47s.06-.03.06-.06-.03-.06-.06-.06-.06.03-.06.06.03.06.06.06ZM10.53,16.47s.06-.03.06-.06-.03-.06-.06-.06-.06.03-.06.06.03.06.06.06ZM11.01,16.47s.06-.03.06-.06-.03-.06-.06-.06-.06.03-.06.06.03.06.06.06ZM11.25,16.47s.06-.03.06-.06-.03-.06-.06-.06-.06.03-.06.06.03.06.06.06ZM11.8,16.47s.06-.03.06-.06-.04-.06-.09-.06-.08.03-.06.06c.02.03.06.06.09.06ZM12.03,16.47s.06-.03.06-.06-.03-.06-.06-.06-.06.03-.06.06.03.06.06.06ZM12.52,16.47s.06-.03.06-.06-.03-.06-.06-.06-.06.03-.06.06.03.06.06.06ZM15.58,16.47s.06-.03.06-.06-.03-.06-.06-.06-.06.03-.06.06.03.06.06.06ZM15.83,16.47s.06-.03.06-.06-.03-.06-.06-.06-.06.03-.06.06.03.06.06.06ZM17.87,16.47s.06-.03.06-.06-.03-.06-.06-.06-.06.03-.06.06.03.06.06.06ZM18.11,16.47s.06-.03.06-.06-.03-.06-.06-.06-.06.03-.06.06.03.06.06.06ZM18.59,16.47s.07-.03.09-.06c.02-.03,0-.06-.06-.06s-.09.03-.09.06.03.06.06.06ZM18.89,16.47s.06-.03.06-.06-.03-.06-.06-.06-.06.03-.06.06.03.06.06.06ZM19.38,16.47s.06-.03.06-.06-.03-.06-.06-.06-.06.03-.06.06.03.06.06.06ZM19.61,16.47s.07-.03.09-.06c.02-.03,0-.06-.06-.06s-.09.03-.09.06.03.06.06.06ZM5.66,17.07s.06-.03.06-.06-.03-.06-.06-.06-.06.03-.06.06.03.06.06.06ZM5.96,17.07s.06-.03.06-.06-.03-.06-.06-.06-.06.03-.06.06.03.06.06.06ZM6.44,17.07s.06-.03.06-.06-.03-.06-.06-.06-.06.03-.06.06.03.06.06.06ZM6.68,17.07s.06-.03.06-.06-.03-.06-.06-.06-.06.03-.06.06.03.06.06.06ZM7.22,17.07s.06-.03.06-.06-.03-.06-.06-.06-.06.03-.06.06.03.06.06.06ZM7.46,17.07s.06-.03.06-.06-.03-.06-.06-.06-.06.03-.06.06.03.06.06.06ZM7.94,17.07s.06-.03.06-.06-.03-.06-.06-.06-.06.03-.06.06.03.06.06.06ZM8.24,17.07s.06-.03.06-.06-.03-.06-.06-.06-.06.03-.06.06.03.06.06.06ZM8.73,17.07s.06-.03.06-.06-.03-.06-.06-.06-.06.03-.06.06.03.06.06.06ZM8.97,17.07s.06-.03.06-.06-.03-.06-.06-.06-.06.03-.06.06.03.06.06.06ZM9.51,17.07s.06-.03.06-.06-.03-.06-.06-.06-.06.03-.06.06.03.06.06.06ZM9.75,17.07s.06-.03.06-.06-.03-.06-.06-.06-.06.03-.06.06.03.06.06.06ZM10.23,17.07s.06-.03.06-.06-.03-.06-.06-.06-.06.03-.06.06.03.06.06.06ZM10.53,17.07s.06-.03.06-.06-.03-.06-.06-.06-.06.03-.06.06.03.06.06.06ZM11.01,17.07s.06-.03.06-.06-.03-.06-.06-.06-.06.03-.06.06.03.06.06.06ZM11.25,17.07s.06-.03.06-.06-.03-.06-.06-.06-.06.03-.06.06.03.06.06.06ZM11.8,17.07s.06-.03.06-.06-.04-.06-.09-.06-.08.03-.06.06c.02.03.06.06.09.06ZM12.03,17.07s.06-.03.06-.06-.03-.06-.06-.06-.06.03-.06.06.03.06.06.06ZM13.54,17.07s.06-.03.06-.06-.03-.06-.06-.06-.06.03-.06.06.03.06.06.06ZM15.58,17.07s.06-.03.06-.06-.03-.06-.06-.06-.06.03-.06.06.03.06.06.06ZM15.83,17.07s.06-.03.06-.06-.03-.06-.06-.06-.06.03-.06.06.03.06.06.06ZM16.37,17.07s.06-.03.06-.06-.04-.06-.09-.06-.08.03-.06.06c.02.03.06.06.09.06ZM16.61,17.07s.06-.03.06-.06-.03-.06-.06-.06-.06.03-.06.06.03.06.06.06ZM5.65,17.31s.06-.03.06-.06-.01-.06-.03-.06-.04.03-.06.06c-.02.03,0,.06.03.06ZM5.96,17.31s.06-.03.06-.06-.03-.06-.06-.06-.06.03-.06.06.03.06.06.06ZM6.44,17.31s.06-.03.06-.06-.03-.06-.06-.06-.06.03-.06.06.03.06.06.06ZM6.71,17.31c.05,0,.08-.03.06-.06-.02-.03-.05-.06-.06-.06s-.04.03-.06.06c-.02.03,0,.06.06.06ZM7.22,17.33s.05-.06.03-.09c-.05-.08-.09-.07-.09.04,0,.05.03.08.06.06ZM7.46,17.31s.06-.03.06-.06-.03-.06-.06-.06-.06.03-.06.06.03.06.06.06ZM7.94,17.31s.06-.03.06-.06-.03-.06-.06-.06-.06.03-.06.06.03.06.06.06ZM8.25,17.31s.05-.03.03-.06-.05-.06-.06-.06-.03.03-.03.06.03.06.06.06ZM8.73,17.31s.06-.03.06-.06-.03-.06-.06-.06-.06.03-.06.06.03.06.06.06ZM8.97,17.31s.06-.03.06-.06-.03-.06-.06-.06-.06.03-.06.06.03.06.06.06ZM9.44,17.33s.07,0,.09-.02c.02-.03,0-.07-.02-.09-.03-.02-.07,0-.09.02-.02.03,0,.07.02.09ZM9.75,17.31s.06-.03.06-.06-.03-.06-.06-.06-.06.03-.06.06.03.06.06.06ZM10.23,17.31s.06-.03.06-.06-.03-.06-.06-.06-.06.03-.06.06.03.06.06.06ZM10.5,17.31c.05,0,.08-.03.06-.06-.02-.03-.05-.06-.06-.06s-.04.03-.06.06c-.02.03,0,.06.06.06ZM11.01,17.31s.06-.03.06-.06-.03-.06-.06-.06-.06.03-.06.06.03.06.06.06ZM11.25,17.31s.06-.03.06-.06-.03-.06-.06-.06-.06.03-.06.06.03.06.06.06ZM11.76,17.31c.05,0,.08-.03.06-.06-.02-.03-.05-.06-.06-.06s-.04.03-.06.06c-.02.03,0,.06.06.06ZM13.54,17.31s.06-.03.06-.06-.03-.06-.06-.06-.06.03-.06.06.03.06.06.06ZM15.83,17.31s.06-.03.06-.06-.03-.06-.06-.06-.06.03-.06.06.03.06.06.06ZM16.34,17.31c.05,0,.08-.03.06-.06-.02-.03-.05-.06-.06-.06s-.04.03-.06.06c-.02.03,0,.06.06.06ZM16.61,17.31s.06-.03.06-.06-.03-.06-.06-.06-.06.03-.06.06.03.06.06.06ZM17.09,17.31s.06-.03.06-.06-.03-.06-.06-.06-.06.03-.06.06.03.06.06.06ZM17.36,17.31c.05,0,.08-.03.06-.06-.02-.03-.05-.06-.06-.06s-.04.03-.06.06c-.02.03,0,.06.06.06ZM17.87,17.31s.06-.03.06-.06-.03-.06-.06-.06-.06.03-.06.06.03.06.06.06ZM18.11,17.31s.06-.03.06-.06-.03-.06-.06-.06-.06.03-.06.06.03.06.06.06ZM5.65,17.6s.07-.03.09-.06c.02-.03,0-.06-.06-.06s-.09.03-.09.06.03.06.06.06ZM5.96,17.6s.06-.03.06-.06-.03-.06-.06-.06-.06.03-.06.06.03.06.06.06ZM6.44,17.6s.06-.03.06-.06-.03-.06-.06-.06-.06.03-.06.06.03.06.06.06ZM6.65,17.54c.03.06.15.03.15-.03,0-.01-.04-.03-.09-.03s-.08.03-.06.06ZM7.22,17.6s.06-.03.06-.06-.03-.06-.06-.06-.06.03-.06.06.03.06.06.06ZM7.46,17.6s.06-.03.06-.06-.03-.06-.06-.06-.06.03-.06.06.03.06.06.06ZM7.94,17.6s.06-.03.06-.06-.03-.06-.06-.06-.06.03-.06.06.03.06.06.06ZM8.24,17.6s.06-.03.06-.06-.03-.06-.06-.06-.06.03-.06.06.03.06.06.06ZM8.73,17.6s.06-.03.06-.06-.03-.06-.06-.06-.06.03-.06.06.03.06.06.06ZM8.97,17.6s.06-.03.06-.06-.03-.06-.06-.06-.06.03-.06.06.03.06.06.06ZM9.42,17.54c.03.06.15.03.15-.03,0-.01-.04-.03-.09-.03s-.08.03-.06.06ZM9.75,17.6s.06-.03.06-.06-.03-.06-.06-.06-.06.03-.06.06.03.06.06.06ZM10.23,17.6s.06-.03.06-.06-.03-.06-.06-.06-.06.03-.06.06.03.06.06.06ZM10.53,17.6s.06-.03.06-.06-.04-.06-.09-.06-.08.03-.06.06c.02.03.06.06.09.06ZM11.01,17.6s.06-.03.06-.06-.03-.06-.06-.06-.06.03-.06.06.03.06.06.06ZM11.25,17.6s.06-.03.06-.06-.03-.06-.06-.06-.06.03-.06.06.03.06.06.06ZM12.82,17.6s.06-.03.06-.06-.03-.06-.06-.06-.06.03-.06.06.03.06.06.06ZM15.83,17.6s.06-.03.06-.06-.03-.06-.06-.06-.06.03-.06.06.03.06.06.06ZM16.28,17.54c.03.06.15.03.15-.03,0-.01-.04-.03-.09-.03s-.08.03-.06.06ZM16.61,17.6s.06-.03.06-.06-.03-.06-.06-.06-.06.03-.06.06.03.06.06.06ZM17.09,17.6s.06-.03.06-.06-.03-.06-.06-.06-.06.03-.06.06.03.06.06.06ZM17.3,17.54c.03.06.15.03.15-.03,0-.01-.04-.03-.09-.03s-.08.03-.06.06ZM17.87,17.6s.06-.03.06-.06-.03-.06-.06-.06-.06.03-.06.06.03.06.06.06ZM18.11,17.6s.06-.03.06-.06-.03-.06-.06-.06-.06.03-.06.06.03.06.06.06ZM5.69,17.84c.05,0,.08-.03.06-.06-.02-.03-.06-.06-.09-.06s-.06.03-.06.06.04.06.09.06ZM5.96,17.84s.06-.03.06-.06-.03-.06-.06-.06-.06.03-.06.06.03.06.06.06ZM6.44,17.84s.06-.03.06-.06-.03-.06-.06-.06-.06.03-.06.06.03.06.06.06ZM6.68,17.84s.06-.03.06-.06-.03-.06-.06-.06-.06.03-.06.06.03.06.06.06ZM7.22,17.84s.06-.03.06-.06-.03-.06-.06-.06-.06.03-.06.06.03.06.06.06ZM7.46,17.84s.06-.03.06-.06-.03-.06-.06-.06-.06.03-.06.06.03.06.06.06ZM7.94,17.84s.06-.03.06-.06-.03-.06-.06-.06-.06.03-.06.06.03.06.06.06ZM8.24,17.84s.06-.03.06-.06-.03-.06-.06-.06-.06.03-.06.06.03.06.06.06ZM8.73,17.84s.06-.03.06-.06-.03-.06-.06-.06-.06.03-.06.06.03.06.06.06ZM8.97,17.84s.06-.03.06-.06-.03-.06-.06-.06-.06.03-.06.06.03.06.06.06ZM9.51,17.84s.06-.03.06-.06-.03-.06-.06-.06-.06.03-.06.06.03.06.06.06ZM9.75,17.84s.06-.03.06-.06-.03-.06-.06-.06-.06.03-.06.06.03.06.06.06ZM10.23,17.84s.06-.03.06-.06-.03-.06-.06-.06-.06.03-.06.06.03.06.06.06ZM10.5,17.84c.05,0,.08-.03.06-.06-.02-.03-.05-.06-.06-.06s-.04.03-.06.06c-.02.03,0,.06.06.06ZM11.01,17.84s.06-.03.06-.06-.03-.06-.06-.06-.06.03-.06.06.03.06.06.06ZM12.52,17.84s.06-.03.06-.06-.03-.06-.06-.06-.06.03-.06.06.03.06.06.06ZM12.78,17.84c.05,0,.09-.03.09-.06s-.03-.06-.06-.06-.07.03-.09.06,0,.06.06.06ZM15.83,17.84s.06-.03.06-.06-.03-.06-.06-.06-.06.03-.06.06.03.06.06.06ZM16.34,17.84c.05,0,.08-.03.06-.06-.02-.03-.05-.06-.06-.06s-.04.03-.06.06c-.02.03,0,.06.06.06ZM16.61,17.84s.06-.03.06-.06-.03-.06-.06-.06-.06.03-.06.06.03.06.06.06ZM17.09,17.84s.06-.03.06-.06-.03-.06-.06-.06-.06.03-.06.06.03.06.06.06ZM17.36,17.84c.05,0,.08-.03.06-.06-.02-.03-.05-.06-.06-.06s-.04.03-.06.06c-.02.03,0,.06.06.06ZM17.87,17.84s.06-.03.06-.06-.03-.06-.06-.06-.06.03-.06.06.03.06.06.06ZM18.11,17.84s.06-.03.06-.06-.03-.06-.06-.06-.06.03-.06.06.03.06.06.06ZM6.44,18.44s.06-.03.06-.06-.03-.06-.06-.06-.06.03-.06.06.03.06.06.06ZM6.71,18.44c.05,0,.08-.03.06-.06-.02-.03-.06-.06-.09-.06s-.06.03-.06.06.04.06.09.06ZM7.22,18.44s.06-.03.06-.06-.03-.06-.06-.06-.06.03-.06.06.03.06.06.06ZM7.46,18.44s.06-.03.06-.06-.03-.06-.06-.06-.06.03-.06.06.03.06.06.06ZM7.94,18.44s.06-.03.06-.06-.03-.06-.06-.06-.06.03-.06.06.03.06.06.06ZM8.24,18.44s.06-.03.06-.06-.03-.06-.06-.06-.06.03-.06.06.03.06.06.06ZM8.73,18.44s.06-.03.06-.06-.03-.06-.06-.06-.06.03-.06.06.03.06.06.06ZM8.97,18.44s.06-.03.06-.06-.03-.06-.06-.06-.06.03-.06.06.03.06.06.06ZM9.47,18.44c.05,0,.09-.03.09-.06s-.03-.06-.06-.06-.07.03-.09.06c-.02.03,0,.06.06.06ZM9.75,18.44s.06-.03.06-.06-.03-.06-.06-.06-.06.03-.06.06.03.06.06.06ZM10.23,18.44s.06-.03.06-.06-.03-.06-.06-.06-.06.03-.06.06.03.06.06.06ZM10.5,18.44c.05,0,.09-.03.09-.06s-.03-.06-.06-.06-.07.03-.09.06c-.02.03,0,.06.06.06ZM12.03,18.44s.06-.03.06-.06-.03-.06-.06-.06-.06.03-.06.06.03.06.06.06ZM12.52,18.44s.06-.03.06-.06-.03-.06-.06-.06-.06.03-.06.06.03.06.06.06ZM12.82,18.44s.06-.03.06-.06-.03-.06-.06-.06-.06.03-.06.06.03.06.06.06ZM15.83,18.44s.06-.03.06-.06-.03-.06-.06-.06-.06.03-.06.06.03.06.06.06ZM16.34,18.44c.05,0,.08-.03.06-.06-.02-.03-.05-.06-.06-.06s-.04.03-.06.06c-.02.03,0,.06.06.06ZM16.61,18.44s.06-.03.06-.06-.03-.06-.06-.06-.06.03-.06.06.03.06.06.06ZM17.09,18.44s.06-.03.06-.06-.03-.06-.06-.06-.06.03-.06.06.03.06.06.06ZM17.36,18.44c.05,0,.08-.03.06-.06-.02-.03-.05-.06-.06-.06s-.04.03-.06.06c-.02.03,0,.06.06.06ZM17.87,18.44s.06-.03.06-.06-.03-.06-.06-.06-.06.03-.06.06.03.06.06.06ZM18.11,18.44s.06-.03.06-.06-.03-.06-.06-.06-.06.03-.06.06.03.06.06.06ZM6.67,18.7s.07,0,.09-.02c.02-.03,0-.07-.02-.09-.03-.02-.07,0-.09.02-.02.03,0,.07.02.09ZM7.22,18.71s.05-.06.03-.09c-.05-.08-.09-.07-.09.04,0,.05.03.08.06.06ZM7.94,18.71s.06,0,.06-.06c0-.1-.04-.12-.09-.04-.02.03,0,.07.03.09ZM8.18,18.7s.07,0,.09-.02c.02-.03,0-.07-.02-.09-.03-.02-.07,0-.09.02-.02.03,0,.07.02.09ZM8.97,18.71s.06,0,.06-.06c0-.1-.04-.12-.09-.04-.02.03,0,.07.03.09ZM9.44,18.7s.07,0,.09-.02c.02-.03,0-.07-.02-.09-.03-.02-.07,0-.09.02-.02.03,0,.07.02.09ZM9.75,18.74s.06-.03.06-.06-.03-.07-.06-.09c-.03-.02-.06,0-.06.06s.03.09.06.09ZM12.03,18.74s.06-.03.06-.06-.03-.07-.06-.09c-.03-.02-.06,0-.06.06s.03.09.06.09ZM12.82,18.71s.05-.06.03-.09c-.05-.08-.09-.07-.09.04,0,.05.03.08.06.06ZM15.8,18.61c-.05.08,0,.17.06.11.02-.02.03-.07.01-.11-.02-.06-.03-.06-.07,0ZM16.3,18.7s.07,0,.09-.02c.02-.03,0-.07-.02-.09-.03-.02-.07,0-.09.02-.02.03,0,.07.02.09ZM16.67,18.68s-.03.06-.06.06l.06-.06ZM16.61,18.74s-.06-.04-.06-.09l.06.09Z"/></svg>