<svg width="20" height="20" viewBox="0 0 20 20" fill="none" xmlns="http://www.w3.org/2000/svg">
<g clip-path="url(#clip0_23474_75425)">
<path d="M10 20C15.5228 20 20 15.5228 20 10C20 4.47715 15.5228 0 10 0C4.47715 0 0 4.47715 0 10C0 15.5228 4.47715 20 10 20Z" fill="#FF0420"/>
<path d="M7.08215 12.6519C6.56186 12.6741 6.04843 12.5267 5.6192 12.2318C5.43377 12.0902 5.28564 11.9055 5.18761 11.6937C5.08958 11.482 5.0446 11.2496 5.05658 11.0165C5.05887 10.8808 5.07142 10.7453 5.09412 10.6115C5.15915 10.2508 5.25166 9.81818 5.37166 9.31359C5.71177 7.93818 6.58948 7.25047 8.00478 7.25047C8.35952 7.24466 8.71173 7.31104 9.04002 7.44556C9.33143 7.55977 9.58217 7.75828 9.76019 8.01572C9.9397 8.28098 10.0314 8.59588 10.0225 8.91605C10.0199 9.04931 10.0074 9.1822 9.98494 9.31359C9.90986 9.75873 9.81986 10.1913 9.71494 10.6115C9.54008 11.2966 9.23751 11.8092 8.80724 12.1493C8.3774 12.4844 7.80237 12.6519 7.08215 12.6519ZM7.18724 11.5716C7.44707 11.5788 7.70057 11.4908 7.90002 11.3241C8.12045 11.1242 8.27041 10.8584 8.32756 10.5664C8.44265 10.0964 8.53008 9.68632 8.58986 9.33605C8.60998 9.22969 8.62003 9.12167 8.61986 9.01342C8.61986 8.55823 8.38232 8.33069 7.90724 8.3308C7.6453 8.32452 7.38979 8.41234 7.18707 8.57834C6.97072 8.78036 6.82367 9.04553 6.76691 9.33605C6.67685 9.67113 6.58685 10.0812 6.49691 10.5664C6.47655 10.6702 6.4665 10.7757 6.46691 10.8815C6.46691 11.3416 6.70702 11.5716 7.18724 11.5716Z" fill="white"/>
<path d="M10.3684 12.577C10.3446 12.5784 10.3207 12.5744 10.2986 12.5653C10.2766 12.5563 10.2568 12.5423 10.2409 12.5246C10.2159 12.4842 10.2078 12.4357 10.2184 12.3895L11.2536 7.51308C11.2628 7.45927 11.2921 7.41097 11.3356 7.378C11.3758 7.34482 11.4261 7.32633 11.4782 7.32554H13.4738C13.9436 7.30249 14.4094 7.42284 14.8092 7.67062C14.9736 7.7783 15.1071 7.92696 15.1966 8.10193C15.286 8.27691 15.3284 8.47218 15.3194 8.66849C15.3187 8.7998 15.3035 8.93064 15.2743 9.05866C15.1916 9.56412 14.9209 10.0197 14.5166 10.3341C14.1415 10.6091 13.6264 10.7467 12.9712 10.7467H11.9586L11.6135 12.3896C11.6043 12.4434 11.575 12.4917 11.5315 12.5247C11.4914 12.5579 11.4411 12.5764 11.3891 12.5772L10.3684 12.577ZM13.0241 9.71112C13.2207 9.71545 13.4132 9.65483 13.5718 9.53866C13.7351 9.4188 13.8475 9.24218 13.8869 9.04357C13.9009 8.96933 13.9084 8.89402 13.9094 8.81849C13.9136 8.75747 13.9044 8.69626 13.8824 8.6392C13.8604 8.58214 13.826 8.53064 13.7818 8.48833C13.6567 8.39587 13.5016 8.35311 13.3468 8.36833H12.4466L12.1615 9.71112H13.0241Z" fill="white"/>
</g>
<defs>
<clipPath id="clip0_23474_75425">
<rect width="20" height="20" fill="white"/>
</clipPath>
</defs>
</svg>
