<svg width="21" height="20" viewBox="0 0 21 20" fill="none" xmlns="http://www.w3.org/2000/svg">
<circle cx="10.142" cy="10.2334" r="9.75947" fill="#F00500"/>
<path d="M12.7461 6.33329C12.2736 6.17382 11.1019 5.85489 10.1947 5.85489C9.07486 5.85489 7.94444 6.10295 7.51921 6.22698C5.83242 4.29921 4.5248 3.6519 4.08184 3.56921C3.13213 5.12844 3.94601 8.19963 4.47166 9.54032C4.02279 10.3613 3.17465 12.3363 3.3731 13.6687C3.62116 15.3342 6.72188 18.435 10.301 18.435C13.8801 18.435 16.591 15.2634 16.7682 13.6687C16.91 12.393 16.1658 10.3849 15.776 9.54032C16.9525 6.05334 16.6088 4.16573 16.2898 3.65781C15.0141 3.67198 13.3958 5.44737 12.7461 6.33329Z" fill="#FFA409"/>
<path d="M7.91234 9.50308C7.76608 9.08571 7.44858 8.82975 7.0116 8.88326C6.57463 8.93677 6.25799 9.1731 6.25799 9.65915C6.25799 10.1452 6.68607 10.1675 7.1632 10.1318C7.64033 10.0962 8.09516 10.0248 7.91234 9.50308Z" fill="white"/>
<path d="M10.301 18.435C13.8801 18.435 16.591 15.2634 16.7682 13.6688C16.0442 13.4576 14.2697 13.3787 12.9632 14.7522C12.8469 13.9054 12.1229 12.2117 10.1575 12.2117C8.19215 12.2117 7.34719 13.9054 7.17038 14.7522C6.80241 14.2672 5.52778 13.3715 3.37305 13.6688C3.62111 15.3343 6.72183 18.435 10.301 18.435Z" fill="white"/>
<path d="M13.0618 8.88326C12.6249 8.82975 12.3074 9.08571 12.1611 9.50308C11.9783 10.0248 12.4331 10.0962 12.9103 10.1318C13.3874 10.1675 13.8155 10.1452 13.8155 9.65915C13.8155 9.1731 13.4988 8.93677 13.0618 8.88326Z" fill="white"/>
<path d="M4.77597 8.5868C4.44419 7.86794 3.88015 6.07948 4.2783 4.67651C4.71276 4.75551 5.82343 5.22632 6.79033 6.47762C6.36378 6.6988 5.36373 7.43031 4.77597 8.5868Z" fill="#FF8300"/>
<path d="M15.3271 8.5868C15.6589 7.86794 16.2229 6.07948 15.8248 4.67651C15.3903 4.75551 14.2796 5.22632 13.3127 6.47762C13.7393 6.6988 14.7393 7.43031 15.3271 8.5868Z" fill="#FF8300"/>
<path d="M8.62148 12.1367C8.61737 11.9355 8.31101 11.3447 7.3548 10.9307C6.39865 10.5166 6.12016 10.5062 6.07087 10.5103C6.00106 10.6335 5.88852 10.981 5.99696 11.3851C6.40808 11.7006 7.53164 12.3964 8.62148 12.1367Z" fill="black"/>
<path d="M11.6331 12.1367C11.6372 11.9355 11.9435 11.3447 12.8997 10.9307C13.8559 10.5166 14.1344 10.5062 14.1837 10.5103C14.2535 10.6335 14.366 10.981 14.2576 11.3851C13.8465 11.7006 12.7229 12.3964 11.6331 12.1367Z" fill="black"/>
<path d="M10.4586 14.8683C10.9463 14.7856 11.3176 14.3611 11.3176 13.8499V13.6616C11.3176 13.4086 11.1126 13.2036 10.8597 13.2036H9.70971C9.45679 13.2036 9.25175 13.4086 9.25175 13.6616V13.8499C9.25175 14.3962 9.67589 14.8435 10.2128 14.8804L9.98366 15.6307L8.51704 15.5608L9.13981 16.6608L9.20962 15.8286C9.63834 15.8945 10.6797 15.9869 11.4154 15.8286L11.5201 16.6608C11.7064 16.2941 12.073 15.5608 12.0498 15.5608C12.0264 15.5608 11.1438 15.6074 10.7053 15.6307L10.4609 14.8683H10.4586Z" fill="black"/>
<path d="M10.8916 16.0555H9.61122L9.82654 16.3174L9.98366 16.1836L10.2805 16.4804L10.554 16.1836L10.7053 16.3174L10.8916 16.0555Z" fill="black"/>
</svg>
