<svg width="127" height="129" viewBox="0 0 127 129" fill="none" xmlns="http://www.w3.org/2000/svg">
<path d="M6 67.9977C6 31.7447 29.8242 8 66.1047 8C102.376 8 126 31.7401 126 67.9977C126 104.255 102.385 128 66.1047 128C29.6196 128 6 104.251 6 67.9977Z" fill="black" stroke="black" stroke-width="1.2"/>
<path d="M0.599304 60.9118C0.599304 24.6588 24.4235 0.914062 60.704 0.914062C96.9751 0.914062 120.599 24.6541 120.599 60.9118C120.599 97.1694 96.9844 120.914 60.704 120.914C24.2189 120.914 0.599304 97.1648 0.599304 60.9118Z" fill="#616161" stroke="black" stroke-width="1.2"/>
<path d="M61.1847 41.1719C62.9877 41.2702 64.307 41.8936 65.0443 43.4871C66.1074 45.779 66.9921 48.1589 68.5649 50.1921C70.7973 53.079 73.5575 55.2468 76.9333 56.6333C77.7248 56.9592 78.5216 57.2852 79.2847 57.6706C80.7721 58.4208 81.5042 59.6883 81.4835 61.3232C81.4628 62.9425 80.7773 64.2385 79.2537 64.9551C76.9281 66.0493 74.5017 66.9418 72.4374 68.5482C69.7057 70.6771 67.6 73.2743 66.2316 76.4664C65.8772 77.2942 65.4866 78.1065 65.1322 78.9369C64.4338 80.5795 63.1662 81.4047 61.4149 81.4228C59.6637 81.4409 58.3547 80.6467 57.6304 79.0274C56.6319 76.795 55.7498 74.5108 54.2469 72.5396C51.9549 69.5363 49.0939 67.3065 45.5759 65.8889C44.0445 65.2707 42.3501 64.8128 41.6025 63.0615C40.6868 60.9171 41.4964 58.6433 43.5969 57.6137C45.7492 56.5557 48.0333 55.7719 49.9864 54.3077C53.1268 51.9537 55.4135 48.9815 56.8673 45.3341C57.5114 43.7173 58.0417 41.9402 60.0595 41.4202C60.4708 41.3141 60.8898 41.2365 61.1821 41.1719H61.1847Z" fill="white"/>
<path opacity="0.5" d="M67.2276 99.9519C69.2039 97.7299 69.9257 95.1327 70.9707 92.7088C75.3554 82.5349 82.614 75.2685 92.7983 70.8994C95.2248 69.8595 97.8116 69.1196 99.9069 67.252C98.5333 81.9011 85.087 97.7066 67.2276 99.9519Z" fill="white"/>
<path opacity="0.5" d="M22.7109 55.5412C25.008 38.3595 39.4451 24.6908 55.2583 22.7041C51.9989 28.0588 50.3951 34.2491 46.3726 39.2391C41.4343 45.3621 35.3165 49.6743 28.076 52.5353C26.2497 53.257 24.3898 53.9244 22.7135 55.5412H22.7109Z" fill="white"/>
<path opacity="0.5" d="M100 55.4974C97.6409 53.3038 94.7902 52.6027 92.1827 51.4542C83.1314 47.4731 76.4755 41.0138 72.0185 32.2445C71.0303 30.2992 70.2025 28.2685 69.3902 26.2405C68.8936 24.9988 68.2184 23.8813 67.3518 22.7793C82.2028 24.1943 97.8634 37.8941 100 55.4948V55.4974Z" fill="white"/>
<path opacity="0.5" d="M22.7731 67.376C26.8112 70.1672 31.6563 71.2407 35.7641 73.8663C42.6865 78.2949 47.886 84.1541 51.2954 91.6378C52.5681 94.4289 53.3804 97.4426 55.4524 99.9647C38.4648 97.7375 24.6951 83.1711 22.7757 67.376H22.7731Z" fill="white"/>
</svg>
