<svg width="20" height="20" viewBox="0 0 20 20" fill="none" xmlns="http://www.w3.org/2000/svg">
<circle cx="10" cy="10" r="10" fill="#19D16F"/>
<g opacity="0.963">
<path fill-rule="evenodd" clip-rule="evenodd" d="M8.91975 3.4375C9.02778 3.4375 9.1358 3.4375 9.24383 3.4375C9.36144 4.10221 9.49647 4.76397 9.64892 5.42279C9.90098 5.79044 10.153 5.79044 10.4051 5.42279C10.5397 4.76354 10.6567 4.10177 10.7562 3.4375C10.8462 3.4375 10.9362 3.4375 11.0262 3.4375C11.5251 3.59098 11.9932 3.82076 12.4306 4.12684C11.8206 5.16089 11.2175 6.1995 10.6211 7.24265C10.2251 7.68382 9.82896 7.68382 9.43287 7.24265C8.81816 6.19855 8.19701 5.15994 7.56944 4.12684C7.61113 4.0595 7.66514 4.00436 7.73148 3.9614C8.11747 3.74785 8.51356 3.57321 8.91975 3.4375Z" fill="#FEFEFE"/>
<path fill-rule="evenodd" clip-rule="evenodd" d="M12.5926 7.73897C13.1867 7.73897 13.7809 7.73897 14.375 7.73897C14.3596 8.32194 14.2696 8.89179 14.1049 9.44853C13.5609 9.29097 13.0207 9.11632 12.4846 8.92463C11.9979 8.87006 11.8269 9.08147 11.9715 9.55882C12.4381 9.93415 12.8792 10.3386 13.2948 10.7721C12.9261 11.2036 12.494 11.5529 11.9985 11.8199C11.4177 10.7994 10.8505 9.76998 10.2971 8.73162C10.2079 8.24206 10.3969 7.93875 10.8642 7.82169C11.4497 7.81234 12.0259 7.78476 12.5926 7.73897Z" fill="#FEFEFE"/>
<path fill-rule="evenodd" clip-rule="evenodd" d="M5.625 7.79412C6.88635 7.77746 8.14664 7.80503 9.40586 7.87684C9.7651 8.08596 9.88212 8.38926 9.75694 8.78676C9.21184 9.81118 8.68071 10.8406 8.16358 11.875C8.10957 11.875 8.05556 11.875 8.00154 11.875C7.52677 11.6139 7.11267 11.2739 6.75926 10.8548C7.21724 10.424 7.67634 9.99206 8.13657 9.55882C8.25995 9.21289 8.14293 8.9923 7.78549 8.89706C7.16957 9.10667 6.55743 9.32726 5.94907 9.55882C5.80679 9.23318 5.69877 8.90231 5.625 8.56618C5.625 8.30882 5.625 8.05147 5.625 7.79412Z" fill="#FEFEFE"/>
</g>
<g opacity="0.94">
<path fill-rule="evenodd" clip-rule="evenodd" d="M3.12731 12.8148C3.33618 12.8148 3.54501 12.8148 3.75388 12.8148C3.73774 13.4007 3.75616 13.9846 3.80917 14.5664C3.91436 14.7615 4.08021 14.8588 4.30674 14.8583C4.57071 14.8583 4.74884 14.7366 4.84116 14.4934C4.85959 13.934 4.86575 13.3744 4.85959 12.8148C5.08073 12.8148 5.30188 12.8148 5.52302 12.8148C5.52917 13.3015 5.52302 13.788 5.50459 14.2744C5.44297 14.9983 5.04366 15.3632 4.30674 15.3692C3.70858 15.3929 3.32158 15.1253 3.14574 14.5664C3.12731 13.9826 3.12115 13.3988 3.12731 12.8148Z" fill="#FEFFFE"/>
<path fill-rule="evenodd" clip-rule="evenodd" d="M5.63359 12.8513C5.87268 12.8091 6.1184 12.8031 6.37073 12.833C6.54772 13.0922 6.73816 13.3415 6.94201 13.5811C7.11303 13.3327 7.29116 13.0894 7.47644 12.8513C7.70986 12.8026 7.94331 12.8026 8.17673 12.8513C7.88187 13.2405 7.58701 13.6297 7.29216 14.019C7.6116 14.4447 7.931 14.8705 8.25044 15.2962C8.00471 15.3448 7.75902 15.3448 7.5133 15.2962C7.31954 15.0221 7.11683 14.7545 6.90516 14.4934C6.70694 14.7703 6.50422 15.044 6.29701 15.3144C6.06264 15.3448 5.82919 15.3387 5.59673 15.2962C5.90906 14.8714 6.2285 14.4517 6.55501 14.0372C6.25161 13.6361 5.94444 13.2408 5.63359 12.8513Z" fill="#FEFFFE"/>
<path fill-rule="evenodd" clip-rule="evenodd" d="M8.32415 12.8148C8.53302 12.8148 8.74186 12.8148 8.95072 12.8148C8.95072 13.4838 8.95072 14.1528 8.95072 14.8218C9.39301 14.8218 9.83529 14.8218 10.2776 14.8218C10.2776 14.9921 10.2776 15.1624 10.2776 15.3327C9.62643 15.3327 8.97531 15.3327 8.32415 15.3327C8.32415 14.4934 8.32415 13.6541 8.32415 12.8148Z" fill="#FEFFFE"/>
<path fill-rule="evenodd" clip-rule="evenodd" d="M10.425 12.8148C10.6339 12.8148 10.8427 12.8148 11.0516 12.8148C11.0516 13.6541 11.0516 14.4934 11.0516 15.3327C10.8427 15.3327 10.6339 15.3327 10.425 15.3327C10.425 14.4934 10.425 13.6541 10.425 12.8148Z" fill="#FEFFFE"/>
<path fill-rule="evenodd" clip-rule="evenodd" d="M11.4939 12.8148C11.6786 12.8087 11.8628 12.8148 12.0467 12.833C12.4583 13.3135 12.8698 13.794 13.2814 14.2744C13.2999 13.788 13.306 13.3015 13.2999 12.8148C13.5087 12.8148 13.7176 12.8148 13.9264 12.8148C13.9264 13.6541 13.9264 14.4934 13.9264 15.3327C13.7417 15.3388 13.5575 15.3327 13.3736 15.3144C12.962 14.834 12.5504 14.3535 12.1389 13.873C12.1204 14.3594 12.1143 14.846 12.1204 15.3327C11.9116 15.3327 11.7027 15.3327 11.4939 15.3327C11.4939 14.4934 11.4939 13.6541 11.4939 12.8148Z" fill="#FEFFFE"/>
<path fill-rule="evenodd" clip-rule="evenodd" d="M16.875 15.2597C16.875 15.2841 16.875 15.3084 16.875 15.3327C16.629 15.3388 16.3833 15.3327 16.1379 15.3144C15.8734 14.998 15.6031 14.6878 15.327 14.3839C15.217 14.4745 15.1126 14.5719 15.0137 14.6758C14.9953 14.8945 14.9892 15.1134 14.9953 15.3327C14.7864 15.3327 14.5776 15.3327 14.3687 15.3327C14.3687 14.4934 14.3687 13.6541 14.3687 12.8148C14.5776 12.8148 14.7864 12.8148 14.9953 12.8148C14.9892 13.1799 14.9953 13.5448 15.0137 13.9095C15.3761 13.5507 15.7386 13.1918 16.101 12.833C16.3344 12.8087 16.5679 12.8087 16.8013 12.833C16.4584 13.209 16.1021 13.5739 15.7324 13.9278C16.1083 14.3787 16.4891 14.8227 16.875 15.2597Z" fill="#FEFFFE"/>
</g>
</svg>
