<?xml version="1.0" encoding="UTF-8"?>
<!DOCTYPE svg PUBLIC "-//W3C//DTD SVG 1.1//EN" "http://www.w3.org/Graphics/SVG/1.1/DTD/svg11.dtd">
<svg xmlns="http://www.w3.org/2000/svg" version="1.1" width="1689px" height="1689px" style="shape-rendering:geometricPrecision; text-rendering:geometricPrecision; image-rendering:optimizeQuality; fill-rule:evenodd; clip-rule:evenodd" xmlns:xlink="http://www.w3.org/1999/xlink">
<g><path style="opacity:0.999" fill="#f30019" d="M 802.5,-0.5 C 830.167,-0.5 857.833,-0.5 885.5,-0.5C 1127.8,16.0698 1328.63,115.07 1488,296.5C 1609.91,442.757 1676.75,611.424 1688.5,802.5C 1688.5,830.167 1688.5,857.833 1688.5,885.5C 1671.93,1127.8 1572.93,1328.63 1391.5,1488C 1245.24,1609.91 1076.58,1676.75 885.5,1688.5C 857.833,1688.5 830.167,1688.5 802.5,1688.5C 560.202,1671.93 359.369,1572.93 200,1391.5C 78.0878,1245.24 11.2545,1076.58 -0.5,885.5C -0.5,857.833 -0.5,830.167 -0.5,802.5C 16.0698,560.202 115.07,359.369 296.5,200C 442.757,78.0878 611.424,11.2545 802.5,-0.5 Z"/></g>
<g><path style="opacity:1" fill="#fffefe" d="M 1390.5,1179.5 C 1028.5,1180.83 666.5,1180.83 304.5,1179.5C 485.11,873.568 666.11,567.901 847.5,262.5C 1028.93,567.923 1209.93,873.59 1390.5,1179.5 Z"/></g>
<g><path style="opacity:1" fill="#f30019" d="M 846.5,585.5 C 848.074,585.937 849.241,586.937 850,588.5C 931.634,726.964 1013.47,865.297 1095.5,1003.5C 930.167,1004.83 764.833,1004.83 599.5,1003.5C 681.888,864.132 764.221,724.799 846.5,585.5 Z"/></g>
<g><path style="opacity:1" fill="#fcbfc5" d="M 304.5,1179.5 C 666.5,1180.83 1028.5,1180.83 1390.5,1179.5C 1391.04,1179.56 1391.38,1179.89 1391.5,1180.5C 1028.83,1181.83 666.167,1181.83 303.5,1180.5C 303.624,1179.89 303.957,1179.56 304.5,1179.5 Z"/></g>
</svg>
