<svg width="426" height="426" viewBox="0 0 426 426" fill="none" xmlns="http://www.w3.org/2000/svg">
<g clip-path="url(#clip0_5_3)">
<mask id="mask0_5_3" style="mask-type:luminance" maskUnits="userSpaceOnUse" x="0" y="0" width="426" height="426">
<path d="M426 0H0V426H426V0Z" fill="white"/>
</mask>
<g mask="url(#mask0_5_3)">
<path d="M212.999 426C330.636 426 426 330.636 426 213C426 95.3641 330.636 0 212.999 0C95.3627 0 0 95.3633 0 213C0 330.636 95.3629 426 212.999 426Z" fill="black"/>
<path d="M212.988 91.5991C203.869 91.6447 194.848 93.4957 186.441 97.0468C178.033 100.598 170.404 105.78 163.988 112.296C157.573 118.812 152.497 126.535 149.05 135.023C145.603 143.512 143.854 152.6 143.901 161.769V184.947H200.035V151.367C200.034 149.79 200.343 148.228 200.942 146.771C201.542 145.314 202.422 143.99 203.531 142.875C204.64 141.76 205.956 140.876 207.406 140.272C208.855 139.669 210.408 139.358 211.976 139.359H214.001C215.569 139.358 217.122 139.669 218.57 140.272C220.021 140.876 221.337 141.76 222.447 142.875C223.556 143.99 224.436 145.314 225.037 146.771C225.635 148.228 225.944 149.79 225.944 151.367V241.386C233.316 241.386 240.615 239.925 247.425 237.09C254.237 234.253 260.424 230.095 265.639 224.856C270.851 219.616 274.985 213.392 277.805 206.545C280.628 199.698 282.078 192.358 282.078 184.947V161.769C282.119 143.192 274.842 125.354 261.841 112.155C255.462 105.641 247.857 100.469 239.47 96.9399C231.084 93.4109 222.08 91.5953 212.988 91.5991ZM214.003 286.954H211.979C210.411 286.954 208.858 286.643 207.409 286.04C205.96 285.435 204.643 284.551 203.534 283.435C202.425 282.321 201.546 280.998 200.946 279.541C200.346 278.084 200.037 276.523 200.037 274.945L200.035 184.947C192.663 184.946 185.366 186.386 178.555 189.222C171.744 192.058 165.556 196.215 160.343 201.456C155.131 206.697 150.996 212.919 148.175 219.767C145.354 226.615 143.903 233.955 143.904 241.365V264.22C143.81 273.403 145.528 282.513 148.958 291.022C152.388 299.533 157.462 307.276 163.887 313.802C170.312 320.326 177.96 325.509 186.388 329.044C194.817 332.58 203.859 334.401 212.992 334.401C222.125 334.401 231.167 332.58 239.595 329.044C248.024 325.509 255.672 320.326 262.097 313.802C268.523 307.276 273.596 299.533 277.026 291.022C280.457 282.513 282.174 273.403 282.08 264.22V241.365L225.944 241.386L225.946 274.945C225.946 276.523 225.637 278.084 225.037 279.541C224.436 280.998 223.556 282.321 222.449 283.437C221.339 284.551 220.023 285.435 218.572 286.04C217.124 286.643 215.571 286.954 214.003 286.954Z" fill="white"/>
</g>
</g>
<defs>
<clipPath id="clip0_5_3">
<rect width="426" height="426" fill="white"/>
</clipPath>
</defs>
</svg>
