<svg id="Layer_1" data-name="Layer 1" xmlns="http://www.w3.org/2000/svg" xmlns:xlink="http://www.w3.org/1999/xlink" viewBox="0 0 207.67 207.67"><defs><style>.cls-1{fill:none;}.cls-2{fill:#259ecc;}.cls-3{fill:#e30a7d;}.cls-4{fill:url(#linear-gradient);}</style><linearGradient id="linear-gradient" x1="352.28" y1="-751.35" x2="483.78" y2="-681.93" gradientTransform="translate(522.67 1192.87) rotate(-45)" gradientUnits="userSpaceOnUse"><stop offset="0.2" stop-color="#279ecc"/><stop offset="0.81" stop-color="#e4097d"/></linearGradient></defs><rect class="cls-1" width="207.67" height="207.67"/><circle cx="103.86" cy="103.83" r="81.42"/><circle class="cls-2" cx="53.75" cy="132.39" r="4.15"/><circle class="cls-3" cx="153.39" cy="75.87" r="4.15"/><path class="cls-4" d="M354,350.5h0a5.53,5.53,0,0,0-7.82,0L338,358.71l-7.8,7.8a5.53,5.53,0,0,1-7.82,0h0a5.53,5.53,0,0,1,0-7.82l4.31-4.31a5.53,5.53,0,0,0,0-7.82h0a5.53,5.53,0,0,0-7.82,0l-54.77,54.77a5.53,5.53,0,0,0,0,7.82h0a5.53,5.53,0,0,0,7.82,0l6.05-6a5.53,5.53,0,0,1,7.82,0h0a5.53,5.53,0,0,1,0,7.82l-27.59,27.59a5.53,5.53,0,0,0,0,7.82h0a5.54,5.54,0,0,0,7.83,0l9.27-9.27a5.53,5.53,0,0,1,7.82,0h0a5.53,5.53,0,0,0,7.82,0l8.2-8.2a5.53,5.53,0,0,1,7.82,0h0a5.53,5.53,0,0,0,7.82,0l38.93-38.93a5.53,5.53,0,0,0,0-7.82h0a5.53,5.53,0,0,0-7.82,0l-.4.4L340,388a5.53,5.53,0,0,1-7.82,0h0a5.53,5.53,0,0,1,0-7.82l6.81-6.8,15-15A5.53,5.53,0,0,0,354,350.5Z" transform="translate(-202.27 -292.61)"/></svg>