<svg width="20" height="20" viewBox="0 0 20 20" fill="none" xmlns="http://www.w3.org/2000/svg">
<g clip-path="url(#clip0_10546_148848)">
<circle cx="10" cy="10" r="10" fill="white"/>
<path fill-rule="evenodd" clip-rule="evenodd" d="M10 20C15.523 20 20 15.523 20 10C20 4.477 15.523 0 10 0C4.477 0 0 4.477 0 10C0 15.523 4.477 20 10 20ZM9.697 5.47C11.091 5.086 12.473 6.145 12.4705 7.6135C12.4705 7.7885 12.45 7.9585 12.4115 8.123C12.1469 8.12404 11.8835 8.16036 11.6285 8.231L7.3095 9.421L5.6015 6.5985L9.6965 5.4705L9.697 5.47ZM13.252 7.615C13.252 7.8235 13.23 8.028 13.1885 8.226C13.8226 8.40055 14.3818 8.77883 14.7797 9.30253C15.1776 9.82623 15.3923 10.4663 15.3905 11.124C15.3905 12.472 14.498 13.6565 13.2045 14.016L8.0195 15.456L5.4715 11.2445L10.8565 9.7495C11.3279 9.6183 11.7419 9.33317 12.0325 8.9395C11.9664 8.95154 11.9008 8.96656 11.836 8.9845L6.947 10.331L4.3985 6.1195L9.49 4.717C11.39 4.1935 13.2545 5.639 13.252 7.615ZM11.066 10.502C11.4666 10.3904 11.8394 10.1961 12.1604 9.93176C12.4815 9.66739 12.7436 9.33876 12.93 8.967C13.4111 9.0865 13.8381 9.36404 14.1426 9.75516C14.4472 10.1463 14.6116 10.6283 14.6095 11.124C14.611 11.6079 14.4541 12.079 14.1626 12.4652C13.8712 12.8515 13.4612 13.1317 12.9955 13.263L8.3815 14.5445L6.673 11.7215L11.066 10.502Z" fill="#FF474C"/>
</g>
<defs>
<clipPath id="clip0_10546_148848">
<rect width="20" height="20" fill="white"/>
</clipPath>
</defs>
</svg>
