<svg width="20" height="20" viewBox="0 0 20 20" fill="none" xmlns="http://www.w3.org/2000/svg">
<circle cx="10" cy="10" r="10" fill="black"/>
<path d="M14.8559 3.51416C14.257 3.51416 13.7715 4.00016 13.7715 4.59968C13.7715 4.70126 13.7854 4.79957 13.8115 4.89282C14.4247 4.63941 15.1243 4.49095 15.9337 4.47817C15.8733 3.93584 15.4138 3.51416 14.8559 3.51416Z" fill="#ABF600"/>
<path d="M15.9373 4.67651C15.1516 4.68881 14.4745 4.83258 13.8818 5.0782C14.0585 5.43774 14.4282 5.68516 14.8555 5.68516C15.4286 5.68516 15.8979 5.24016 15.9373 4.67651Z" fill="#ABF600"/>
<path d="M13.5479 5.01055V4.61755C12.3495 4.61755 11.3779 5.59001 11.3779 6.78958V6.86301C11.5563 6.62868 11.7445 6.40543 11.9448 6.19628C12.4062 5.71439 12.9315 5.30738 13.5479 5.01055Z" fill="#ABF600"/>
<path d="M11.3779 7.19666C11.5982 6.88923 11.8332 6.59956 12.0878 6.33365C12.5118 5.89082 12.9905 5.51386 13.5479 5.23181V12.039C13.5479 13.2386 12.5763 14.2111 11.3779 14.2111V7.19666Z" fill="#ABF600"/>
<path d="M10.7673 7.76123C10.3814 7.16001 9.70739 6.76172 8.94043 6.76172V11.2546C9.13991 10.8729 9.3339 10.4807 9.52916 10.086L9.52955 10.0852C9.55419 10.0353 9.57887 9.98547 9.60357 9.93557C9.96963 9.19617 10.3429 8.45187 10.7673 7.76123Z" fill="#ABF600"/>
<path d="M8.94043 11.6769C9.20359 11.1913 9.45272 10.6875 9.70161 10.1843C9.72809 10.1307 9.75459 10.0772 9.78109 10.0236C10.1318 9.31527 10.4851 8.61137 10.8796 7.95789C11.0272 8.25127 11.1104 8.58276 11.1104 8.93368V16.1732C9.91195 16.1732 8.94043 15.2007 8.94043 14.0011V11.6769Z" fill="#ABF600"/>
<path d="M8.67191 11.7533V8.67432C7.47348 8.67432 6.50195 9.64675 6.50195 10.8463V14.4396C6.82711 14.2068 7.12179 13.9333 7.39378 13.6282C7.87789 13.0852 8.28952 12.4433 8.67191 11.7533Z" fill="#ABF600"/>
<path d="M6.50195 14.681C6.88568 14.4228 7.22875 14.1113 7.54158 13.7604C7.96439 13.2862 8.33243 12.7393 8.67191 12.1552V13.3005C8.67191 14.5 7.70039 15.4725 6.50195 15.4725V14.681Z" fill="#ABF600"/>
<path d="M6.12318 14.6836C6.19407 14.469 6.23244 14.2396 6.23244 14.0012V12.3646C5.03401 12.3646 4.0625 13.3371 4.0625 14.5367V15.2747C4.86636 15.2299 5.5412 15.0184 6.12318 14.6836Z" fill="#ABF600"/>
<path d="M4.0625 15.4734C4.80587 15.4333 5.44459 15.2558 6.00337 14.9735C5.64697 15.6849 4.9117 16.1732 4.0625 16.1732V15.4734Z" fill="#ABF600"/>
</svg>
