<svg width="20" height="20" viewBox="0 0 20 20" fill="none" xmlns="http://www.w3.org/2000/svg">
<circle cx="10" cy="10" r="10" fill="#F2BB15"/>
<path d="M14.6171 9.81015C14.7252 9.84624 14.8385 9.86464 14.9534 9.86464L14.9529 9.86479C15.8223 9.86479 16.4063 10.4236 16.4063 11.2553C16.4063 11.9046 16.123 12.2413 15.8856 12.4096C15.5957 12.6149 15.2462 12.6733 14.9115 12.7053L14.8884 12.7079C14.7995 12.7202 14.7247 12.7393 14.6387 12.7715L14.5971 12.788L14.59 12.7906C14.3646 12.8711 14.1758 13.0355 14.0584 13.2534C13.9921 13.3766 13.946 13.538 13.9288 13.7075C13.9222 13.7743 13.9178 13.8388 13.9134 13.9025C13.9102 13.951 13.9064 14.0057 13.9013 14.0603V15.3125H11.1788V13.838C11.1788 13.459 11.3167 13.0916 11.573 12.8236C11.5823 12.8141 11.5915 12.8045 11.6011 12.7951C11.6215 12.7751 11.6403 12.7583 11.6553 12.7449L11.6645 12.7366C11.9596 12.4692 12.3435 12.4621 12.6237 12.4568H12.6266C12.6734 12.4559 12.718 12.4549 12.757 12.453L12.7992 12.4463L12.8893 12.4252L12.9742 12.3979L13.0658 12.3598C13.1617 12.3142 13.2512 12.2547 13.3306 12.1843L13.3483 12.1684C13.602 11.9311 13.7279 11.639 13.7331 11.275C13.7324 11.015 13.6527 10.7687 13.5029 10.5622C13.3569 10.3614 13.1498 10.2113 12.9203 10.1406C12.6877 10.069 12.254 10.0673 12.0448 10.1371C11.6635 10.2642 11.3932 10.63 11.372 11.047C11.3703 11.0813 11.3715 11.1175 11.3729 11.1599C11.3773 11.2823 11.3832 11.4498 11.3157 11.6615C11.1248 12.2505 10.5968 12.6479 10 12.6508C9.40319 12.648 8.87519 12.2505 8.68429 11.6615C8.61676 11.4496 8.62268 11.2822 8.62705 11.1599C8.62846 11.1175 8.62973 11.0815 8.62804 11.047C8.60675 10.63 8.33633 10.2642 7.95524 10.1371C7.74615 10.0673 7.31233 10.069 7.07984 10.1406C6.85017 10.2113 6.6432 10.3612 6.49713 10.5622C6.34726 10.7687 6.26774 11.015 6.26704 11.275C6.27226 11.639 6.39802 11.9313 6.65166 12.1684L6.66957 12.1843C6.74894 12.2549 6.83847 12.3144 6.93434 12.3598L7.02584 12.3979L7.11072 12.4252L7.20081 12.4463L7.24296 12.453C7.28216 12.4549 7.32657 12.4559 7.37338 12.4568H7.37648C7.65676 12.4621 8.04039 12.4692 8.33549 12.7366L8.34479 12.7449C8.35987 12.7583 8.37849 12.7751 8.39893 12.7951C8.40852 12.8045 8.41768 12.814 8.42699 12.8236C8.6833 13.0916 8.82133 13.459 8.82133 13.838V15.3125H6.09884V14.0603C6.09376 14.0055 6.08996 13.951 6.08658 13.9025C6.08221 13.8387 6.07783 13.7741 6.07121 13.7075C6.05415 13.538 6.00818 13.3766 5.94178 13.2534C5.82419 13.0355 5.63541 12.8711 5.41011 12.7906L5.40292 12.788L5.36147 12.7715C5.27547 12.739 5.20046 12.7201 5.11163 12.7079L5.08851 12.7053C4.75381 12.6733 4.4043 12.6149 4.11442 12.4096C3.877 12.2413 3.59375 11.9046 3.59375 11.2553C3.59375 10.4236 4.17787 9.86479 5.04707 9.86479C5.16197 9.86479 5.27532 9.84638 5.38347 9.81015L5.397 9.80591C5.40898 9.80226 5.42181 9.79802 5.43619 9.79291C5.46834 9.78122 5.5033 9.76457 5.5425 9.74222L5.55547 9.73506C5.69857 9.6569 5.82603 9.54426 5.92401 9.40941C6.22348 8.99801 6.22263 8.42445 5.92176 8.01436C5.79952 7.84767 5.63668 7.71896 5.45085 7.64211L5.43252 7.63408C5.37656 7.60939 5.33581 7.59595 5.30381 7.59156L5.2687 7.58557C5.19609 7.57009 5.1215 7.56234 5.04692 7.56234C4.59802 7.56234 4.22298 7.41742 3.96286 7.1432C3.72219 6.88943 3.59657 6.54027 3.59982 6.1331V4.6875H6.34205V5.64033C6.34205 5.82587 6.34247 6.01126 6.34205 6.1968C6.34134 6.57197 6.54479 7.08403 6.91785 7.21435C7.15527 7.29733 7.44994 7.17344 7.70216 7.20383C7.90942 7.22881 8.11047 7.30288 8.2867 7.41946C8.64101 7.6538 8.88055 8.05205 8.92651 8.488C8.94414 8.6563 8.93412 8.78165 8.92694 8.8731C8.91876 8.97508 8.91636 9.00576 8.95048 9.10758C9.01759 9.30627 9.16097 9.49108 9.35427 9.62724C9.54728 9.76369 9.76962 9.83849 9.97998 9.83849L10.0004 9.8382L10.021 9.83849C10.2314 9.83849 10.4536 9.76369 10.6467 9.62724C10.84 9.49093 10.9834 9.30627 11.0505 9.10758C11.0846 9.0059 11.0821 8.97522 11.0741 8.8731C11.0667 8.7815 11.0567 8.65615 11.0745 8.488C11.1204 8.05205 11.3598 7.65365 11.7141 7.41946C11.8904 7.30288 12.0916 7.22881 12.2988 7.20383C12.5511 7.17344 12.8457 7.29733 13.0831 7.21435C13.4562 7.08403 13.6596 6.57197 13.6589 6.1968C13.6585 6.01126 13.6589 5.82587 13.6589 5.64033V4.6875H16.4008V6.13296C16.404 6.54012 16.2784 6.88943 16.0376 7.1432C15.7773 7.41727 15.4025 7.56234 14.9536 7.56234C14.8789 7.56234 14.8045 7.57009 14.7319 7.58557L14.6966 7.59156C14.6646 7.5958 14.624 7.60924 14.568 7.63408L14.5496 7.64211C14.3637 7.71896 14.201 7.84767 14.0788 8.01436C13.7779 8.42445 13.7771 8.99801 14.0764 9.40941C14.1745 9.54426 14.3018 9.65675 14.4451 9.73491L14.4579 9.74222C14.4971 9.76457 14.5321 9.78137 14.5642 9.79291C14.5786 9.79802 14.5913 9.80226 14.6034 9.80591L14.6171 9.81015Z" fill="black"/>
</svg>
