<svg width="20" height="20" viewBox="0 0 20 20" fill="none" xmlns="http://www.w3.org/2000/svg">
<circle cx="10" cy="10" r="10" fill="#4A90E2"/>
<path d="M3.15145 12.9361C3.78737 12.9361 4.30289 12.4205 4.30289 11.7846C4.30289 11.1487 3.78737 10.6332 3.15145 10.6332C2.51552 10.6332 2 11.1487 2 11.7846C2 12.4205 2.51552 12.9361 3.15145 12.9361Z" fill="white"/>
<path d="M16.8726 6.07544C16.2493 6.07544 15.7212 6.57949 15.7212 7.22688C15.7212 8.13879 15.5769 8.37833 14.5697 8.37833H14.4735C13.8983 8.42642 13.4423 8.90642 13.4423 9.50573V9.52978C13.4423 10.4176 13.274 10.6331 12.2909 10.6331C12.2428 10.6331 12.1947 10.6331 12.1706 10.6572C11.5954 10.7293 11.1394 11.2093 11.1394 11.7846C11.1394 12.4079 11.6435 12.936 12.2909 12.936C12.8902 12.936 13.3942 12.456 13.4183 11.8808V11.7846C13.4183 10.9689 13.6819 10.6572 14.5457 10.6331H14.5697C15.169 10.6331 15.6731 10.1531 15.6971 9.55382V9.48168C15.6971 8.64191 15.9607 8.33024 16.8486 8.33024C17.4719 8.33024 18 7.82619 18 7.17879C18 6.57949 17.496 6.07544 16.8726 6.07544ZM10.1082 8.37833H10.012C9.00487 8.37833 8.86059 8.13879 8.86059 7.22688C8.86059 6.60353 8.35654 6.07544 7.70915 6.07544C7.08579 6.07544 6.5577 6.57949 6.5577 7.22688C6.5577 8.13879 6.41342 8.35428 5.40626 8.35428H5.31007C4.73481 8.40238 4.27886 8.88238 4.27886 9.48168C4.27886 10.105 4.78291 10.6331 5.4303 10.6331C6.02961 10.6331 6.53366 10.1531 6.5577 9.57787V9.50573C6.5577 8.66596 6.82129 8.35428 7.70915 8.35428C8.59701 8.35428 8.86059 8.66596 8.86059 9.48168C8.86059 10.105 9.36464 10.6331 10.012 10.6331C10.6594 10.6331 11.1635 10.1291 11.1635 9.48168C11.1394 8.90642 10.6835 8.42642 10.1082 8.37833Z" fill="white"/>
</svg>
