<svg width="20" height="20" viewBox="0 0 20 20" fill="none" xmlns="http://www.w3.org/2000/svg">
<path d="M0.0114746 9C0.0114746 13.961 4.03315 17.9827 8.99413 17.9827C10.238 17.9827 8.92282 16.9571 10 16.5C11.4246 15.8955 10.0643 14.7066 11 13.5C11.4724 12.8909 12.1953 12.2194 12.5 11.5C12.9555 10.4244 17.9768 10.2416 17.9768 9C17.9768 4.03901 13.9551 0.0173416 8.99413 0.0173416C4.03315 0.0173416 0.0114746 4.03901 0.0114746 9Z" fill="#FEFEFE"/>
<path d="M20 16C20 18.2091 18.2091 20 16 20C13.7909 20 12 18.2091 12 16C12 13.7909 13.7909 12 16 12C18.2091 12 20 13.7909 20 16Z" fill="#12223B"/>
<path d="M5.78035 12.6416C5.68786 12.8266 5.49133 12.9422 5.28324 12.9422V12.948H0.907515C0.3237 11.7572 0 10.4162 0 9.00578C0 4.0289 4.03468 0 9.00578 0C11.5838 0 13.9017 1.08092 15.5434 2.81503H11.3064C11.0983 2.81503 10.9075 2.93064 10.8092 3.11561L8.2948 7.87861H5.0578C4.75145 7.87861 4.49711 8.12717 4.49711 8.43931V9.56647C4.49711 9.87283 4.74567 10.1272 5.0578 10.1272H7.10405L5.78035 12.6416Z" fill="#9B1C2E"/>
<path d="M12.2195 5.35838C12.312 5.17341 12.5086 5.0578 12.7167 5.0578V5.05202H17.0924C17.6762 6.24277 17.9999 7.58382 17.9999 8.99422C17.9999 9.79043 17.8966 10.5624 17.7028 11.2974C17.1713 11.105 16.5979 11 16 11C13.2386 11 11 13.2386 11 16C11 16.5979 11.1049 17.1713 11.2974 17.7027C10.5621 17.8967 9.79013 18 8.99412 18C6.41608 18 4.09816 16.9191 2.45654 15.185H6.69354C6.90163 15.185 7.09238 15.0694 7.19065 14.8844L9.7051 10.1214H12.9421C13.2485 10.1214 13.5028 9.87283 13.5028 9.56069V8.43353C13.5028 8.12717 13.2542 7.87283 12.9421 7.87283H10.8959L12.2195 5.35838Z" fill="#9B1C2E"/>
<path fill-rule="evenodd" clip-rule="evenodd" d="M17.3297 14.4312L15.3155 12.5644L15.2663 14.2838L14.3329 15.2172V15.7085L13.0557 16.9857C13.6059 18.2434 14.726 18.0665 15.2172 17.8209L17.3297 19.4912L17.4279 17.6735L17.7718 18.3613L17.9192 17.9191L18.2631 17.8209L18.4104 16.7892L18.7052 17.3787L18.9999 16.4454L17.3297 15.1681V14.4312ZM14.9716 15.5611V15.9541H15.5611L14.9716 15.5611Z" fill="#6DEFF9"/>
<path d="M14.3821 12.5644V14.7751L15.0207 14.1364V13.203L14.3821 12.5644Z" fill="#6DEFF9"/>
</svg>
