<svg width="500" height="500" viewBox="0 0 500 500" fill="#000000" xmlns="http://www.w3.org/2000/svg">
<path fill-rule="evenodd" clip-rule="evenodd" d="M223.12 1.38444C11.5149 23.4274 -76.4759 285.996 78.6903 432.373C213.899 559.922 437.724 498.52 489.555 319.656C538.76 149.859 399.122 -16.9482 223.12 1.38444ZM306.1 28.7778C395.243 51.8722 475.894 144.585 475.894 223.967C475.894 245.027 464.871 240.318 462.092 218.069C448.38 108.334 339.559 24.089 227.492 36.45C129.991 47.2035 48.5676 124.8 36.9135 218.069C34.1415 240.268 23.1112 245.039 23.1112 224.038C23.1112 199.482 40.1207 152.586 59.7564 123.002C112.453 43.614 213.773 4.85829 306.1 28.7778ZM347.48 90.2431C349.132 92.2328 350.118 97.0449 349.673 100.934L348.863 108.002H258.307H167.75L166.94 100.934C165.28 86.4699 164.311 86.6208 258.307 86.6208C330.221 86.6208 344.972 87.2195 347.48 90.2431ZM249.503 125.61C249.503 131.386 248.579 131.899 238.183 131.899C227.787 131.899 226.863 131.386 226.863 125.61C226.863 119.835 227.787 119.322 238.183 119.322C248.579 119.322 249.503 119.835 249.503 125.61ZM284.719 127.137C284.719 133.23 283.841 134.616 280.74 133.426C278.551 132.586 273.457 131.899 269.42 131.899C263.267 131.899 262.08 130.883 262.08 125.61C262.08 119.835 263.003 119.322 273.399 119.322C284.387 119.322 284.719 119.551 284.719 127.137ZM300.755 147.077C330.604 156.297 352.493 177.384 358.575 202.78C361.325 214.263 355.366 217.425 330.961 217.425C308.017 217.425 306.09 216.456 294.034 198.866C286.475 187.833 284.719 191.093 284.719 216.167C284.719 239.282 284.533 240.064 279.059 240.029C262.455 239.928 262.08 239.287 262.08 210.842V184.724H255.791C249.525 184.724 249.503 184.807 249.503 208.621C249.503 234.859 248.283 236.437 233.27 229.597C227.314 226.885 226.863 225.469 226.863 209.473C226.863 190.134 223.573 187.325 214.47 198.898C197.045 221.047 212.183 234.819 267.639 247.271C321.48 259.362 344.491 271.884 356.533 295.648C377.336 336.7 346.406 387.344 295.905 394.916L284.719 396.593V408.383C284.719 421.237 281.562 426.208 273.399 426.208C265.385 426.208 262.08 421.288 262.08 409.354C262.08 399.494 261.524 398.538 255.791 398.538C250.058 398.538 249.503 399.494 249.503 409.354C249.503 421.288 246.197 426.208 238.183 426.208C230.196 426.208 226.863 421.295 226.863 409.523C226.863 398.183 226.838 398.163 209.255 394.629C173.191 387.374 141.438 356.097 141.363 327.745C141.333 316.363 143.315 315.528 170.371 315.528C193.239 315.528 193.72 315.769 202.526 331.73C221.641 366.37 302.327 360.021 302.327 323.879C302.327 318.124 300.295 313.266 296.152 309.126C286.404 299.376 284.719 301.232 284.719 321.698V340.446L275.286 343.064C270.099 344.506 265.003 345.691 263.966 345.698C262.93 345.706 262.08 333.828 262.08 319.301V292.889H255.791H249.503V319.301C249.503 347.894 249.928 347.182 234.724 344.141L226.863 342.569V314.255V285.938L214.915 282.947C162.515 269.822 138.41 238.542 149.993 198.697C163.587 151.935 236.098 127.107 300.755 147.077ZM32.5844 265.847C33.9805 267.578 35.9526 275.217 36.9638 282.827C53.6765 408.507 187.469 493.109 311.043 456.132C389.397 432.685 452.344 360.195 462.092 282.183C464.864 259.984 475.894 255.212 475.894 276.214C475.894 321.2 439.772 388.162 395.314 425.587C268.753 532.124 68.9479 467.56 28.1647 306.95C20.0498 274.996 22.3892 253.237 32.5844 265.847Z" fill="#000000"/>
</svg>
