<?xml version="1.0" encoding="UTF-8" standalone="no"?>
<svg
   xmlns:dc="http://purl.org/dc/elements/1.1/"
   xmlns:cc="http://creativecommons.org/ns#"
   xmlns:rdf="http://www.w3.org/1999/02/22-rdf-syntax-ns#"
   xmlns:svg="http://www.w3.org/2000/svg"
   xmlns="http://www.w3.org/2000/svg"
   xmlns:sodipodi="http://sodipodi.sourceforge.net/DTD/sodipodi-0.dtd"
   xmlns:inkscape="http://www.inkscape.org/namespaces/inkscape"
   inkscape:version="1.0 (4035a4f, 2020-05-01)"
   height="256"
   width="256"
   sodipodi:docname="Velo-Icon-256x256.svg"
   xml:space="preserve"
   viewBox="0 0 256 256"
   y="0px"
   x="0px"
   id="图层_1"
   version="1.1"><metadata
   id="metadata851"><rdf:RDF><cc:Work
       rdf:about=""><dc:format>image/svg+xml</dc:format><dc:type
         rdf:resource="http://purl.org/dc/dcmitype/StillImage" /><dc:title>编组</dc:title></cc:Work></rdf:RDF></metadata><defs
   id="defs849">
	

		
	
			
			
			
			
			
			
		</defs><sodipodi:namedview
   inkscape:current-layer="图层_1"
   inkscape:window-maximized="1"
   inkscape:window-y="0"
   inkscape:window-x="0"
   inkscape:cy="188.59825"
   inkscape:cx="236.94091"
   inkscape:zoom="1.2874389"
   fit-margin-bottom="0"
   fit-margin-right="0"
   fit-margin-left="0"
   fit-margin-top="0"
   showgrid="false"
   id="namedview847"
   inkscape:window-height="878"
   inkscape:window-width="1440"
   inkscape:pageshadow="2"
   inkscape:pageopacity="0"
   guidetolerance="10"
   gridtolerance="10"
   objecttolerance="10"
   borderopacity="1"
   bordercolor="#666666"
   pagecolor="#ffffff" />
<style
   id="style833"
   type="text/css">
	.st0{fill:#DA1A5E;}
</style>
<title
   id="title835">编组</title>
<circle
   r="125.95418"
   cy="128"
   cx="128"
   id="path874"
   style="fill:#da1a5e;fill-opacity:0.2;fill-rule:evenodd;stroke:#da1a5e;stroke-width:4.09164;stroke-opacity:1" /><g
   transform="matrix(1.8939408,0,0,1.8939408,34.282264,77.725305)"
   id="g878"><path
     d="M 49,64.6 C 44.8,64.5 41.1,63.1 38.1,60.1 27,48.9 15.8,37.8 4.6,26.6 -3.7,18.3 -0.4,4.3 10.8,0.8 16.7,-1 22.1,0.3 26.5,4.7 c 11.1,11 22,22 33,33 3,3 4.7,6.6 4.9,10.9 0.3,7.1 -4.8,13.8 -11.8,15.4 -1.1,0.3 -2.4,0.4 -3.6,0.6"
     class="st0"
     id="Fill-1" /><path
     d="M 79.6,0.1 C 88.1,0.1 95,6.9 95,15.5 95,24.1 88.2,31 79.6,31.1 71.1,31.2 64.1,24.1 64,15.6 64.1,7 71,0.1 79.6,0.1"
     class="st0"
     id="Fill-7" /></g>
</svg>
