<svg xmlns="http://www.w3.org/2000/svg" width="250" height="250" version="1.1" fill="#000000"><path fill-opacity=".075" d="M 105.500 0.607 C 104.400 0.868, 99.903 1.774, 95.506 2.621 C 91.110 3.467, 87.060 4.495, 86.506 4.905 C 85.953 5.315, 83.552 6.207, 81.171 6.889 C 74.466 8.808, 58.518 17.499, 50.134 23.803 C 40.814 30.811, 30.754 40.905, 23.551 50.476 C 17.466 58.560, 8.780 74.562, 6.889 81.171 C 6.207 83.552, 5.315 85.953, 4.905 86.506 C 4.495 87.060, 3.336 91.335, 2.330 96.006 C -0.286 108.146, -0.286 141.854, 2.330 153.994 C 3.336 158.665, 4.495 162.940, 4.905 163.494 C 5.315 164.047, 6.207 166.448, 6.889 168.829 C 8.780 175.438, 17.466 191.440, 23.551 199.524 C 30.754 209.095, 40.814 219.189, 50.134 226.197 C 58.518 232.501, 74.466 241.192, 81.171 243.111 C 83.552 243.793, 85.953 244.685, 86.506 245.095 C 87.060 245.505, 91.335 246.664, 96.006 247.670 C 108.146 250.286, 141.854 250.286, 153.994 247.670 C 158.665 246.664, 162.940 245.505, 163.494 245.095 C 164.047 244.685, 166.525 243.771, 169 243.064 C 175.754 241.134, 191.293 232.644, 199.856 226.205 C 209.185 219.190, 219.244 209.098, 226.449 199.524 C 232.534 191.440, 241.220 175.438, 243.111 168.829 C 243.793 166.448, 244.696 164.034, 245.119 163.465 C 245.542 162.896, 246.625 158.396, 247.525 153.465 C 248.426 148.534, 249.576 143.719, 250.081 142.764 C 251.368 140.332, 251.290 105.703, 250 106.500 C 249.450 106.840, 249 106.173, 249 105.017 C 249 102.041, 245.968 87.700, 245.086 86.500 C 244.681 85.950, 243.793 83.552, 243.111 81.171 C 241.220 74.562, 232.534 58.560, 226.449 50.476 C 219.246 40.905, 209.186 30.811, 199.866 23.803 C 191.482 17.499, 175.534 8.808, 168.829 6.889 C 166.448 6.207, 164.050 5.319, 163.500 4.915 C 160.165 2.465, 146.327 0.748, 127.500 0.449 C 116.500 0.275, 106.600 0.346, 105.500 0.607 M 0.415 125 C 0.415 135.175, 0.564 139.338, 0.745 134.250 C 0.927 129.162, 0.927 120.837, 0.745 115.750 C 0.564 110.662, 0.415 114.825, 0.415 125" stroke="none" fill="#000000" fill-rule="evenodd"/><path fill-opacity=".182" d="M 103.500 1.423 C 93.979 3.066, 80.011 7.497, 71.241 11.657 C 46.422 23.428, 23.398 46.455, 11.663 71.241 C 7.393 80.260, 2.499 96.184, 1.076 105.692 C -0.270 114.689, -0.285 135.254, 1.049 144.483 C 2.362 153.567, 7.326 169.599, 11.663 178.759 C 23.400 203.549, 46.451 226.600, 71.241 238.337 C 80.260 242.607, 96.184 247.501, 105.692 248.924 C 114.931 250.306, 135.069 250.306, 144.308 248.924 C 153.816 247.501, 169.740 242.607, 178.759 238.337 C 203.549 226.600, 226.600 203.549, 238.337 178.759 C 242.631 169.690, 247.712 153.342, 248.605 145.722 C 248.977 142.544, 249.669 139.705, 250.141 139.413 C 250.613 139.121, 251 132.132, 251 123.882 C 251 115.632, 250.611 109.123, 250.135 109.417 C 249.659 109.711, 248.968 107.375, 248.599 104.226 C 247.711 96.652, 242.620 80.286, 238.337 71.241 C 226.600 46.451, 203.549 23.400, 178.759 11.663 C 169.740 7.393, 153.816 2.499, 144.308 1.076 C 135.012 -0.315, 112.465 -0.123, 103.500 1.423 M 29 63.875 C 29 64.356, 31.072 69.194, 33.605 74.625 C 36.137 80.056, 39.557 87.425, 41.205 91 C 42.852 94.575, 45.497 100.277, 47.083 103.671 C 48.668 107.065, 54.873 120.565, 60.871 133.671 C 66.869 146.777, 73.669 161.550, 75.982 166.500 C 82.781 181.052, 86.328 188.727, 92.517 202.275 C 95.727 209.301, 98.737 214.921, 99.207 214.764 C 100.443 214.352, 122.164 166.879, 122.205 164.500 C 122.224 163.400, 120.702 159.125, 118.822 155 C 116.942 150.875, 113.175 142.448, 110.452 136.273 C 107.728 130.099, 105.275 125.041, 105 125.033 C 104.725 125.026, 103.709 126.902, 102.742 129.202 C 101.658 131.781, 100.632 133.023, 100.064 132.442 C 99.558 131.924, 93.637 119.350, 86.906 104.500 C 80.175 89.650, 73.581 75.848, 72.254 73.830 C 69.262 69.282, 63.445 65.343, 57.794 64.039 C 52.472 62.812, 29 62.678, 29 63.875 M 163.827 93.895 C 152.691 100.957, 148.631 114.236, 153.010 129.277 C 155.480 137.763, 163.998 143.988, 180.911 149.668 C 197.346 155.187, 201.387 159.766, 195.244 165.910 C 191.936 169.218, 186.228 170.356, 179.372 169.075 C 176.693 168.575, 174.356 168.310, 174.179 168.488 C 173.806 168.861, 166 186.869, 166 187.356 C 166 187.534, 167.912 188.314, 170.250 189.090 C 172.918 189.975, 178.780 190.500, 186 190.500 C 200.712 190.500, 208.095 188.048, 215.166 180.813 C 221.127 174.714, 222.510 170.673, 222.460 159.500 C 222.428 152.278, 221.995 149.691, 220.269 146.405 C 216.095 138.459, 208.622 133.639, 190.727 127.348 C 185.102 125.371, 179.295 122.631, 177.823 121.259 C 173.532 117.262, 170.928 109.887, 170.280 99.898 C 169.963 95.004, 169.409 91, 169.048 91 C 168.687 91, 166.337 92.303, 163.827 93.895 M 204.694 100.250 C 203.309 103.688, 201.464 107.850, 200.594 109.500 C 198.573 113.333, 198.593 114.630, 200.685 115.433 C 201.893 115.896, 204.301 114.163, 209.185 109.316 C 212.933 105.597, 216 102.012, 216 101.350 C 216 100.168, 209.185 94, 207.878 94 C 207.512 94, 206.079 96.813, 204.694 100.250 M 0.402 125 C 0.402 133.525, 0.556 137.012, 0.743 132.750 C 0.931 128.488, 0.931 121.513, 0.743 117.250 C 0.556 112.987, 0.402 116.475, 0.402 125" stroke="none" fill="#000000" fill-rule="evenodd"/><path fill-opacity=".518" d="M 107.635 1.032 C 89.907 3.827, 69.852 11.660, 54.739 21.694 C 45.434 27.871, 27.871 45.434, 21.694 54.739 C 14.278 65.909, 7.219 81.649, 3.766 94.713 C 0.816 105.875, 0.651 107.481, 0.651 125 C 0.651 142.519, 0.816 144.125, 3.766 155.287 C 7.219 168.351, 14.278 184.091, 21.694 195.261 C 27.871 204.566, 45.434 222.129, 54.739 228.306 C 65.909 235.722, 81.649 242.781, 94.713 246.234 C 105.875 249.184, 107.481 249.349, 125 249.349 C 142.519 249.349, 144.125 249.184, 155.287 246.234 C 168.351 242.781, 184.091 235.722, 195.261 228.306 C 204.566 222.129, 222.129 204.566, 228.306 195.261 C 235.911 183.806, 242.791 168.370, 246.059 155.431 C 247.677 149.027, 249 142.286, 249 140.452 C 249 138.618, 249.450 136.840, 250 136.500 C 250.577 136.144, 251 130.803, 251 123.882 C 251 116.137, 250.645 112.101, 250 112.500 C 249.407 112.866, 249 111.713, 249 109.666 C 249 102.947, 243.184 83.063, 238.116 72.452 C 230.924 57.397, 224.915 48.915, 213 37 C 201.085 25.085, 192.603 19.076, 177.548 11.884 C 161.622 4.277, 147.195 0.919, 128.500 0.469 C 120.250 0.270, 110.861 0.524, 107.635 1.032 M 28 63.481 C 28 63.745, 29.856 67.908, 32.123 72.731 C 34.391 77.554, 42.661 95.450, 50.501 112.500 C 82.479 182.046, 93.851 206.737, 95.998 211.290 C 97.241 213.925, 98.748 215.917, 99.348 215.717 C 99.947 215.518, 105.661 203.919, 112.046 189.943 L 123.654 164.531 117.766 151.515 C 114.528 144.357, 110.514 135.238, 108.846 131.250 C 107.178 127.263, 105.474 124, 105.058 124 C 104.643 124, 103.561 125.891, 102.653 128.201 C 101.699 130.629, 100.652 132.001, 100.173 131.451 C 99.716 130.928, 93.611 117.852, 86.606 102.394 C 69.056 63.666, 68.308 63, 42.374 63 C 34.468 63, 28 63.216, 28 63.481 M 162.956 93.763 C 153.088 100.656, 148.768 111.692, 151.037 124.206 C 152.374 131.577, 153.013 132.902, 157.775 138.173 C 161.708 142.526, 171.598 147.912, 179.500 150.004 C 192.806 153.526, 198.060 157.641, 196.612 163.408 C 195.607 167.415, 190.883 169.288, 183.098 168.765 C 179.469 168.522, 175.887 168.137, 175.138 167.911 C 173.423 167.393, 164.362 186.762, 165.695 188.095 C 167.525 189.925, 178.832 191.201, 189.643 190.796 C 199.728 190.419, 201.410 190.073, 207.337 187.155 C 215.236 183.266, 219.501 178.278, 222.118 169.868 C 226.661 155.271, 221.856 141.794, 209.532 134.572 C 207.067 133.127, 199.839 129.968, 193.469 127.551 C 187.100 125.134, 180.798 122.443, 179.465 121.569 C 174.644 118.410, 171.031 107.803, 171.012 96.750 C 170.998 88.685, 170.492 88.498, 162.956 93.763 M 203.595 100.777 C 201.997 104.475, 200.074 108.827, 199.322 110.449 C 198.086 113.115, 198.149 113.594, 199.977 115.421 L 201.999 117.443 208.571 110.972 C 217.938 101.748, 218.102 101.291, 213.478 97.295 C 211.382 95.483, 208.954 94.012, 208.083 94.027 C 207.095 94.044, 205.408 96.580, 203.595 100.777 M 0.385 125 C 0.385 131.875, 0.545 134.688, 0.740 131.250 C 0.936 127.813, 0.936 122.188, 0.740 118.750 C 0.545 115.313, 0.385 118.125, 0.385 125" stroke="none" fill="#000000" fill-rule="evenodd"/><path fill-opacity=".828" d="M 113.500 1.087 C 110.750 1.562, 105.350 2.457, 101.500 3.076 C 86.334 5.517, 65.517 14.435, 52.160 24.214 C 44.012 30.179, 31.663 42.380, 25.501 50.553 C 11.835 68.681, 4.573 87.807, 0.936 115.250 C -0.418 125.471, 0.288 134.959, 3.623 151.358 C 6.885 167.395, 15.328 185.952, 25.501 199.447 C 31.637 207.585, 44.005 219.816, 52.065 225.716 C 64.998 235.183, 83.590 243.420, 98.685 246.369 C 116.316 249.813, 124.495 250.450, 134.250 249.139 C 156.541 246.142, 168.952 242.451, 183.881 234.380 C 194.868 228.439, 201.675 223.405, 211.341 214.071 C 232.494 193.644, 245.228 167.661, 248.501 138.248 C 248.884 134.810, 249.603 131.746, 250.098 131.439 C 250.594 131.133, 251 127.732, 251 123.882 C 251 119.977, 250.601 117.128, 250.098 117.439 C 249.602 117.746, 248.883 115.185, 248.501 111.748 C 245.229 82.340, 232.493 56.355, 211.341 35.929 C 197.970 23.018, 183.799 14.066, 167.296 8.107 C 149.864 1.812, 126.762 -1.203, 113.500 1.087 M 27 62.386 C 27 62.852, 47.965 108.816, 53.963 121.500 C 56.304 126.450, 64.186 143.550, 71.480 159.500 C 78.773 175.450, 87.236 193.763, 90.286 200.196 C 93.336 206.630, 96.111 212.775, 96.454 213.854 C 96.796 214.933, 97.762 216.078, 98.600 216.400 C 99.745 216.839, 101.188 214.690, 104.413 207.742 C 106.773 202.659, 109.956 195.800, 111.488 192.500 C 113.019 189.200, 116.179 182.421, 118.510 177.435 C 120.841 172.450, 123.061 167.383, 123.444 166.175 C 123.954 164.571, 121.654 158.467, 114.899 143.490 C 109.815 132.221, 105.301 123, 104.866 123 C 104.431 123, 103.258 124.874, 102.259 127.165 L 100.443 131.331 87.157 102.306 C 72.842 71.032, 70.915 68.104, 62 64.077 C 58.117 62.323, 55.409 62.041, 42.250 62.022 C 33.862 62.010, 27 62.174, 27 62.386 M 84.216 62.781 C 83.232 63.455, 85.058 68.435, 92.026 84.080 C 106.397 116.348, 118.974 144.631, 130.011 169.500 C 147.521 208.956, 150.495 215.332, 151.549 215.683 C 152.112 215.871, 155.227 210.056, 158.470 202.762 C 161.714 195.468, 164.494 189.329, 164.648 189.119 C 164.802 188.910, 167.849 189.473, 171.419 190.369 C 185.500 193.906, 203.416 191.506, 212.478 184.868 C 217.293 181.341, 221.617 175.131, 223.112 169.595 C 223.721 167.343, 224.029 161.859, 223.797 157.408 C 223.456 150.863, 222.849 148.418, 220.624 144.622 C 217.225 138.821, 210.802 134.005, 201 129.906 C 196.875 128.182, 193.326 126.611, 193.114 126.416 C 192.757 126.088, 196.755 116.019, 197.610 115.089 C 197.818 114.864, 198.898 115.503, 200.011 116.510 C 201.986 118.297, 202.109 118.271, 205.111 115.421 C 206.803 113.814, 210.488 109.857, 213.299 106.628 L 218.410 100.755 215.440 98.128 C 213.806 96.682, 211.399 94.801, 210.090 93.948 L 207.709 92.395 211.355 84.322 C 213.360 79.881, 215 75.742, 215 75.124 C 215 73.640, 192.982 73.612, 187.500 75.088 C 182.069 76.551, 176.715 80.361, 173.431 85.100 C 171.854 87.375, 168.969 89.816, 166.601 90.880 C 161.477 93.182, 155.664 98.824, 152.769 104.306 C 150.931 107.786, 150.549 110.150, 150.527 118.190 C 150.512 123.520, 150.204 127.120, 149.841 126.190 C 149.479 125.261, 146.425 118.200, 143.054 110.500 C 139.684 102.800, 134.814 91.550, 132.231 85.500 C 126.940 73.105, 121.404 66.430, 114.500 64.122 C 109.803 62.552, 86.085 61.502, 84.216 62.781 M 0.336 125 C 0.336 129.125, 0.513 130.813, 0.728 128.750 C 0.944 126.688, 0.944 123.313, 0.728 121.250 C 0.513 119.188, 0.336 120.875, 0.336 125 M 178.668 157.414 C 174.421 166.691, 174.419 166.800, 178.496 167.565 C 183.428 168.490, 192.543 167.624, 194.439 166.050 C 196.567 164.285, 196.424 158.694, 194.200 156.681 C 192.360 155.016, 184.789 152, 182.448 152 C 181.732 152, 180.031 154.436, 178.668 157.414" stroke="none" fill="#000000" fill-rule="evenodd"/></svg>