<svg width="20" height="20" viewBox="0 0 20 20" fill="none" xmlns="http://www.w3.org/2000/svg">
<g clip-path="url(#clip0_10576_151819)">
<path opacity="0.985" fill-rule="evenodd" clip-rule="evenodd" d="M9.36523 -0.00976562C9.78189 -0.00976562 10.1986 -0.00976562 10.6152 -0.00976562C13.6067 0.240641 16.0383 1.5297 17.9102 3.85742C19.1398 5.47881 19.8332 7.30824 19.9902 9.3457C19.9902 9.77539 19.9902 10.2051 19.9902 10.6348C19.7479 13.4732 18.5564 15.8203 16.416 17.6758C14.7377 19.0526 12.8106 19.824 10.6348 19.9902C10.2051 19.9902 9.77539 19.9902 9.3457 19.9902C6.3623 19.7342 3.93719 18.445 2.07031 16.123C0.836521 14.4957 0.143162 12.6598 -0.00976562 10.6152C-0.00976562 10.2051 -0.00976562 9.79492 -0.00976562 9.38477C0.238131 6.34615 1.55323 3.88848 3.93555 2.01172C5.54459 0.807936 7.35449 0.134108 9.36523 -0.00976562Z" fill="#241916"/>
<path fill-rule="evenodd" clip-rule="evenodd" d="M13.5063 0.927734C13.2801 0.857736 13.0522 0.792632 12.8227 0.732421C12.0882 0.530814 11.3395 0.420136 10.5766 0.40039C9.56777 0.366992 8.57818 0.484179 7.60781 0.751953C6.51147 1.0626 5.50234 1.54437 4.58047 2.19727C2.49984 3.69381 1.17497 5.69902 0.60586 8.21289C0.276114 9.84137 0.344473 11.4495 0.810938 13.0371C0.890059 13.3276 0.981204 13.6141 1.08438 13.8965C0.322407 12.1594 0.0847775 10.3495 0.371485 8.4668C0.908391 5.49057 2.45461 3.20867 5.01016 1.62109C7.53379 0.177305 10.19 -0.122174 12.9789 0.722656C13.1605 0.781984 13.3363 0.850343 13.5063 0.927734Z" fill="#F5ECCB"/>
<path fill-rule="evenodd" clip-rule="evenodd" d="M10.5762 0.400392C10.4681 0.711665 10.3639 1.02417 10.2637 1.33789C9.50592 1.3254 8.75723 1.40027 8.01758 1.5625C7.76814 1.62505 7.52076 1.69341 7.27539 1.76758C7.39398 1.43134 7.50467 1.09279 7.60742 0.751954C8.57779 0.484181 9.56738 0.366994 10.5762 0.400392Z" fill="#FACF80"/>
<path fill-rule="evenodd" clip-rule="evenodd" d="M10.5762 0.400391C11.3391 0.420137 12.0878 0.530814 12.8223 0.732422C12.7038 1.05527 12.5931 1.38079 12.4902 1.70898C11.7628 1.50093 11.0206 1.37723 10.2637 1.33789C10.3639 1.02416 10.4681 0.711664 10.5762 0.400391Z" fill="#FACD79"/>
<path fill-rule="evenodd" clip-rule="evenodd" d="M12.8223 0.732422C13.0518 0.792633 13.2797 0.857736 13.5059 0.927734C13.5505 0.92959 13.5896 0.942609 13.623 0.966797C13.9012 1.11896 14.1811 1.27195 14.4629 1.42578C14.577 1.49797 14.6877 1.57285 14.7949 1.65039C14.6947 1.9641 14.5905 2.2766 14.4824 2.58789C13.8518 2.22053 13.1877 1.92755 12.4902 1.70898C12.5931 1.38079 12.7038 1.05527 12.8223 0.732422Z" fill="#FBCC73"/>
<path fill-rule="evenodd" clip-rule="evenodd" d="M7.60742 0.751953C7.50467 1.09279 7.39398 1.43133 7.27539 1.76758C6.07461 2.17547 5.01342 2.80697 4.0918 3.66211C4.16438 3.40635 4.2425 3.15244 4.32617 2.90039C4.43354 2.79631 4.54422 2.69539 4.6582 2.59766C4.90932 2.41148 5.15996 2.22594 5.41016 2.04102C5.41992 1.89453 5.35156 1.82617 5.20508 1.83594C4.99275 1.97781 4.78441 2.1243 4.58008 2.27539C4.5634 2.25328 4.5634 2.22725 4.58008 2.19727C5.50195 1.54437 6.51107 1.0626 7.60742 0.751953Z" fill="#FBD186"/>
<path fill-rule="evenodd" clip-rule="evenodd" d="M13.623 0.966797C15.9517 1.93146 17.6737 3.54605 18.7891 5.81055C19.8574 8.13857 20.0137 10.5279 19.2578 12.9785C18.4433 15.3878 16.9362 17.227 14.7363 18.4961C13.5137 19.1713 12.2051 19.5652 10.8105 19.6777C10.8105 19.6713 10.8105 19.6646 10.8105 19.6582C11.8453 19.5238 12.8284 19.2243 13.7598 18.7598C14.8944 18.2048 15.884 17.4561 16.7285 16.5137C18.2552 14.8132 19.0983 12.8145 19.2578 10.5176C19.2676 10.1465 19.2708 9.77545 19.2676 9.4043C19.2022 8.08139 18.8831 6.82488 18.3105 5.63477C17.8659 4.70592 17.2865 3.8726 16.5723 3.13477C16.0429 2.56135 15.4505 2.06656 14.7949 1.65039C14.6877 1.57285 14.577 1.49797 14.4629 1.42578C14.1811 1.27195 13.9012 1.11896 13.623 0.966797Z" fill="#EF956B"/>
<path fill-rule="evenodd" clip-rule="evenodd" d="M10.2641 1.33789C11.021 1.37723 11.7632 1.50093 12.4906 1.70898C13.1881 1.92755 13.8522 2.22053 14.4828 2.58789C15.1256 2.9958 15.718 3.47107 16.2602 4.01367C16.966 4.77871 17.5324 5.63808 17.9594 6.59179C18.5599 8.04058 18.7617 9.54449 18.5649 11.1035C18.4099 12.2976 18.0258 13.4109 17.4125 14.4434C16.5915 15.7982 15.4847 16.8529 14.0922 17.6074C13.206 18.0916 12.262 18.4041 11.2602 18.5449C10.4748 18.6593 9.68701 18.6723 8.89689 18.584C8.17513 18.4752 7.47201 18.2929 6.78752 18.0371C6.09546 17.7432 5.44441 17.3787 4.83439 16.9434C4.02345 16.3147 3.32683 15.5791 2.74455 14.7363C2.04892 13.6316 1.60622 12.4337 1.41642 11.1426C1.09777 8.20461 1.9897 5.71113 4.0922 3.66211C5.01382 2.80697 6.07502 2.17547 7.2758 1.76758C7.52117 1.69341 7.76855 1.62505 8.01798 1.5625C8.75763 1.40026 9.50632 1.32539 10.2641 1.33789Z" fill="#F09C63"/>
<path fill-rule="evenodd" clip-rule="evenodd" d="M9.48259 1.51367C12.1791 1.42561 14.448 2.3566 16.2892 4.30664C18.0189 6.29149 18.7155 8.59617 18.3791 11.2207C18.0038 13.5382 16.8873 15.4034 15.0295 16.8164C13.1859 18.1307 11.1351 18.658 8.87713 18.3984C6.62845 18.0704 4.78927 17.032 3.35955 15.2832C1.71146 13.1171 1.17109 10.6953 1.73845 8.01758C2.4242 5.42453 3.9639 3.52674 6.35759 2.32422C7.35011 1.85801 8.39177 1.58782 9.48259 1.51367Z" fill="#261A17"/>
<path fill-rule="evenodd" clip-rule="evenodd" d="M5.53734 1.63086C5.70071 1.62813 5.76907 1.70625 5.74241 1.86523C5.64736 1.99365 5.5497 1.99365 5.44944 1.86523C5.42944 1.76852 5.45874 1.6904 5.53734 1.63086Z" fill="#FFFCF8"/>
<path fill-rule="evenodd" clip-rule="evenodd" d="M14.7949 1.65039C15.4505 2.06656 16.0429 2.56135 16.5723 3.13477C16.453 3.4208 16.3488 3.71377 16.2598 4.01367C15.7176 3.47107 15.1252 2.9958 14.4824 2.58789C14.5905 2.2766 14.6947 1.9641 14.7949 1.65039Z" fill="#FBCA6D"/>
<path fill-rule="evenodd" clip-rule="evenodd" d="M17.0602 14.1113C16.8177 13.8891 16.5637 13.6808 16.2985 13.4863C16.3624 13.365 16.421 13.2413 16.4743 13.1152C16.4905 13.1087 16.5068 13.1022 16.5231 13.0957C16.715 13.1323 16.9071 13.1681 17.0993 13.2031C17.1565 13.2183 17.2118 13.215 17.2653 13.1934C17.2805 13.1652 17.2773 13.1391 17.2555 13.1152C17.0266 12.9742 16.8248 12.8017 16.65 12.5977C16.6622 12.5298 16.6818 12.4647 16.7086 12.4023C16.9417 12.356 17.1761 12.317 17.4118 12.2852C17.4378 12.2591 17.4378 12.2331 17.4118 12.207C17.1803 12.1595 16.9654 12.0748 16.7672 11.9531C16.7886 11.8271 16.8016 11.7002 16.8063 11.5723C16.9947 11.5426 17.1835 11.5165 17.3727 11.4941C17.3769 11.462 17.3704 11.4327 17.3532 11.4062C17.1666 11.3734 16.9908 11.3115 16.8258 11.2207C16.7108 9.97385 16.3104 8.82803 15.6246 7.7832C15.3089 6.70891 14.9964 5.63469 14.6871 4.56055C14.5546 4.10857 14.2844 4.00115 13.8766 4.23828C13.5129 4.51732 13.1548 4.80377 12.8024 5.09766C12.5409 5.26408 12.261 5.39103 11.9625 5.47851C11.4704 5.37162 10.9724 5.32605 10.4684 5.3418C9.61871 5.36297 8.77236 5.42807 7.92933 5.53711C7.86508 5.53851 7.80324 5.52875 7.74379 5.50781C7.29119 5.20666 6.84197 4.90066 6.39613 4.58984C6.10273 4.39432 5.79023 4.2348 5.45863 4.11133C5.33697 4.14506 5.25558 4.22318 5.21449 4.3457C4.81082 5.52426 4.56992 6.73519 4.49183 7.97851C3.69111 9.03328 3.32652 10.2247 3.39808 11.5527C3.23572 11.6713 3.05668 11.756 2.86097 11.8066C2.83662 11.8361 2.83662 11.8654 2.86097 11.8945C3.05701 11.9085 3.25232 11.9281 3.44691 11.9531C3.47406 12.0725 3.5001 12.193 3.52504 12.3145C3.52293 12.3329 3.51642 12.3491 3.50551 12.3633C3.30691 12.4756 3.09857 12.5667 2.88051 12.6367C2.85394 12.6746 2.86045 12.7071 2.90004 12.7344C3.15389 12.7533 3.40779 12.7695 3.66176 12.7832C3.67265 12.8387 3.68568 12.8941 3.70082 12.9492C3.53572 13.1924 3.33064 13.3975 3.08558 13.5645C3.06285 13.6244 3.08238 13.6569 3.14418 13.6621C3.40762 13.5915 3.67129 13.5296 3.93519 13.4766C4.21508 14.0327 4.58291 14.5242 5.03871 14.9512C4.96416 15.4296 4.90881 15.9114 4.87269 16.3965C3.83892 15.5796 3.04791 14.5705 2.49965 13.3691C1.67215 11.4443 1.56148 9.47814 2.16762 7.4707C3.05062 4.94707 4.74008 3.20555 7.23597 2.24609C9.67172 1.44333 12.0024 1.6777 14.2282 2.94922C16.2209 4.20053 17.4872 5.97461 18.027 8.27148C18.4327 10.3254 18.1267 12.2655 17.109 14.0918C17.0959 14.1065 17.0796 14.113 17.0602 14.1113Z" fill="#FEFEFE"/>
<path fill-rule="evenodd" clip-rule="evenodd" d="M4.32598 2.90039C4.15778 2.94381 4.0829 2.87871 4.10138 2.70508C4.25679 2.55465 4.41628 2.41143 4.57989 2.27539C4.78423 2.1243 4.99257 1.97781 5.20489 1.83594C5.35138 1.82617 5.41973 1.89453 5.40997 2.04102C5.15977 2.22594 4.90913 2.41148 4.65802 2.59766C4.54403 2.69539 4.43335 2.79631 4.32598 2.90039Z" fill="#FEFEFC"/>
<path fill-rule="evenodd" clip-rule="evenodd" d="M4.57984 2.19727C4.56316 2.22725 4.56316 2.25328 4.57984 2.27539C4.41623 2.41143 4.25674 2.55465 4.10133 2.70508C4.08285 2.87871 4.15773 2.94381 4.32594 2.90039C4.24227 3.15244 4.16414 3.40635 4.09156 3.66211C1.98906 5.71113 1.09713 8.20461 1.41578 11.1426C1.41899 11.1951 1.41573 11.2471 1.40602 11.2988C1.20703 11.8789 1.00847 12.4583 0.810312 13.0371C0.343848 11.4495 0.275488 9.84137 0.605234 8.21289C1.17435 5.69902 2.49922 3.69381 4.57984 2.19727Z" fill="#FAD28B"/>
<path fill-rule="evenodd" clip-rule="evenodd" d="M16.5723 3.13477C17.2865 3.8726 17.8659 4.70592 18.3105 5.63477C18.1786 5.94566 18.0614 6.26467 17.959 6.5918C17.532 5.63809 16.9656 4.77871 16.2598 4.01367C16.3488 3.71377 16.453 3.4208 16.5723 3.13477Z" fill="#FBC866"/>
<path fill-rule="evenodd" clip-rule="evenodd" d="M17.0603 14.1113C17.0624 14.1234 17.0689 14.1331 17.0798 14.1406C17.0204 14.2432 16.9585 14.3441 16.8942 14.4434C16.8811 14.458 16.8649 14.4646 16.8454 14.4629C16.59 14.2401 16.3231 14.0318 16.0446 13.8379C15.3753 14.4593 14.6201 14.9541 13.779 15.3223C13.5414 15.3156 13.473 15.205 13.5739 14.9902C14.3675 14.6181 15.0934 14.1462 15.7517 13.5742C15.9234 13.3382 16.0568 13.0811 16.1521 12.8027C16.1785 12.7398 16.1948 12.6747 16.2009 12.6074C16.4248 11.8893 16.4541 11.1601 16.2888 10.4199C16.089 9.54998 15.7473 8.7427 15.2634 7.99805C15.0067 7.18549 14.7755 6.36518 14.57 5.53711C14.4766 5.19195 14.3757 4.85016 14.2673 4.51172C14.2282 4.49869 14.1892 4.49869 14.1501 4.51172C13.7102 4.89967 13.248 5.25773 12.7634 5.58594C12.4861 5.75539 12.1866 5.85631 11.8649 5.88867C11.5274 5.80658 11.1823 5.76102 10.8298 5.75195C10.6866 5.75195 10.5433 5.75195 10.4001 5.75195C10.1592 5.76031 9.91833 5.77008 9.67745 5.78125C9.54288 5.78521 9.41266 5.80148 9.28682 5.83008C9.14686 5.82129 9.01014 5.83432 8.87666 5.86914C8.51022 5.88455 8.14563 5.91709 7.78292 5.9668C7.74973 5.96992 7.71717 5.96668 7.68526 5.95703C7.59084 5.89352 7.49319 5.83492 7.39229 5.78125C6.89633 5.43506 6.39502 5.09652 5.88838 4.76562C5.78112 4.71525 5.67696 4.65992 5.57588 4.59961C5.2728 5.44752 5.06772 6.31992 4.96065 7.2168C4.92846 7.49625 4.90243 7.77619 4.88252 8.05664C4.86075 8.13924 4.82821 8.21736 4.78487 8.29102C3.92602 9.44805 3.63305 10.7371 3.90596 12.1582C4.00465 12.5749 4.15114 12.972 4.34542 13.3496C4.63377 13.9084 5.01463 14.3967 5.48799 14.8145C5.42555 15.1567 5.37346 15.5017 5.33174 15.8496C5.32192 16.0976 5.30565 16.3449 5.28292 16.5918C5.26711 16.6268 5.25735 16.6659 5.25362 16.709C5.11991 16.6114 4.99295 16.5073 4.87276 16.3965C4.90887 15.9114 4.96422 15.4296 5.03877 14.9512C4.58297 14.5242 4.21514 14.0327 3.93526 13.4766C3.67135 13.5296 3.40768 13.5915 3.14424 13.6621C3.08245 13.6569 3.06292 13.6244 3.08565 13.5645C3.33071 13.3975 3.53579 13.1924 3.70088 12.9492C3.68575 12.8941 3.67272 12.8388 3.66182 12.7832C3.40786 12.7695 3.15395 12.7533 2.9001 12.7344C2.86051 12.7071 2.85401 12.6746 2.88057 12.6367C3.09864 12.5667 3.30698 12.4756 3.50557 12.3633C3.51649 12.3491 3.52299 12.3329 3.5251 12.3145C3.50016 12.193 3.47413 12.0725 3.44698 11.9531C3.25239 11.9281 3.05708 11.9085 2.86104 11.8945C2.83668 11.8654 2.83668 11.8361 2.86104 11.8066C3.05674 11.756 3.23579 11.6713 3.39815 11.5527C3.32659 10.2247 3.69118 9.03328 4.4919 7.97852C4.56999 6.7352 4.81088 5.52426 5.21456 4.3457C5.25565 4.22318 5.33704 4.14506 5.4587 4.11133C5.7903 4.2348 6.1028 4.39432 6.3962 4.58984C6.84204 4.90066 7.29126 5.20666 7.74385 5.50781C7.80331 5.52875 7.86514 5.53852 7.9294 5.53711C8.77243 5.42807 9.61877 5.36297 10.4685 5.3418C10.9725 5.32605 11.4705 5.37162 11.9626 5.47852C12.261 5.39104 12.541 5.26408 12.8024 5.09766C13.1549 4.80377 13.513 4.51732 13.8767 4.23828C14.2845 4.00115 14.5547 4.10857 14.6872 4.56055C14.9965 5.63469 15.309 6.70891 15.6247 7.7832C16.3105 8.82803 16.7108 9.97385 16.8259 11.2207C16.9908 11.3115 17.1666 11.3734 17.3532 11.4062C17.3704 11.4327 17.3769 11.462 17.3728 11.4941C17.1835 11.5165 16.9947 11.5426 16.8064 11.5723C16.8017 11.7002 16.7887 11.8271 16.7673 11.9531C16.9655 12.0748 17.1804 12.1595 17.4118 12.207C17.4379 12.2331 17.4379 12.2591 17.4118 12.2852C17.1762 12.317 16.9418 12.356 16.7087 12.4023C16.6818 12.4647 16.6623 12.5298 16.6501 12.5977C16.8249 12.8017 17.0267 12.9742 17.2556 13.1152C17.2773 13.1391 17.2806 13.1652 17.2653 13.1934C17.2119 13.215 17.1565 13.2183 17.0993 13.2031C16.9072 13.1681 16.7151 13.1323 16.5231 13.0957C16.5069 13.1022 16.4906 13.1087 16.4743 13.1152C16.4211 13.2413 16.3625 13.365 16.2985 13.4863C16.5638 13.6808 16.8177 13.8891 17.0603 14.1113Z" fill="#030303"/>
<path fill-rule="evenodd" clip-rule="evenodd" d="M15.2637 7.99804C15.492 8.81072 15.6515 9.63756 15.7422 10.4785C15.7914 10.9819 15.7784 11.4832 15.7031 11.9824C15.6756 12.0813 15.6463 12.179 15.6152 12.2754C15.3335 12.1443 15.0601 11.9978 14.7949 11.8359C14.7586 11.8055 14.7293 11.7697 14.707 11.7285C14.6209 11.5497 14.5297 11.3739 14.4336 11.2012C14.293 11.0218 14.1205 10.8819 13.916 10.7812C13.5811 10.6599 13.2491 10.5329 12.9199 10.4004C12.9563 9.9555 12.7805 9.62674 12.3926 9.41406C11.9779 9.29285 11.6784 9.42631 11.4941 9.81445C10.7235 9.48127 9.96182 9.12644 9.20898 8.75C8.8259 8.54941 8.48736 8.289 8.19336 7.96875C8.17484 7.95931 8.15531 7.95607 8.13477 7.95898C8.29484 7.91289 8.40227 7.80871 8.45703 7.64648C8.60562 7.0566 8.74561 6.46416 8.87695 5.86914C9.01043 5.83431 9.14715 5.82129 9.28711 5.83008C9.24652 5.99244 9.2042 6.16172 9.16016 6.33789C9.07078 6.85119 8.98939 7.3655 8.91602 7.88086C8.89965 8.18674 9.04287 8.33322 9.3457 8.32031C9.48568 8.25845 9.58658 8.15756 9.64844 8.01758C9.90125 7.26242 10.1519 6.5072 10.4004 5.75195C10.5436 5.75195 10.6869 5.75195 10.8301 5.75195C10.7165 5.95328 10.6352 6.16812 10.5859 6.39648C10.4893 6.91238 10.3851 7.4267 10.2734 7.93945C10.2604 8.05664 10.2604 8.17383 10.2734 8.29101C10.3839 8.54965 10.5629 8.61148 10.8105 8.47656C10.8926 8.42642 10.9544 8.35806 10.9961 8.27148C11.2919 7.47826 11.5817 6.68398 11.8652 5.88867C12.1869 5.85631 12.4864 5.75539 12.7637 5.58593C13.2482 5.25773 13.7105 4.89967 14.1504 4.51172C14.1895 4.49869 14.2285 4.49869 14.2676 4.51172C14.376 4.85015 14.4769 5.19195 14.5703 5.53711C14.7758 6.36517 15.007 7.18549 15.2637 7.99804Z" fill="#FDD3A0"/>
<path fill-rule="evenodd" clip-rule="evenodd" d="M7.78328 5.9668C7.76942 6.33852 7.74662 6.70961 7.71492 7.08008C7.7019 7.26236 7.7019 7.44467 7.71492 7.62695C7.74905 7.87275 7.88903 7.98342 8.13485 7.95898C8.15539 7.95607 8.17492 7.95932 8.19344 7.96875C8.48744 8.289 8.82598 8.54941 9.20907 8.75C9.9619 9.12645 10.7236 9.48127 11.4942 9.81445C11.3596 10.204 11.4312 10.5523 11.7091 10.8594C12.0075 11.1091 12.32 11.1287 12.6466 10.918C12.7969 10.7769 12.888 10.6044 12.92 10.4004C13.2492 10.5329 13.5812 10.6599 13.9161 10.7812C14.1206 10.8819 14.2931 11.0218 14.4337 11.2012C14.5298 11.3739 14.6209 11.5497 14.7071 11.7285C14.7294 11.7697 14.7587 11.8055 14.795 11.8359C15.0602 11.9978 15.3336 12.1443 15.6153 12.2754C15.6153 12.2819 15.6153 12.2884 15.6153 12.2949C15.5546 12.4555 15.4732 12.6052 15.3712 12.7441C15.1607 13.0107 14.9296 13.2613 14.6778 13.4961C14.4239 13.7109 14.17 13.9258 13.9161 14.1406C13.2857 14.5861 12.6086 14.9507 11.8848 15.2344C11.6935 15.3004 11.5014 15.3622 11.3087 15.4199C11.2956 15.4395 11.2956 15.459 11.3087 15.4785C11.4393 15.6496 11.6119 15.7278 11.8263 15.7129C12.4685 15.6529 13.1 15.5357 13.7208 15.3613C13.7156 15.4415 13.7254 15.5196 13.7501 15.5957C13.9711 16.0313 14.1762 16.474 14.3653 16.9238C13.7729 17.3143 13.1349 17.6171 12.4513 17.832C10.3915 18.4444 8.38633 18.3012 6.43563 17.4023C6.26262 17.3126 6.09334 17.2182 5.92782 17.1191C5.91721 17.0949 5.91069 17.0688 5.90828 17.041C5.94586 16.5988 5.97516 16.1561 5.99617 15.7129C6.04815 15.4332 6.14907 15.1728 6.29891 14.9316C5.50239 14.5796 4.85135 14.0522 4.34578 13.3496C4.15151 12.972 4.00502 12.5749 3.90633 12.1582C3.63342 10.7371 3.92639 9.44805 4.78524 8.29102C4.82858 8.21736 4.86112 8.13924 4.88289 8.05664C4.9028 7.77619 4.92883 7.49625 4.96102 7.2168C5.06809 6.31992 5.27317 5.44752 5.57625 4.59961C5.67733 4.65992 5.78149 4.71525 5.88875 4.76562C6.39539 5.09652 6.8967 5.43506 7.39266 5.78125C7.49356 5.83492 7.59121 5.89352 7.68563 5.95703C7.71754 5.96668 7.7501 5.96992 7.78328 5.9668Z" fill="#FEFEFE"/>
<path fill-rule="evenodd" clip-rule="evenodd" d="M14.1113 4.79492C14.1669 4.80096 14.1962 4.8335 14.1992 4.89258C14.3489 5.54967 14.4986 6.20721 14.6484 6.86523C14.6882 7.06541 14.7012 7.26725 14.6875 7.4707C13.9537 6.96537 13.2018 6.48686 12.4316 6.03516C13.0241 5.66422 13.584 5.25082 14.1113 4.79492Z" fill="#FEAE8E"/>
<path fill-rule="evenodd" clip-rule="evenodd" d="M5.73242 4.89258C6.26504 5.32824 6.83145 5.71562 7.43164 6.05469C7.1008 6.20051 6.7883 6.37629 6.49414 6.58203C6.03824 6.92057 5.60531 7.2884 5.19531 7.68555C5.25768 6.73242 5.43672 5.80145 5.73242 4.89258Z" fill="#FFAE8E"/>
<path fill-rule="evenodd" clip-rule="evenodd" d="M10.4007 5.75195C10.1522 6.50721 9.90153 7.26242 9.64872 8.01758C9.58686 8.15756 9.48597 8.25846 9.34599 8.32031C9.04315 8.33322 8.89993 8.18674 8.9163 7.88086C8.98968 7.36551 9.07106 6.85119 9.16044 6.33789C9.20448 6.16172 9.24681 5.99244 9.28739 5.83008C9.41323 5.80148 9.54345 5.78521 9.67802 5.78125C9.9189 5.77008 10.1598 5.76031 10.4007 5.75195Z" fill="#DF9157"/>
<path fill-rule="evenodd" clip-rule="evenodd" d="M10.8301 5.75195C11.1826 5.76102 11.5277 5.80658 11.8652 5.88867C11.5817 6.68398 11.2919 7.47826 10.9961 8.27148C10.9544 8.35807 10.8926 8.42643 10.8106 8.47656C10.5629 8.61148 10.3839 8.54965 10.2734 8.29102C10.2604 8.17383 10.2604 8.05664 10.2734 7.93945C10.3851 7.4267 10.4893 6.91238 10.5859 6.39648C10.6352 6.16812 10.7165 5.95328 10.8301 5.75195Z" fill="#E09157"/>
<path fill-rule="evenodd" clip-rule="evenodd" d="M8.87696 5.86914C8.74561 6.46416 8.60563 7.0566 8.45704 7.64648C8.40227 7.80871 8.29485 7.91289 8.13477 7.95898C7.88895 7.98342 7.74897 7.87275 7.71485 7.62695C7.70182 7.44467 7.70182 7.26236 7.71485 7.08008C7.74655 6.70961 7.76934 6.33852 7.78321 5.9668C8.14592 5.91709 8.51051 5.88455 8.87696 5.86914Z" fill="#DF9157"/>
<path fill-rule="evenodd" clip-rule="evenodd" d="M18.3105 5.63477C18.8831 6.82488 19.2022 8.08139 19.2676 9.4043C19.2516 9.34951 19.2418 9.29092 19.2383 9.22852C19.0263 9.8615 18.8017 10.4865 18.5645 11.1035C18.7613 9.54449 18.5595 8.04059 17.959 6.5918C18.0614 6.26467 18.1786 5.94566 18.3105 5.63477Z" fill="#FBC65F"/>
<path fill-rule="evenodd" clip-rule="evenodd" d="M15.2637 7.99805C15.7475 8.7427 16.0893 9.54998 16.2891 10.4199C16.4544 11.1601 16.4251 11.8893 16.2012 12.6074C16.0064 12.5035 15.8111 12.3993 15.6152 12.2949C15.6152 12.2884 15.6152 12.2819 15.6152 12.2754C15.6463 12.179 15.6756 12.0813 15.7031 11.9824C15.7784 11.4832 15.7914 10.9819 15.7422 10.4785C15.6515 9.63756 15.492 8.81072 15.2637 7.99805Z" fill="#D4B086"/>
<path fill-rule="evenodd" clip-rule="evenodd" d="M19.268 9.4043C19.2713 9.77545 19.268 10.1465 19.2582 10.5176C19.0987 12.8145 18.2556 14.8132 16.7289 16.5137C16.7075 16.4922 16.7042 16.4661 16.7192 16.4355C16.7793 16.2647 16.8412 16.0955 16.9047 15.9277C16.9661 15.9154 17.0149 15.8828 17.0512 15.8301C17.1834 15.6849 17.3006 15.5286 17.4028 15.3613C17.4221 15.196 17.3472 15.1309 17.1781 15.166C17.2508 14.9231 17.3289 14.6822 17.4125 14.4434C18.0258 13.4109 18.4099 12.2976 18.5649 11.1035C18.8021 10.4865 19.0267 9.8615 19.2387 9.22852C19.2422 9.29092 19.252 9.34951 19.268 9.4043Z" fill="#FBC65C"/>
<path fill-rule="evenodd" clip-rule="evenodd" d="M6.70944 9.36523C7.12915 9.35553 7.37981 9.55736 7.46139 9.9707C7.49999 10.3108 7.39257 10.594 7.13913 10.8203C6.75926 11.0127 6.46303 10.9248 6.25046 10.5566C6.07399 10.123 6.16188 9.75517 6.51413 9.45312C6.57887 9.41738 6.64399 9.38808 6.70944 9.36523Z" fill="#020202"/>
<path fill-rule="evenodd" clip-rule="evenodd" d="M12.9204 10.4004C12.8884 10.6044 12.7972 10.7769 12.6469 10.918C12.3204 11.1287 12.0079 11.1091 11.7094 10.8594C11.4316 10.5523 11.36 10.204 11.4946 9.81445C11.6789 9.42631 11.9783 9.29285 12.393 9.41406C12.781 9.62674 12.9568 9.95551 12.9204 10.4004Z" fill="#020201"/>
<path fill-rule="evenodd" clip-rule="evenodd" d="M9.26786 10.2051C9.57493 10.19 9.69538 10.3332 9.62919 10.6348C9.59634 10.7324 9.54751 10.8203 9.4827 10.8984C9.53003 11.1084 9.63419 11.2842 9.7952 11.4258C9.99296 11.5473 10.1818 11.5343 10.3616 11.3867C10.4639 11.2516 10.5062 11.0986 10.4886 10.9277C10.4966 10.9188 10.5064 10.9123 10.5179 10.9082C10.5908 10.9871 10.6234 11.0815 10.6155 11.1914C10.6226 11.3135 10.5835 11.4176 10.4983 11.5039C10.0837 11.7675 9.70936 11.7187 9.37528 11.3574C9.23401 11.4753 9.081 11.5762 8.9163 11.6602C8.60649 11.738 8.37538 11.6371 8.22294 11.3574C8.17727 11.215 8.1903 11.0783 8.262 10.9473C8.28175 10.9309 8.30454 10.9244 8.33036 10.9277C8.27499 11.1846 8.35962 11.3766 8.58426 11.5039C8.84538 11.5362 9.02442 11.4287 9.12137 11.1816C9.15919 11.0898 9.18848 10.9954 9.20926 10.8984C9.14454 10.807 9.09571 10.706 9.06278 10.5957C9.02354 10.4072 9.0919 10.277 9.26786 10.2051Z" fill="#060606"/>
<path fill-rule="evenodd" clip-rule="evenodd" d="M5.22495 10.8301C5.59604 10.7733 5.90528 10.884 6.15268 11.1621C6.21866 11.291 6.23819 11.4277 6.21128 11.5723C6.03237 12.187 5.62548 12.4832 4.99057 12.4609C4.55624 12.3313 4.37069 12.0416 4.43393 11.5918C4.57426 11.2073 4.83794 10.9534 5.22495 10.8301Z" fill="#FAD4BC"/>
<path fill-rule="evenodd" clip-rule="evenodd" d="M13.3882 10.9668C13.8289 10.9479 14.1447 11.1367 14.3355 11.5332C14.3653 11.6487 14.3718 11.7659 14.355 11.8848C14.2656 12.1304 14.1061 12.3159 13.8765 12.4414C13.5241 12.6345 13.1725 12.6345 12.8218 12.4414C12.4786 12.1505 12.4168 11.8087 12.6362 11.416C12.8358 11.178 13.0865 11.0282 13.3882 10.9668Z" fill="#FAD4BC"/>
<path fill-rule="evenodd" clip-rule="evenodd" d="M1.41602 11.1426C1.60582 12.4337 2.04852 13.6316 2.74414 14.7363C2.60094 15.1464 2.45771 15.5565 2.31445 15.9668C1.80967 15.3371 1.39951 14.647 1.08398 13.8965C0.980812 13.6141 0.889668 13.3276 0.810547 13.0371C1.0087 12.4583 1.20727 11.8789 1.40625 11.2988C1.41596 11.2471 1.41922 11.1951 1.41602 11.1426Z" fill="#FAD086"/>
<path fill-rule="evenodd" clip-rule="evenodd" d="M15.6152 12.2949C15.8111 12.3993 16.0064 12.5035 16.2012 12.6074C16.195 12.6747 16.1788 12.7398 16.1523 12.8027C16.0571 13.0811 15.9237 13.3382 15.752 13.5742C15.0937 14.1462 14.3678 14.6181 13.5742 14.9902C13.4733 15.205 13.5416 15.3156 13.7793 15.3223C13.7639 15.3399 13.7443 15.3529 13.7207 15.3613C13.1 15.5357 12.4684 15.6529 11.8262 15.7129C11.6118 15.7278 11.4392 15.6496 11.3086 15.4785C11.2956 15.459 11.2956 15.4395 11.3086 15.4199C11.5013 15.3622 11.6934 15.3004 11.8848 15.2344C12.6086 14.9507 13.2856 14.5861 13.916 14.1406C14.1699 13.9258 14.4238 13.7109 14.6777 13.4961C14.9295 13.2613 15.1606 13.0107 15.3711 12.7441C15.4731 12.6052 15.5545 12.4555 15.6152 12.2949Z" fill="#ECF2ED"/>
<path fill-rule="evenodd" clip-rule="evenodd" d="M4.3457 13.3496C4.85127 14.0522 5.5023 14.5796 6.29883 14.9316C6.14898 15.1728 6.04807 15.4332 5.99609 15.7129C5.97508 16.1561 5.94578 16.5988 5.9082 17.041C5.91061 17.0688 5.91713 17.0949 5.92773 17.1191C5.71072 17.0073 5.50238 16.8804 5.30273 16.7383C5.28447 16.6918 5.27797 16.6429 5.2832 16.5918C5.30594 16.3449 5.32221 16.0976 5.33203 15.8496C5.37375 15.5017 5.42584 15.1567 5.48828 14.8145C5.01492 14.3967 4.63406 13.9084 4.3457 13.3496Z" fill="#EBF1EC"/>
<path fill-rule="evenodd" clip-rule="evenodd" d="M16.8461 14.4629C16.8482 14.4749 16.8548 14.4847 16.8656 14.4922C16.2074 15.4857 15.3741 16.2963 14.3656 16.9238C14.1765 16.474 13.9714 16.0313 13.7504 15.5957C13.7256 15.5196 13.7159 15.4415 13.7211 15.3613C13.7447 15.3529 13.7642 15.3399 13.7797 15.3223C14.6207 14.9541 15.3759 14.4593 16.0453 13.8379C16.3238 14.0318 16.5907 14.2401 16.8461 14.4629Z" fill="#FCD3A0"/>
<path fill-rule="evenodd" clip-rule="evenodd" d="M17.4121 14.4434C17.3285 14.6822 17.2504 14.9231 17.1777 15.166C17.0428 15.3564 16.8963 15.5387 16.7383 15.7129C16.7097 15.8502 16.765 15.9218 16.9043 15.9277C16.8408 16.0955 16.7789 16.2647 16.7188 16.4355C16.7038 16.4661 16.7071 16.4922 16.7285 16.5137C15.884 17.4561 14.8944 18.2048 13.7598 18.7598C13.7403 18.7604 13.7273 18.7506 13.7207 18.7305C13.8545 18.3585 13.9781 17.9842 14.0918 17.6074C15.4843 16.8529 16.5911 15.7982 17.4121 14.4434Z" fill="#FBC760"/>
<path fill-rule="evenodd" clip-rule="evenodd" d="M2.74414 14.7363C3.32643 15.5791 4.02305 16.3147 4.83398 16.9434C4.80879 16.9543 4.79252 16.9738 4.78516 17.002C4.67297 17.3288 4.55904 17.6543 4.44336 17.9785C3.62814 17.4238 2.91852 16.7533 2.31445 15.9668C2.45771 15.5565 2.60094 15.1464 2.74414 14.7363Z" fill="#FACE7F"/>
<path fill-rule="evenodd" clip-rule="evenodd" d="M17.4899 14.7363C17.6627 14.7428 17.7245 14.8275 17.6754 14.9902C17.6263 15.0627 17.558 15.0855 17.4703 15.0586C17.3618 14.9429 17.3683 14.8355 17.4899 14.7363Z" fill="#FFFCF8"/>
<path fill-rule="evenodd" clip-rule="evenodd" d="M17.1782 15.166C17.3473 15.1309 17.4221 15.196 17.4028 15.3613C17.3007 15.5286 17.1835 15.6849 17.0513 15.8301C17.015 15.8828 16.9662 15.9153 16.9048 15.9277C16.7655 15.9218 16.7101 15.8502 16.7388 15.7129C16.8968 15.5387 17.0433 15.3564 17.1782 15.166Z" fill="#FFFDFB"/>
<path fill-rule="evenodd" clip-rule="evenodd" d="M4.83398 16.9434C5.444 17.3787 6.09506 17.7432 6.78711 18.0371C6.6584 18.3712 6.54121 18.7097 6.43555 19.0527C5.72398 18.7752 5.05992 18.4171 4.44336 17.9785C4.55904 17.6543 4.67297 17.3288 4.78516 17.002C4.79252 16.9738 4.80879 16.9543 4.83398 16.9434Z" fill="#FACD79"/>
<path fill-rule="evenodd" clip-rule="evenodd" d="M14.0918 17.6074C13.9781 17.9842 13.8545 18.3585 13.7207 18.7305C13.7273 18.7506 13.7403 18.7604 13.7598 18.7598C12.8284 19.2243 11.8453 19.5238 10.8105 19.6582C10.9146 19.2973 11.0383 18.936 11.1816 18.5742C11.2121 18.5701 11.2381 18.5604 11.2598 18.5449C12.2616 18.4041 13.2056 18.0916 14.0918 17.6074Z" fill="#FBC866"/>
<path fill-rule="evenodd" clip-rule="evenodd" d="M6.78711 18.0371C7.4716 18.2929 8.17473 18.4752 8.89648 18.584C8.7715 18.9264 8.65432 19.2714 8.54492 19.6191C7.8184 19.5156 7.11527 19.3268 6.43555 19.0527C6.54121 18.7097 6.6584 18.3712 6.78711 18.0371Z" fill="#FACB73"/>
<path fill-rule="evenodd" clip-rule="evenodd" d="M11.2598 18.5449C11.2381 18.5604 11.2121 18.5701 11.1816 18.5742C11.0383 18.936 10.9146 19.2973 10.8105 19.6582C10.8105 19.6646 10.8105 19.6713 10.8105 19.6777C10.0528 19.7441 9.29762 19.7246 8.54492 19.6191C8.65432 19.2714 8.7715 18.9264 8.89648 18.584C9.6866 18.6723 10.4744 18.6593 11.2598 18.5449Z" fill="#FBCA6D"/>
</g>
<defs>
<clipPath id="clip0_10576_151819">
<rect width="20" height="20" fill="white"/>
</clipPath>
</defs>
</svg>
