<svg width="21" height="21" viewBox="0 0 21 21" fill="none" xmlns="http://www.w3.org/2000/svg">
<g clip-path="url(#clip0)">
<path d="M10.5 20.875C16.0228 20.875 20.5 16.3978 20.5 10.875C20.5 5.35215 16.0228 0.875 10.5 0.875C4.97715 0.875 0.5 5.35215 0.5 10.875C0.5 16.3978 4.97715 20.875 10.5 20.875Z" fill="#1B75BC"/>
<path fill-rule="evenodd" clip-rule="evenodd" d="M7.96375 6.01625L10.4887 3.375L13.0137 6.01625L11.685 7.43188L10.4887 6.11062L9.29249 7.43188L7.96375 6.01625ZM7.96375 15.7338L9.29249 14.3181L10.4887 15.6394L11.685 14.3181L13.0137 15.7338L10.4887 18.375L7.96375 15.7338Z" fill="white"/>
<path fill-rule="evenodd" clip-rule="evenodd" d="M7.74187 6.25122L10.5 9.12997L13.1906 6.25122L14.875 7.97497L12.1275 10.875L14.875 13.7518L13.1906 15.4975L10.5 12.62L7.74187 15.4975L6.125 13.8L8.85 10.8587L6.125 7.97497L7.74187 6.25122Z" fill="white"/>
</g>
<defs>
<clipPath id="clip0">
<rect width="20" height="20" fill="white" transform="translate(0.5 0.875)"/>
</clipPath>
</defs>
</svg>
