<svg width="500" height="500" viewBox="0 0 500 500" fill="#000000" xmlns="http://www.w3.org/2000/svg">
<path fill-rule="evenodd" clip-rule="evenodd" d="M201.475 3.5703C183.604 7.15361 154.098 16.5355 147.878 20.6089C144.627 22.74 144.686 22.9237 148.259 21.8288C164.945 16.7142 185.664 14.5754 200.964 16.385C229.695 19.782 247.808 16.4054 281.87 1.29628C288.061 -1.44991 216.398 0.576552 201.475 3.5703ZM292.079 6.46451C266.079 11.5843 258.078 13.7332 244.531 19.2383C230.667 24.8711 227.536 25.2769 216.354 22.8778C142.475 7.03365 84.9076 50.1482 66.3811 135.203C64.9851 141.617 59.7402 153.676 54.7251 162.002C46.3003 175.993 38.1332 197.544 38.1332 205.78C38.1332 210.371 29.9789 226.162 19.8798 241.125C-1.21428 272.382 -2.32194 288.247 13.4405 333.329C19.3285 350.169 28.5599 369.601 24.1139 355.796C9.26511 309.688 13.5911 281.619 41.5736 242.509C49.5671 231.338 53.7885 222.502 54.9829 214.434C57.4279 197.914 62.2312 185.257 72.4248 168.477C77.5981 159.96 82.7638 146.668 84.9638 136.217C100.456 62.5545 152.753 24.7894 215.686 41.8254L232.403 46.3505L244.375 39.8704C264.435 29.0159 284.532 24.6108 321.429 22.9799L355.884 21.4562L331.184 13.1615C307.193 5.10418 302.8 4.35383 292.079 6.46451ZM279.09 31.489C270.543 33.4235 256.302 38.6632 247.443 43.1347L231.338 51.2661L217.439 46.8941C159.019 28.5182 104.246 65.5151 90.2086 132.827C87.8325 144.223 82.0236 159.278 75.0918 171.991C68.9001 183.351 62.5732 198.917 61.0291 206.586C57.2008 225.631 54.0488 233.114 45.1875 244.219C14.5559 282.599 12.828 317.87 38.6666 377.368C53.9135 412.478 86.4083 445.68 113.439 453.768C148.524 464.268 216.273 467.56 247.415 460.281C256.539 458.148 276.676 455.379 292.163 454.125C328.213 451.208 344.983 445.042 363.979 427.715C390.941 403.127 413.309 360.633 413.309 334C413.309 318.656 417.471 311.176 436.051 293.142C455.589 274.176 467.27 253.363 473.224 226.909C475.279 217.785 478.745 204.003 480.93 196.283C493.591 151.522 447.12 75.7929 383.831 38.0507L368.859 29.1231L331.745 28.5488C307.448 28.1736 289.263 29.1894 279.09 31.489ZM118.285 35.889C117.155 37.7138 117.584 38.1426 119.408 37.012C121.029 36.0115 122.356 34.6869 122.356 34.0667C122.356 31.9382 120.103 32.9463 118.285 35.889ZM110.629 40.9934C109.498 42.8182 109.927 43.247 111.752 42.1164C114.695 40.2992 115.703 38.0456 113.574 38.0456C112.954 38.0456 111.629 39.3728 110.629 40.9934ZM86.7248 59.1397C61.7233 80.1138 54.6231 90.7744 48.0919 117.164C45.139 129.096 39.4476 144.042 35.4457 150.376C31.4439 156.708 24.6856 172.558 20.4259 185.592C16.1663 198.628 9.79342 214.22 6.26371 220.241C0.914267 229.372 -0.121932 234.321 0.0107831 250.104C0.140946 265.267 0.674359 267.755 2.69316 262.64C4.07901 259.131 10.7939 247.646 17.6134 237.118C25.9974 224.179 31.7859 211.361 35.4815 197.559C38.4854 186.329 45.0063 170.286 49.9729 161.905C55.1207 153.217 61.5268 136.763 64.8753 123.621C72.6596 93.0841 80.7552 75.4968 95.1829 57.7819C101.739 49.7347 106.801 43.1526 106.436 43.1577C106.068 43.1628 97.1991 50.3549 86.7248 59.1397ZM378.795 53.2849C397.868 60.7603 452.957 113.461 461.589 132.488C467.975 146.566 468.569 171.361 463 191.26C460.851 198.935 457.49 212.273 455.533 220.896C448.792 250.576 432.639 274.513 409.256 289.472L395.443 298.308V315.668C395.443 378.776 351.849 430.117 295.131 433.805C279.414 434.826 261.123 437.442 254.484 439.619C197.728 458.214 107.194 441.77 77.7206 407.514C33.4371 356.041 28.2102 296.319 63.9846 250.571C73.2032 238.782 76.4164 232.473 76.4164 226.151C76.4164 213.551 82.8633 194.078 91.5919 180.316C99.2 168.326 103.628 156.075 109.35 131.201C122.053 75.9868 167.421 48.3463 215.698 66.4084L230.113 71.8012L252.307 61.2554C288.965 43.8366 345.578 40.2686 378.795 53.2849ZM299.735 50.9343C280.032 53.1241 267.779 57.0213 248.949 67.0898C234.391 74.8741 229.123 75.262 213.92 69.6675C163.113 50.97 124.145 80.1342 109.539 147.791C107.872 155.511 102.204 169.293 96.9439 178.417C84.9893 199.157 81.5208 209.32 81.5208 223.604C81.5208 233.31 79.7624 237.019 68.696 250.66C35.6116 291.44 34.5397 319.583 63.8519 377.881C80.699 411.386 99.6339 427.97 129.638 435.492C153.82 441.556 230.159 442.804 248.691 437.439C257.113 435.002 276.658 432.166 292.124 431.143C346.397 427.544 387.945 384.121 389.793 329.059C390.829 298.19 391.304 296.993 406.326 287.377C428.959 272.888 446.411 248.363 450.359 225.493C451.316 219.955 454.17 208.493 456.699 200.019C471.093 151.803 467.025 137.944 426.394 96.7593C382.355 52.1236 360.424 44.1862 299.735 50.9343ZM369.908 74.5499C384.673 79.9887 436.447 128.825 441.643 142.214C445.194 151.369 444.351 177.014 440.087 189.578C437.968 195.816 435.079 207.012 433.668 214.462C428.561 241.381 412.431 263.896 391.891 272.765C374.015 280.483 372.619 283.518 371.771 316.411C370.294 373.848 339.94 408.441 288.25 411.593C273.511 412.494 256.345 415.02 250.105 417.213C226.104 425.64 153.891 423.935 124.306 414.242C101.193 406.67 80.4693 378.942 66.1029 336.371C55.5393 305.068 61.708 285.401 92.7353 251.469C102.564 240.719 103.794 238.172 101.752 232.8C97.513 221.652 99.1949 214.761 112.163 190.119C120.036 175.161 126.419 158.811 128.793 147.52C140.107 93.7451 174.82 69.6446 212.96 89.0899C227.199 96.3484 232.311 95.6338 259.88 82.5256C295.606 65.5406 337.242 62.5213 369.908 74.5499ZM296.435 73.672C289.006 74.8409 273.361 80.3868 261.669 85.9966C232.081 100.195 228.087 100.756 211.515 93.0433C189.497 82.7936 165.098 86.8133 150.857 103.03C143.616 111.279 140.804 118.706 128.604 161.828C126.223 170.25 119.727 184.607 114.171 193.731C104.687 209.299 104.146 211.254 105.361 225.511C106.65 240.666 106.622 240.737 94.4172 254.861C58.9567 295.896 57.1064 311.763 81.7352 363.601C101.403 404.998 115.455 413.446 172.862 418.389C208.483 421.457 230.06 420.005 255.064 412.856C265.048 410.003 279.825 408.117 292.209 408.117C336.14 408.117 368.446 369.206 368.579 316.127C368.658 284.196 371.621 277.767 389.864 269.963C411.938 260.522 423.854 243.958 430.089 214.049C432.215 203.86 435.025 193.519 436.337 191.069C439.849 184.51 442.281 159.763 440.403 149.743C437.904 136.428 390.64 88.73 371.067 79.7692C354.712 72.281 322.164 69.6216 296.435 73.672ZM356.958 93.0943C368.591 96.55 373.918 100.664 395.79 123.083C423.359 151.343 425.067 154.467 421.198 169.569C416.011 189.798 410.606 210.519 408.194 219.421C400.502 247.81 387.355 251.817 353.332 236.141C339.294 229.674 326.661 223.997 325.257 223.525C323.79 223.03 322.146 206.487 321.391 184.589C319.487 129.491 312.894 117.756 280.078 111.062L264.696 107.925L271.385 103.543C291.407 90.4247 331.485 85.5296 356.958 93.0943ZM37.6993 115.388C21.2018 141.895 9.53309 171.223 4.15813 199.69C-1.39038 229.071 4.40825 220.554 17.4194 180.212C20.4974 170.669 26.5308 157.152 30.8262 150.169C36.9413 140.231 47.0455 107.713 44.8072 105.179C44.5648 104.903 41.3643 109.497 37.6993 115.388ZM207.705 113.596C221.566 119.941 222.944 120.097 238.865 117.093C296.864 106.149 314.099 121.22 316.294 184.798C317.812 228.77 317.366 227.545 333.769 232.91C353.789 239.459 369.921 246.949 369.921 249.698C369.921 256.852 359.98 257.375 345.969 250.962C323.3 240.584 298.972 243.859 294.518 257.888C293.556 260.918 287.732 268.294 281.576 274.276L270.385 285.156V304.211C270.385 317.97 269.328 324.144 266.587 326.42C261.858 330.346 259.489 325.639 260.666 314.649L261.452 307.304L246.139 308.573C221.058 310.648 175.736 309.384 172.88 306.528C171.42 305.068 168.733 304.448 166.905 305.148C165.08 305.849 161.081 303.917 158.018 300.855C153.894 296.73 150.561 295.666 145.16 296.746C141.148 297.547 137.248 297.2 136.49 295.975C135.732 294.747 129.084 292.93 121.716 291.935C94.601 288.275 93.9961 286.478 113.222 266.77C131.1 248.448 132.18 245.479 126.185 231.131C121.088 218.936 120.924 219.707 132.42 201.921C141.927 187.215 152.983 158.015 152.983 147.617C152.983 114.946 177.441 99.7403 207.705 113.596ZM181.82 126.105C178.809 128.215 174.97 134.244 173.293 139.504C171.614 144.764 166.933 154.95 162.888 162.139C150.206 184.686 155.51 192.814 181.374 190.469C204.446 188.379 211.684 176.613 211.684 141.206C211.684 124.43 195.73 116.363 181.82 126.105ZM247.984 131.347C239.865 137.031 240.827 140.864 249.873 138.878L257.435 137.217L248.349 154.628C240.695 169.291 239.493 173.747 240.736 182.884C241.629 189.433 241.195 193.731 239.646 193.731C234.901 193.731 231.683 179.872 233.332 166.539C235.373 150.039 230.902 146.05 226.926 160.822C214.93 205.361 265.071 225.309 288.054 185.14C307.609 150.966 277.562 110.628 247.984 131.347ZM182.734 151.313C177.601 161.698 173.401 173.196 173.401 176.858C173.401 180.959 171.987 183.522 169.723 183.522C162.957 183.522 162.829 178.499 169.286 166.287C172.811 159.623 177.517 149.618 179.75 144.052C183.597 134.461 188.512 128.871 190.955 131.316C191.567 131.926 187.866 140.925 182.734 151.313ZM485.444 193.236C483.888 199.825 480.794 213.255 478.569 223.081C472.061 251.829 459.397 274.605 437.955 296.115L419.14 314.991L417.231 332.834C410.085 399.549 360.138 453.135 302.594 455.823C289.792 456.42 270.704 459.033 260.176 461.629C226.109 470.031 163.449 470.084 126.325 461.741C109.455 457.951 112.663 460.948 139.203 473.772L164.427 485.959L204.007 485.826C236.068 485.717 247.775 484.627 265.63 480.084C277.753 476.998 295.243 474.474 304.498 474.474C363.727 474.474 422.785 415.743 434.691 345.003C438.195 324.187 438.387 323.83 455.846 305.135C486.69 272.107 501.026 234.224 495.14 201.298C491.246 179.505 489.107 177.726 485.444 193.236ZM153.697 209.2C150.581 210.397 147.432 214.008 146.699 217.229C145.967 220.447 144.093 228.249 142.534 234.566C136.894 257.439 136.687 265.821 141.674 269.465C160.826 283.469 203.606 246.181 194.78 223.181C191.386 214.337 164.31 205.121 153.697 209.2ZM162.293 217.339C161.566 219.095 159.675 225.123 158.087 230.738C156.502 236.353 154.131 244.474 152.817 248.784C151.505 253.095 150.431 258.782 150.431 261.418C150.431 265.088 149.729 265.512 147.434 263.217C142.082 257.865 154.315 214.148 161.165 214.148C162.513 214.148 163.021 215.585 162.293 217.339ZM496.457 243.32C493.293 260.193 477.208 287.545 458.965 307.08C441.865 325.392 440.911 327.069 438.693 342.724C432.688 385.134 402.076 435.584 369.043 457.507C347.291 471.948 331.143 477.113 299.85 479.645C284.345 480.901 264.196 483.67 255.071 485.804C245.947 487.937 225.849 489.831 210.408 490.017L182.333 490.352L196.37 493.925C245.689 506.479 313.07 498.031 362.264 473.129C415.856 446.002 444.037 410.518 455.303 355.977C460.19 332.306 461.109 330.409 473.319 318.789C494.056 299.055 497.966 290.429 499.461 261.124C500.819 234.518 499.535 226.912 496.457 243.32ZM333.44 252.702C335.502 254.764 333.922 259.407 327.577 269.93C322.613 278.166 318.2 289.548 317.274 296.513C315.36 310.893 316.274 310.152 294.904 314.632L278.041 318.166V301.786C278.041 286.287 278.557 284.883 287.612 275.687C292.877 270.343 300.21 262.35 303.908 257.924C311.039 249.394 327.261 246.523 333.44 252.702ZM352.862 260.433C355.927 262.028 358.824 263.661 359.299 264.062C359.773 264.463 357.476 268.421 354.194 272.857C348.886 280.031 348.087 284.493 346.951 313.253C345.627 346.83 345.075 348.773 331.005 369.389C319.285 386.561 311.248 390.231 285.328 390.241C270.053 390.249 257.884 391.918 245.769 395.672C226.589 401.614 152.276 401.557 132.476 395.588C120.345 391.931 106.229 376.883 97.9826 358.823C90.2392 341.866 90.4893 340.524 100.433 345.684C104.389 347.736 110.09 349.416 113.102 349.416C116.114 349.416 120.069 351.81 121.897 354.735C123.724 357.659 126.774 359.456 128.673 358.726C130.574 357.996 136.49 359.625 141.819 362.34C155.673 369.402 170.848 368.506 170.848 360.628C170.848 355.449 176.997 356.279 182.333 362.177C187.734 368.144 199.507 368.899 203.938 363.56C206.023 361.049 209.542 360.344 214.78 361.393C220.481 362.532 223.161 361.827 224.894 358.731C226.221 356.358 230.417 354.52 234.508 354.52C238.816 354.52 242.402 352.856 243.336 350.421C244.472 347.463 246.733 346.779 251.452 347.964C256.963 349.347 258.422 348.482 260.702 342.492C264.351 332.905 281.581 322.37 297.183 320.18C315.515 317.61 320.48 313.59 322.575 299.632C323.547 293.15 326.73 283.607 329.65 278.431C342.73 255.242 342.786 255.198 352.862 260.433ZM105.188 292.261C107.781 294.855 95.9868 310.648 92.4673 309.297C88.1132 307.626 88.3174 304.607 93.2993 297.006C97.2833 290.927 101.979 289.053 105.188 292.261ZM119.296 297.733C112.931 310.798 110.639 313.685 106.632 313.685C100.553 313.685 100.703 310.839 107.229 302.544C111.882 296.628 121.751 292.695 119.296 297.733ZM135.117 302.289C135.117 308.545 127.277 318.789 122.489 318.789C116.203 318.789 114.516 316.242 117.326 310.995C123.362 299.714 135.117 293.961 135.117 302.289ZM155.852 306.983C161.484 319.34 147.496 329.225 135.296 321.507C132.287 319.601 132.866 317.6 138.616 310.061C146.725 299.428 151.982 298.489 155.852 306.983ZM489.189 306.587C487.027 309.788 480.108 318.026 473.811 324.894C464.713 334.815 462.03 339.878 460.749 349.543C458.651 365.357 451.038 387.27 441.564 404.76C437.407 412.438 435.709 417.305 437.797 415.572C443.943 410.472 470.374 369.54 475.572 357.072C478.204 350.756 481.818 342.142 483.602 337.931C493.055 315.612 496.628 295.567 489.189 306.587ZM89.1775 319.09C89.1775 323.544 88.1107 326.089 86.6253 325.17C85.2216 324.302 84.0731 320.147 84.0731 315.936C84.0731 311.482 85.1399 308.938 86.6253 309.856C88.029 310.724 89.1775 314.879 89.1775 319.09ZM167.02 336.652V362.174H157.281C138.986 362.179 134.278 356.684 142.435 344.847C152.439 330.325 166.196 311.133 166.599 311.133C166.831 311.133 167.02 322.615 167.02 336.652ZM188.203 314.195C192.751 318.743 191.999 323.651 184.467 338.533C176.601 354.081 174.638 354.972 172.443 343.992C168.373 323.641 171.652 311.133 181.057 311.133C183.303 311.133 186.519 312.511 188.203 314.195ZM257.624 317.513C257.624 322.191 256.263 323.894 252.519 323.894C247.54 323.894 245.309 316.643 249.117 312.835C252.991 308.961 257.624 311.508 257.624 317.513ZM209.882 315.599C212.526 320.41 206.253 334.102 201.401 334.102C196.358 334.102 193.79 319.667 198.073 315.387C200.38 313.08 208.578 313.228 209.882 315.599ZM225.649 316.12C229.036 321.602 223.968 331.55 217.789 331.55C210.701 331.55 210.877 332.073 214.486 321.722C217.212 313.902 222.605 311.196 225.649 316.12ZM239.758 319.792C239.758 323.151 237.872 326.624 235.565 327.51C230.093 329.608 229.746 329.047 231.349 320.703C233.013 312.039 239.758 311.309 239.758 319.792ZM98.9091 328.824C99.5012 336.943 98.8478 339.457 96.3569 338.635C94.4708 338.015 92.6562 332.76 92.207 326.619C91.6149 318.501 92.2682 315.987 94.7592 316.809C96.6453 317.429 98.4599 322.684 98.9091 328.824ZM113.283 324.532C117.678 338.913 117.091 344.311 111.127 344.311C105.351 344.311 101.939 337.086 101.939 324.851C101.939 320.466 111.953 320.185 113.283 324.532ZM137.032 328.054C144.405 330.032 144.264 333.276 136.302 344.995C128.581 356.355 125.677 356.868 122.106 347.502C114.233 326.839 117.349 322.781 137.032 328.054ZM257.624 336.841C257.624 342.918 256.623 344.493 253.185 343.831C247.655 342.765 245.723 334.192 250.355 331.257C256.169 327.571 257.624 328.689 257.624 336.841ZM242.31 338.896C242.31 347.999 235.476 354.829 231.946 349.252C226.259 340.266 229.534 333.526 240.396 331.846C241.448 331.683 242.31 334.855 242.31 338.896ZM224.445 345.276C224.445 355.406 217.83 362.833 214.08 356.909C211.367 352.621 210.926 340.817 213.386 338.357C218.503 333.237 224.445 336.953 224.445 345.276ZM204.632 344.852C208.391 356.131 195.712 369.045 187.537 362.261C184.025 359.344 184.219 350.306 187.941 343.673C189.704 340.531 203.517 341.506 204.632 344.852Z" fill="#000000"/>
</svg>
