<svg width="20" height="20" viewBox="0 0 20 20" fill="none" xmlns="http://www.w3.org/2000/svg">
<circle cx="10" cy="10" r="10" fill="#1A325F"/>
<path d="M9.6418 4.73528L5.23809 13.9172H12.5489C12.6525 13.9172 12.7539 13.9475 12.8404 14.0045C12.9269 14.0615 12.9948 14.1426 13.0357 14.2379L13.0433 14.2556C13.0704 14.3186 13.0825 14.3871 13.0786 14.4556C13.0747 14.524 13.055 14.5907 13.021 14.6502C12.96 14.7565 12.8721 14.8448 12.7661 14.9062C12.6602 14.9676 12.5398 14.9999 12.4174 15H4.64773C4.52789 15 4.41073 14.9645 4.31103 14.898L4.27004 14.8708C4.14821 14.7893 4.05991 14.6665 4.02139 14.525C3.98286 14.3836 3.9967 14.233 4.06035 14.1009L9.25644 3.4082C9.31077 3.2966 9.38808 3.19774 9.4833 3.11812C9.57352 3.04287 9.68699 3.00115 9.80447 3.00002C9.92194 2.9989 10.0362 3.03844 10.1278 3.11194C10.169 3.14435 10.2023 3.1856 10.2253 3.23264L15.4957 13.9992C15.5672 14.1455 15.5821 14.313 15.5375 14.4696C15.513 14.5558 15.4611 14.6316 15.3896 14.6855C15.318 14.7395 15.2308 14.7685 15.1413 14.7683H15.0809C14.9605 14.7683 14.8426 14.7341 14.7409 14.6695C14.6392 14.605 14.5581 14.5129 14.5068 14.4039L9.96143 4.73689C9.94738 4.70643 9.92493 4.68062 9.89673 4.66247C9.86852 4.64433 9.83573 4.6346 9.80219 4.63443C9.76865 4.63426 9.73576 4.64366 9.70737 4.66152C9.67898 4.67939 9.65628 4.70497 9.64192 4.73528H9.6418Z" fill="white"/>
</svg>
