<svg width="20" height="20" viewBox="0 0 20 20" fill="none" xmlns="http://www.w3.org/2000/svg">
<path d="M10 20C15.5228 20 20 15.5228 20 10C20 4.47715 15.5228 0 10 0C4.47715 0 0 4.47715 0 10C0 15.5228 4.47715 20 10 20Z" fill="white"/>
<path d="M8.68822 15.2002C9.20116 17.1006 11.0453 18.5515 11.976 18.4904C12.0077 18.488 15.5055 17.8358 17.4205 14.636C18.9105 12.147 18.4024 9.74347 16.3775 9.68973C15.6472 9.74591 7.70874 11.5803 8.68822 15.2002Z" fill="#0E3CA5"/>
<path d="M16.1894 2.99213C16.187 2.99213 16.187 2.99213 16.1894 2.99213V2.98968C14.6359 1.66579 12.6232 0.869507 10.4249 0.869507C9.1401 0.869507 7.9188 1.14552 6.81475 1.63648C6.6169 1.71953 6.42882 1.81235 6.25051 1.9125C6.12593 1.97845 6.00136 2.0444 5.87923 2.11767L5.90854 2.12745C5.54215 2.37903 5.22706 2.67459 4.97058 3.01655C2.41807 6.38734 10.9745 8.83971 15.5495 8.84703C17.655 10.359 18.2461 4.59447 16.1894 2.99213Z" fill="#0E3CA5"/>
<path d="M7.33018 3.06296C6.15529 4.82896 2.2398 6.07469 1.59496 5.87928C1.59251 5.87684 1.59251 5.87439 1.59007 5.87195C1.61694 5.81821 1.64381 5.76692 1.67068 5.71318C1.89295 5.28329 2.14943 4.87293 2.43277 4.48456C2.71611 4.09618 3.0312 3.73224 3.37073 3.39271C3.71025 3.05319 4.07419 2.74054 4.46257 2.45476C4.70438 2.27889 4.95353 2.11279 5.21 1.95891C5.75714 1.64137 6.31894 1.62183 6.50458 1.6145C8.25104 1.6487 7.33995 3.04831 7.33018 3.06296Z" fill="#5493F7"/>
<path d="M6.36535 15.5471C6.45084 16.1016 6.36291 18.295 6.25055 18.4806C6.15285 18.4855 5.95011 18.5002 5.359 18.168C5.04879 17.9921 4.75079 17.7967 4.46257 17.5867C4.07419 17.3033 3.71025 16.9882 3.37073 16.6487C3.0312 16.3092 2.71855 15.9452 2.43277 15.5569C2.14698 15.1685 1.89295 14.7581 1.67068 14.3282C1.4484 13.8983 1.25788 13.4489 1.10155 12.9824C0.947667 12.5158 0.82798 12.0346 0.747374 11.5388C0.666768 11.0429 0.625244 10.5349 0.625244 10.017C0.625244 9.49921 0.666768 8.99115 0.747374 8.4953C0.82798 7.99946 0.947667 7.51826 1.10155 7.05173C1.1333 6.95647 1.16506 6.86365 1.19925 6.77083C1.87585 7.6697 2.65749 8.48309 3.32187 9.39174C3.95451 10.2564 4.82651 11.6658 5.00238 11.9662C6.10644 13.8397 6.2823 14.9951 6.36535 15.5471Z" fill="#5493F7"/>
<path d="M19.3746 10.0219C19.3746 11.2383 19.1426 12.3986 18.7225 13.466C17.6184 14.6531 10.1734 11.7317 10.1001 11.7C9.08152 11.253 5.98186 9.89491 5.70341 7.76252C5.30038 4.69218 11.5266 2.5549 14.2598 2.4743C14.5871 2.47918 15.5862 2.48895 16.1675 2.96282C18.1338 4.67996 19.3746 7.20561 19.3746 10.0219Z" fill="#5493F7"/>
<path d="M14.3356 18.3365C13.5246 18.7151 12.6306 18.4391 12.8627 17.6502C13.3072 16.1333 17.2007 14.5774 18.0605 14.4919C18.1655 14.4821 18.212 14.5529 18.1655 14.636C17.2667 16.2041 15.9403 17.4963 14.3356 18.3365Z" fill="#5493F7"/>
</svg>
