<svg xmlns="http://www.w3.org/2000/svg" width="21" height="20" viewBox="0 0 21 20" fill="none">
    <path d="M10.5352 20C16.058 20 20.5352 15.5228 20.5352 10C20.5352 4.47715 16.058 0 10.5352 0C5.01231 0 0.535156 4.47715 0.535156 10C0.535156 15.5228 5.01231 20 10.5352 20Z" fill="#1C68F3"/>
    <path fill-rule="evenodd" clip-rule="evenodd" d="M16.5352 7.66667V11H6.53516V11L6.10491 11C6.56028 13.0226 8.3675 14.5333 10.5276 14.5333C12.3134 14.5333 13.858 13.5007 14.597 12.0001L16.5352 12V14.8C16.5352 15.4627 15.9979 16 15.3352 16H5.73516C5.07241 16 4.53516 15.4627 4.53516 14.8V7.66667H16.5352ZM13.446 12.0001C12.8096 12.9305 11.7399 13.5411 10.5276 13.5411C9.31523 13.5411 8.2455 12.9305 7.60911 12.0001H13.446ZM7.96849 8.46667C7.02809 8.46667 6.25011 9.16206 6.12073 10.0667L7.14362 10.0667C7.25609 9.71851 7.58288 9.46667 7.96849 9.46667C8.3541 9.46667 8.68089 9.71851 8.79336 10.0667L9.81625 10.0667C9.68686 9.16206 8.90889 8.46667 7.96849 8.46667ZM13.1018 8.46667C12.1614 8.46667 11.3834 9.16206 11.2541 10.0667L12.277 10.0667C12.3894 9.71851 12.7162 9.46667 13.1018 9.46667C13.4874 9.46667 13.8142 9.71851 13.9267 10.0667L14.9496 10.0667C14.8202 9.16206 14.0422 8.46667 13.1018 8.46667ZM15.3352 4C15.9979 4 16.5352 4.53726 16.5352 5.2V6.66667H4.53516V5.2C4.53516 4.53726 5.07241 4 5.73516 4H15.3352Z" fill="white"/>
</svg>