<svg width="20" height="21" viewBox="0 0 20 21" fill="none" xmlns="http://www.w3.org/2000/svg">
<circle cx="10" cy="10.5" r="10" fill="#5F2652"/>
<path d="M16.82 13.825L10.63 2.82499C10.57 2.70499 10.47 2.61499 10.37 2.55499C10.15 2.42499 9.86 2.42499 9.64 2.55499C9.53 2.61499 9.44 2.71499 9.38 2.82499L3.19 13.825C3 14.155 3.12 14.585 3.45 14.785L9.64 18.455C9.75 18.515 9.88 18.555 10.01 18.555C10.14 18.555 10.27 18.525 10.38 18.455L16.57 14.795C16.9 14.575 17.01 14.145 16.82 13.825ZM13.2 11.485L13.13 11.205C13.13 11.025 13.08 10.855 13.03 10.695C12.85 10.185 12.53 9.72499 12.12 9.36499L11.96 9.22499C11.91 9.18499 11.86 9.14499 11.82 9.12499L11.79 9.10499C11.74 9.07499 11.69 9.03499 11.62 9.00499L11.6 8.97499H11.58C11.54 8.95499 11.49 8.92499 11.44 8.90499L11.42 8.88499H11.4C11.36 8.86499 11.31 8.84499 11.26 8.82499L11.24 8.80499H11.21C11.19 8.79499 11.17 8.78499 11.15 8.77499C11.13 8.76499 11.1 8.75499 11.08 8.74499C10.93 8.69499 10.78 8.65499 10.64 8.62499L10.56 8.61499L10.53 8.68499C10.43 8.86499 10.3 9.04499 10.12 9.21499L9.95 9.36499L10.18 9.38499C10.42 9.39499 10.66 9.45499 10.89 9.54499C11.02 9.59499 11.14 9.66499 11.26 9.73499L11.29 9.75499C11.3 9.75499 11.32 9.77499 11.33 9.78499L11.41 9.84499C11.44 9.86499 11.46 9.87499 11.48 9.89499C11.49 9.91499 11.51 9.92499 11.53 9.94499C11.55 9.95499 11.56 9.97499 11.58 9.98499C11.59 9.99499 11.6 10.005 11.61 10.015L11.77 10.175C11.79 10.195 11.81 10.225 11.84 10.245C11.85 10.245 11.85 10.255 11.86 10.265C11.87 10.275 11.88 10.285 11.88 10.285L12.03 10.525C12.04 10.545 12.05 10.565 12.06 10.575C12.07 10.585 12.07 10.595 12.07 10.605C12.08 10.615 12.09 10.635 12.1 10.645C12.11 10.655 12.11 10.665 12.12 10.675C12.13 10.685 12.13 10.705 12.14 10.715C12.14 10.725 12.15 10.745 12.16 10.755C12.16 10.765 12.17 10.775 12.18 10.795C12.18 10.795 12.18 10.805 12.19 10.815C12.2 10.835 12.21 10.865 12.22 10.865C12.29 11.025 12.33 11.205 12.36 11.385L12.44 11.675C12.5 11.885 12.81 12.925 13.54 13.295C14.23 13.655 15.15 14.095 15.68 14.355L10.43 17.465V15.385C10.43 15.125 11 14.735 11.42 14.555L11.45 14.545C11.52 14.515 11.59 14.475 11.66 14.435L11.68 14.425C11.83 14.335 11.97 14.235 12.1 14.115C12.11 14.105 12.12 14.095 12.14 14.085C12.15 14.075 12.16 14.065 12.17 14.055C12.19 14.035 12.22 14.015 12.24 13.995C12.26 13.975 12.27 13.965 12.29 13.945L12.31 13.925C12.36 13.885 12.4 13.835 12.45 13.765C12.46 13.755 12.47 13.745 12.48 13.735C12.5 13.715 12.52 13.685 12.54 13.665L12.56 13.635C12.57 13.625 12.58 13.605 12.6 13.585L12.7 13.435L12.73 13.405V13.395C12.75 13.365 12.77 13.335 12.79 13.305L12.88 13.155L12.83 13.095C12.69 12.935 12.57 12.735 12.45 12.495L12.31 12.285L12.23 12.505C12.19 12.625 12.14 12.735 12.07 12.855C12.06 12.875 12.04 12.905 12.03 12.925C12.02 12.935 12.01 12.955 12.01 12.965L11.98 13.015C11.96 13.055 11.93 13.085 11.91 13.115C11.9 13.125 11.89 13.135 11.89 13.145L11.88 13.155C11.86 13.185 11.84 13.215 11.81 13.235L11.78 13.265C11.58 13.485 11.35 13.665 11.08 13.795L11.04 13.815C11.03 13.825 9.59 14.415 9.59 15.375V17.455L4.31 14.345C5.16 13.845 5.87 13.505 6.42 13.335C6.68 13.245 7.32 13.605 7.78 13.985L7.8 14.005C7.86 14.065 7.92 14.115 7.97 14.145L8 14.175C8.12 14.275 8.27 14.385 8.43 14.465L8.54 14.525C8.63 14.575 8.73 14.625 8.83 14.665L8.87 14.675L8.94 14.695C9.08 14.745 9.22 14.785 9.36 14.815L9.44 14.835L9.48 14.765C9.57 14.595 9.71 14.425 9.9 14.245L10.07 14.085L9.84 14.075C9.62 14.065 9.4 14.015 9.19 13.935C9.18 13.925 9.17 13.925 9.16 13.925L9.13 13.915C9.11 13.915 9.1 13.905 9.08 13.895C9.07 13.885 9.05 13.875 9.04 13.875L9.02 13.855C9 13.845 8.98 13.835 8.96 13.825C8.8 13.745 8.65 13.655 8.52 13.545L8.3 13.345C8.09 13.165 7.86 13.005 7.63 12.865C7.05 12.535 6.57 12.435 6.18 12.555C5.55 12.755 4.87 13.095 4.39 13.355L9.59 4.09499V8.05499C9.59 8.17499 9.35 8.54499 8.65 8.86499L8.61 8.88499C8.55 8.91499 8.49 8.94499 8.43 8.97499L8.36 9.01499C8.21 9.10499 8.07 9.20499 7.93 9.31499C7.85 9.38499 7.77 9.46499 7.69 9.55499C7.61 9.62499 7.54 9.71499 7.47 9.80499C7.45 9.82499 7.44 9.84499 7.42 9.86499C7.41 9.88499 7.4 9.90499 7.38 9.92499L7.35 9.96499V9.98499C7.34 9.98499 7.34 9.99499 7.33 10.005C7.31 10.025 7.3 10.045 7.29 10.075L7.22 10.195C7.2 10.215 7.19 10.235 7.19 10.245C7.17 10.285 7.15 10.315 7.14 10.345L7.11 10.395C7.1 10.415 7.1 10.435 7.09 10.455C7.08 10.475 7.07 10.495 7.06 10.505C7.06 10.525 7.05 10.535 7.05 10.555L7 10.675C6.99 10.685 6.99 10.695 6.98 10.705L6.97 10.735C6.97 10.765 6.96 10.785 6.95 10.805C6.94 10.825 6.93 10.845 6.93 10.855L7.02 10.895L6.92 10.885C6.92 10.905 6.91 10.925 6.9 10.945C6.9 10.965 6.89 10.975 6.89 10.975C6.89 10.995 6.88 11.015 6.88 11.045C6.87 11.065 6.87 11.085 6.86 11.105C6.86 11.115 6.86 11.125 6.86 11.125C6.85 11.145 6.85 11.165 6.85 11.185C6.85 11.195 6.85 11.205 6.84 11.215C6.84 11.235 6.83 11.255 6.83 11.275C6.83 11.285 6.83 11.305 6.82 11.315V11.355C6.82 11.375 6.81 11.385 6.81 11.405C6.81 11.415 6.81 11.425 6.81 11.435C6.81 11.455 6.8 11.475 6.8 11.505C6.8 11.525 6.8 11.545 6.79 11.595V11.715C6.79 11.875 6.8 12.025 6.83 12.185L6.84 12.255L6.91 12.265C7.1 12.305 7.31 12.385 7.58 12.515L7.78 12.615L7.72 12.395C7.66 12.185 7.62 11.965 7.61 11.745V11.705C7.61 11.655 7.61 11.605 7.62 11.545V11.495C7.62 11.455 7.63 11.415 7.64 11.355L7.67 11.155C7.67 11.135 7.68 11.115 7.68 11.105C7.68 11.095 7.69 11.065 7.7 11.045C7.7 11.035 7.7 11.025 7.7 11.025C7.7 11.035 7.7 11.045 7.7 11.045L7.75 10.885C7.75 10.875 7.76 10.875 7.76 10.865L7.77 10.845C7.78 10.805 7.8 10.775 7.81 10.745C7.82 10.735 7.83 10.715 7.83 10.705L7.84 10.685C7.87 10.635 7.88 10.605 7.89 10.585C7.91 10.575 7.92 10.555 7.93 10.545L7.98 10.445C7.99 10.425 8 10.415 8.01 10.405C8.03 10.375 8.05 10.345 8.07 10.315L8.19 10.175C8.21 10.155 8.21 10.135 8.21 10.145C8.36 9.98499 8.52 9.84499 8.7 9.73499L8.96 9.61499C8.96 9.60499 10.39 8.99499 10.39 8.03499V4.09499L15.66 13.475C14.91 13.105 14.33 12.815 13.88 12.585C13.55 12.415 13.29 11.805 13.2 11.485Z" fill="white"/>
</svg>
