<svg width="20" height="20" viewBox="0 0 20 20" fill="none" xmlns="http://www.w3.org/2000/svg">
<circle cx="10" cy="10" r="10" fill="white"/>
<path d="M17.3275 11.5887L17.3073 11.6086C17.2979 11.6178 17.2883 11.6269 17.2786 11.6359L11.7375 16.8224C10.7722 17.7259 9.20718 17.7259 8.24191 16.8224L6.71172 15.3902C6.60323 15.2891 6.60301 15.1246 6.711 15.023C6.74278 14.9931 6.78184 14.9709 6.82478 14.9583C8.46491 14.4837 9.79758 13.9358 10.8227 13.3147C13.2642 11.8354 15.4325 11.2601 17.3275 11.5887ZM16.1658 7.32229C18.2116 7.92667 17.9729 9.33761 18 9.89385C15.7595 8.79244 13.0641 9.19614 9.91385 11.1049C7.5658 12.5276 5.59893 13.1141 4.01327 12.8646C2.4276 12.615 2.07091 10.7995 2 10.3171C3.74236 11.143 6.07736 10.6689 9.00496 8.89511C11.733 7.2422 14.12 6.71791 16.1658 7.32229ZM11.7375 3.17761L13.1753 4.5232C13.2836 4.6245 13.2837 4.78898 13.1757 4.89052C13.1371 4.92675 13.088 4.95149 13.0345 4.96159C10.9531 5.3547 9.28847 5.92929 8.04066 6.68535C5.9024 7.98091 4.08024 8.58309 2.57421 8.49188L2.57437 8.4915L8.24191 3.17761C9.20718 2.27413 10.7722 2.27413 11.7375 3.17761Z" fill="url(#paint0_linear_10519_140598)"/>
<defs>
<linearGradient id="paint0_linear_10519_140598" x1="10" y1="2.5" x2="9.86213" y2="27.7942" gradientUnits="userSpaceOnUse">
<stop stop-color="#3068EF"/>
<stop offset="1" stop-color="#1322AC"/>
</linearGradient>
</defs>
</svg>
