<svg width="250" height="250" viewBox="0 0 250 250" fill="none" xmlns="http://www.w3.org/2000/svg">
<g clip-path="url(#clip0_894_245)">
<path d="M0 35.7143C0 15.9898 15.9898 0 35.7143 0H214.286C234.01 0 250 15.9898 250 35.7143V214.286C250 234.01 234.01 250 214.286 250H35.7143C15.9898 250 0 234.01 0 214.286V35.7143Z" fill="#E43029"/>
<path d="M154.858 140.703C154.858 125.105 145.499 119.757 126.78 117.528C113.409 115.745 110.735 112.18 110.735 105.939C110.735 99.6993 115.192 95.6892 124.105 95.6892C132.128 95.6892 136.585 98.3633 138.813 105.049C139.259 106.386 140.596 107.277 141.933 107.277H149.064C150.847 107.277 152.183 105.939 152.183 104.158V103.712C150.4 93.906 142.378 86.3297 132.128 85.4386V74.742C132.128 72.9589 130.79 71.6219 128.563 71.1758H121.877C120.094 71.1758 118.757 72.5128 118.311 74.742V84.9926C104.94 86.7757 96.4726 95.6892 96.4726 106.831C96.4726 121.54 105.386 127.333 124.105 129.562C136.585 131.79 140.596 134.464 140.596 141.595C140.596 148.727 134.355 153.629 125.888 153.629C114.3 153.629 110.288 148.726 108.952 142.041C108.506 140.259 107.169 139.367 105.832 139.367H98.2546C96.4726 139.367 95.1355 140.703 95.1355 142.486V142.933C96.9175 154.074 104.049 162.096 118.757 164.326V175.023C118.757 176.805 120.094 178.141 122.322 178.588H129.007C130.79 178.588 132.128 177.25 132.573 175.023V164.326C145.944 162.096 154.858 152.737 154.858 140.703Z" fill="white"/>
<path fill-rule="evenodd" clip-rule="evenodd" d="M63.0456 101.928C50.1198 136.247 67.9479 175.022 102.712 187.5C104.049 188.392 105.386 190.175 105.386 191.512V197.752C105.386 198.644 105.386 199.089 104.94 199.535C104.495 201.318 102.712 202.209 100.929 201.318C75.9703 193.295 56.8052 174.13 48.7828 149.171C35.412 106.831 58.5884 61.8157 100.929 48.445C101.375 48 102.266 48 102.712 48C104.495 48.445 105.386 49.7821 105.386 51.5651V57.8045C105.386 60.0337 104.495 61.3707 102.712 62.2617C84.4388 68.9471 69.731 83.2089 63.0456 101.928ZM145.944 50.2281C146.39 48.445 148.173 47.5539 149.956 48.445C174.468 56.4674 194.079 75.6324 202.101 101.037C215.472 143.378 192.296 188.392 149.956 201.763C149.509 202.209 148.618 202.209 148.173 202.209C146.39 201.763 145.498 200.427 145.498 198.643V192.404C145.498 190.175 146.39 188.838 148.173 187.947C166.445 181.261 181.153 166.999 187.838 148.28C200.764 113.962 182.937 75.1864 148.173 62.7078C146.835 61.8157 145.498 60.0337 145.498 58.2505V52.0112C145.498 51.1191 145.498 50.6741 145.944 50.2281Z" fill="white"/>
</g>
<defs>
<clipPath id="clip0_894_245">
<rect width="250" height="250" fill="white"/>
</clipPath>
</defs>
</svg>
