<svg width="20" height="20" viewBox="0 0 20 20" fill="none" xmlns="http://www.w3.org/2000/svg">
<g clip-path="url(#clip0_10530_146037)">
<mask id="mask0_10530_146037" style="mask-type:alpha" maskUnits="userSpaceOnUse" x="0" y="0" width="20" height="20">
<path d="M10 20C15.5231 20 20 15.5231 20 10C20 4.47688 15.5231 0 10 0C4.47688 0 0 4.47688 0 10C0 15.5231 4.47688 20 10 20Z" fill="url(#paint0_linear_10530_146037)"/>
</mask>
<g mask="url(#mask0_10530_146037)">
<path d="M10 20C15.5231 20 20 15.5231 20 10C20 4.47688 15.5231 0 10 0C4.47688 0 0 4.47688 0 10C0 15.5231 4.47688 20 10 20Z" fill="url(#paint1_radial_10530_146037)"/>
<path fill-rule="evenodd" clip-rule="evenodd" d="M11.2252 18.7732C12.6939 18.6357 13.9133 17.5938 14.4533 16.2263C14.5064 16.0926 14.5579 15.9575 14.6077 15.8225C16.6964 14.6713 18.107 12.4869 18.107 9.98128C18.107 7.47503 16.6964 5.2894 14.607 4.1394C14.557 4.00378 14.5064 3.8694 14.4533 3.73628C13.9133 2.36815 12.6939 1.32628 11.2252 1.1894C10.9298 1.17201 10.6339 1.1693 10.3383 1.18128C5.64328 1.37128 1.89453 5.23878 1.89453 9.98128C1.89453 14.7363 5.66328 18.6113 10.3764 18.7825C10.6593 18.793 10.9426 18.7898 11.2252 18.7732ZM14.6077 15.8225C15.2916 13.9511 15.6407 11.9738 15.6389 9.98128C15.6389 7.9319 15.2752 5.96565 14.6077 4.14003C13.5731 3.57165 12.4112 3.27491 11.2308 3.27753C7.43266 3.27753 4.35453 6.2794 4.35453 9.98128C4.35453 13.6838 7.43328 16.685 11.2308 16.685C12.411 16.6875 13.5732 16.3907 14.6077 15.8225Z" fill="url(#paint2_radial_10530_146037)"/>
<path d="M14.608 15.82C13.5735 16.3883 12.4119 16.685 11.2317 16.6825C7.43422 16.6825 4.35547 13.6807 4.35547 9.97815C4.35547 6.45565 7.14172 3.56753 10.6836 3.29565C10.6836 3.29565 12.8967 3.12503 14.5823 4.12878C14.7717 4.4319 15.3011 6.58753 15.3011 6.58753C15.5265 7.70365 15.6398 8.8395 15.6392 9.97815C15.6392 12.0275 15.2761 13.9938 14.608 15.8188V15.82Z" fill="url(#paint3_linear_10530_146037)"/>
<path d="M14.608 15.82C13.5735 16.3883 12.4119 16.685 11.2317 16.6825C7.43422 16.6825 4.35547 13.6807 4.35547 9.97815C4.35547 6.45565 7.14172 3.56753 10.6836 3.29565C10.6836 3.29565 12.8967 3.12503 14.5823 4.12878C14.7717 4.4319 15.3011 6.58753 15.3011 6.58753C15.5265 7.70365 15.6398 8.8395 15.6392 9.97815C15.6392 12.0275 15.2761 13.9938 14.608 15.8188V15.82Z" fill="url(#paint4_radial_10530_146037)"/>
<path d="M14.608 15.82C13.5735 16.3883 12.4119 16.685 11.2317 16.6825C7.43422 16.6825 4.35547 13.6807 4.35547 9.97815C4.35547 6.45565 7.14172 3.56753 10.6836 3.29565C10.6836 3.29565 12.8967 3.12503 14.5823 4.12878C14.7717 4.4319 15.3011 6.58753 15.3011 6.58753C15.5265 7.70365 15.6398 8.8395 15.6392 9.97815C15.6392 12.0275 15.2761 13.9938 14.608 15.8188V15.82Z" fill="url(#paint5_radial_10530_146037)"/>
<path d="M14.608 15.82C13.5735 16.3883 12.4119 16.685 11.2317 16.6825C7.43422 16.6825 4.35547 13.6807 4.35547 9.97815C4.35547 6.45565 7.14172 3.56753 10.6836 3.29565C10.6836 3.29565 12.8967 3.12503 14.5823 4.12878C14.7717 4.4319 15.3011 6.58753 15.3011 6.58753C15.5265 7.70365 15.6398 8.8395 15.6392 9.97815C15.6392 12.0275 15.2761 13.9938 14.608 15.8188V15.82Z" fill="url(#paint6_radial_10530_146037)"/>
</g>
</g>
<defs>
<linearGradient id="paint0_linear_10530_146037" x1="14.5644" y1="1.06062" x2="4.92437" y2="18.8444" gradientUnits="userSpaceOnUse">
<stop stop-color="#32F273"/>
<stop offset="1" stop-color="#05963F"/>
</linearGradient>
<radialGradient id="paint1_radial_10530_146037" cx="0" cy="0" r="1" gradientUnits="userSpaceOnUse" gradientTransform="translate(17.1775 2.82158) rotate(133.664) scale(20.1071)">
<stop stop-color="#434343"/>
<stop offset="0.841"/>
</radialGradient>
<radialGradient id="paint2_radial_10530_146037" cx="0" cy="0" r="1" gradientUnits="userSpaceOnUse" gradientTransform="translate(14.5021 4.2973) rotate(124.792) scale(15.4302 13.7862)">
<stop stop-color="white"/>
<stop offset="1" stop-color="#EFC0FF"/>
</radialGradient>
<linearGradient id="paint3_linear_10530_146037" x1="13.4105" y1="5.00628" x2="6.13047" y2="14.99" gradientUnits="userSpaceOnUse">
<stop stop-color="#7DFBB6"/>
<stop offset="1" stop-color="#43AB57"/>
</linearGradient>
<radialGradient id="paint4_radial_10530_146037" cx="0" cy="0" r="1" gradientUnits="userSpaceOnUse" gradientTransform="translate(14.5067 3.98503) rotate(123.4) scale(9.83988 9.69788)">
<stop stop-color="#2A54DE"/>
<stop offset="1" stop-color="#061B5E"/>
</radialGradient>
<radialGradient id="paint5_radial_10530_146037" cx="0" cy="0" r="1" gradientUnits="userSpaceOnUse" gradientTransform="translate(14.0471 5.17504) rotate(128.794) scale(12.5016 12.2228)">
<stop stop-color="#573AA7"/>
<stop offset="0.841" stop-color="#090515"/>
</radialGradient>
<radialGradient id="paint6_radial_10530_146037" cx="0" cy="0" r="1" gradientUnits="userSpaceOnUse" gradientTransform="translate(14.0471 5.17504) rotate(128.794) scale(12.5016 12.2228)">
<stop stop-color="#434343"/>
<stop offset="0.841"/>
</radialGradient>
<clipPath id="clip0_10530_146037">
<rect width="20" height="20" fill="white"/>
</clipPath>
</defs>
</svg>
